M48
; DRILL file {KiCad 9.0.7} date 2026-02-13T04:17:40-0300
; FORMAT={-:-/ absolute / metric / decimal}
; #@! TF.CreationDate,2026-02-13T04:17:40-03:00
; #@! TF.GenerationSoftware,Kicad,Pcbnew,9.0.7
; #@! TF.FileFunction,Plated,1,2,PTH
FMAT,2
METRIC
; #@! TA.AperFunction,Plated,PTH,ComponentDrill
T1C0.800
; #@! TA.AperFunction,Plated,PTH,ComponentDrill
T2C1.000
; #@! TA.AperFunction,Plated,PTH,ComponentDrill
T3C1.020
; #@! TA.AperFunction,Plated,PTH,ComponentDrill
T4C1.100
; #@! TA.AperFunction,Plated,PTH,ComponentDrill
T5C1.200
; #@! TA.AperFunction,Plated,PTH,ComponentDrill
T6C1.300
%
G90
G05
T1
X80.5Y-104.15
X80.5Y-116.85
X139.001Y-138.506
X151.701Y-138.506
X151.771Y-55.006
X154.311Y-55.006
X155.601Y-138.306
X155.601Y-151.006
X156.851Y-55.006
X165.531Y-55.096
X185.851Y-55.096
T2
X83.0Y-148.5
X83.0Y-151.04
X93.751Y-153.0
X96.291Y-153.0
X96.561Y-147.506
X98.831Y-153.0
X99.101Y-147.506
X101.371Y-153.0
X103.911Y-153.0
X106.451Y-153.0
X126.975Y-149.5
X129.515Y-149.5
X132.055Y-149.5
X141.231Y-143.256
X143.771Y-143.256
X146.311Y-143.256
X148.851Y-143.256
T3
X69.221Y-92.546
X69.221Y-95.086
X69.221Y-97.626
X69.221Y-100.166
X69.221Y-102.706
X69.221Y-105.246
X69.221Y-107.786
X69.221Y-110.326
X69.221Y-112.866
X69.221Y-115.406
X69.221Y-117.946
X69.221Y-120.486
X69.221Y-123.026
X69.221Y-125.566
X69.221Y-128.106
X69.221Y-130.646
X69.221Y-133.186
X69.221Y-135.726
X69.221Y-138.266
X71.761Y-92.546
X71.761Y-95.086
X71.761Y-97.626
X71.761Y-100.166
X71.761Y-102.706
X71.761Y-105.246
X71.761Y-107.786
X71.761Y-110.326
X71.761Y-112.866
X71.761Y-115.406
X71.761Y-117.946
X71.761Y-120.486
X71.761Y-123.026
X71.761Y-125.566
X71.761Y-128.106
X71.761Y-130.646
X71.761Y-133.186
X71.761Y-135.726
X71.761Y-138.266
X130.181Y-92.546
X130.181Y-95.086
X130.181Y-97.626
X130.181Y-100.166
X130.181Y-102.706
X130.181Y-105.246
X130.181Y-107.786
X130.181Y-110.326
X130.181Y-112.866
X130.181Y-115.406
X130.181Y-117.946
X130.181Y-120.486
X130.181Y-123.026
X130.181Y-125.566
X130.181Y-128.106
X130.181Y-130.646
X130.181Y-133.186
X130.181Y-135.726
X130.181Y-138.266
X132.721Y-92.546
X132.721Y-95.086
X132.721Y-97.626
X132.721Y-100.166
X132.721Y-102.706
X132.721Y-105.246
X132.721Y-107.786
X132.721Y-110.326
X132.721Y-112.866
X132.721Y-115.406
X132.721Y-117.946
X132.721Y-120.486
X132.721Y-123.026
X132.721Y-125.566
X132.721Y-128.106
X132.721Y-130.646
X132.721Y-133.186
X132.721Y-135.726
X132.721Y-138.266
T4
X166.851Y-127.256
X166.851Y-131.756
X173.351Y-127.256
X173.351Y-131.756
X186.851Y-127.256
X186.851Y-131.756
X193.351Y-127.256
X193.351Y-131.756
X207.101Y-127.256
X207.101Y-131.756
X213.601Y-127.256
X213.601Y-131.756
T5
X151.531Y-63.046
X154.071Y-63.046
X156.611Y-63.046
X159.151Y-63.046
X161.691Y-63.046
X164.231Y-63.046
X166.771Y-63.046
X169.311Y-63.046
X171.851Y-63.046
X174.391Y-63.046
X176.931Y-63.046
X179.471Y-63.046
X182.011Y-63.046
X184.551Y-63.046
X187.091Y-63.046
X189.631Y-63.046
T6
X68.75Y-150.506
X73.75Y-150.506
M30
