%TF.GenerationSoftware,KiCad,Pcbnew,9.0.7*%
%TF.CreationDate,2026-02-13T04:16:15-03:00*%
%TF.ProjectId,Proyecto_final,50726f79-6563-4746-9f5f-66696e616c2e,rev?*%
%TF.SameCoordinates,Original*%
%TF.FileFunction,Copper,L2,Bot*%
%TF.FilePolarity,Positive*%
%FSLAX46Y46*%
G04 Gerber Fmt 4.6, Leading zero omitted, Abs format (unit mm)*
G04 Created by KiCad (PCBNEW 9.0.7) date 2026-02-13 04:16:15*
%MOMM*%
%LPD*%
G01*
G04 APERTURE LIST*
G04 Aperture macros list*
%AMRoundRect*
0 Rectangle with rounded corners*
0 $1 Rounding radius*
0 $2 $3 $4 $5 $6 $7 $8 $9 X,Y pos of 4 corners*
0 Add a 4 corners polygon primitive as box body*
4,1,4,$2,$3,$4,$5,$6,$7,$8,$9,$2,$3,0*
0 Add four circle primitives for the rounded corners*
1,1,$1+$1,$2,$3*
1,1,$1+$1,$4,$5*
1,1,$1+$1,$6,$7*
1,1,$1+$1,$8,$9*
0 Add four rect primitives between the rounded corners*
20,1,$1+$1,$2,$3,$4,$5,0*
20,1,$1+$1,$4,$5,$6,$7,0*
20,1,$1+$1,$6,$7,$8,$9,0*
20,1,$1+$1,$8,$9,$2,$3,0*%
G04 Aperture macros list end*
%TA.AperFunction,ComponentPad*%
%ADD10C,1.600000*%
%TD*%
%TA.AperFunction,ComponentPad*%
%ADD11O,1.600000X1.600000*%
%TD*%
%TA.AperFunction,ComponentPad*%
%ADD12R,1.530000X1.530000*%
%TD*%
%TA.AperFunction,ComponentPad*%
%ADD13C,1.530000*%
%TD*%
%TA.AperFunction,ComponentPad*%
%ADD14O,1.700000X1.700000*%
%TD*%
%TA.AperFunction,ComponentPad*%
%ADD15R,1.700000X1.700000*%
%TD*%
%TA.AperFunction,ComponentPad*%
%ADD16C,1.440000*%
%TD*%
%TA.AperFunction,ComponentPad*%
%ADD17C,2.000000*%
%TD*%
%TA.AperFunction,ComponentPad*%
%ADD18C,2.800000*%
%TD*%
%TA.AperFunction,ComponentPad*%
%ADD19RoundRect,0.250001X-1.149999X-1.149999X1.149999X-1.149999X1.149999X1.149999X-1.149999X1.149999X0*%
%TD*%
%TA.AperFunction,ComponentPad*%
%ADD20C,1.800000*%
%TD*%
%TA.AperFunction,ComponentPad*%
%ADD21R,1.800000X1.800000*%
%TD*%
%TA.AperFunction,Conductor*%
%ADD22C,0.500000*%
%TD*%
G04 APERTURE END LIST*
D10*
%TO.P,Wire_Bridge1,1*%
%TO.N,GND*%
X80500000Y-116850000D03*
%TO.P,Wire_Bridge1,2*%
X80500000Y-104150000D03*
%TD*%
%TO.P,R6,1*%
%TO.N,VCC_33*%
X151700621Y-138506182D03*
D11*
%TO.P,R6,2*%
%TO.N,/D15_SCL*%
X139000621Y-138506182D03*
%TD*%
D12*
%TO.P,U1,CN7_1,PC10*%
%TO.N,unconnected-(U1A-PC10-PadCN7_1)*%
X69220621Y-92546182D03*
D13*
%TO.P,U1,CN7_2,PC11*%
%TO.N,unconnected-(U1A-PC11-PadCN7_2)*%
X71760621Y-92546182D03*
%TO.P,U1,CN7_3,PC12*%
%TO.N,unconnected-(U1A-PC12-PadCN7_3)*%
X69220621Y-95086182D03*
%TO.P,U1,CN7_4,PB11*%
%TO.N,unconnected-(U1A-PB11-PadCN7_4)*%
X71760621Y-95086182D03*
%TO.P,U1,CN7_5,VDD*%
%TO.N,unconnected-(U1A-VDD-PadCN7_5)*%
X69220621Y-97626182D03*
%TO.P,U1,CN7_6,E5V*%
%TO.N,VCC_EXT*%
X71760621Y-97626182D03*
%TO.P,U1,CN7_7,BOOT0*%
%TO.N,unconnected-(U1A-BOOT0-PadCN7_7)*%
X69220621Y-100166182D03*
%TO.P,U1,CN7_8,GND_CN7*%
%TO.N,GND*%
X71760621Y-100166182D03*
%TO.P,U1,CN7_9*%
%TO.N,N/C*%
X69220621Y-102706182D03*
%TO.P,U1,CN7_10*%
X71760621Y-102706182D03*
%TO.P,U1,CN7_11*%
X69220621Y-105246182D03*
%TO.P,U1,CN7_12,IOREF*%
%TO.N,unconnected-(U1A-IOREF-PadCN7_12)*%
X71760621Y-105246182D03*
%TO.P,U1,CN7_13,PA13*%
%TO.N,unconnected-(U1A-PA13-PadCN7_13)*%
X69220621Y-107786182D03*
%TO.P,U1,CN7_14,RESET*%
%TO.N,unconnected-(U1A-RESET-PadCN7_14)*%
X71760621Y-107786182D03*
%TO.P,U1,CN7_15,PA14*%
%TO.N,unconnected-(U1A-PA14-PadCN7_15)*%
X69220621Y-110326182D03*
%TO.P,U1,CN7_16,+3V3_CN7*%
%TO.N,VCC_33*%
X71760621Y-110326182D03*
%TO.P,U1,CN7_17,PA15*%
%TO.N,unconnected-(U1A-PA15-PadCN7_17)*%
X69220621Y-112866182D03*
%TO.P,U1,CN7_18,+5V_CN7*%
%TO.N,VCC_5*%
X71760621Y-112866182D03*
%TO.P,U1,CN7_19,GND_CN7*%
%TO.N,GND*%
X69220621Y-115406182D03*
%TO.P,U1,CN7_20,GND_CN7*%
X71760621Y-115406182D03*
%TO.P,U1,CN7_21,PB7*%
%TO.N,unconnected-(U1A-PB7-PadCN7_21)*%
X69220621Y-117946182D03*
%TO.P,U1,CN7_22,GND_CN7*%
%TO.N,GND*%
X71760621Y-117946182D03*
%TO.P,U1,CN7_23,PC13*%
%TO.N,unconnected-(U1A-PC13-PadCN7_23)*%
X69220621Y-120486182D03*
%TO.P,U1,CN7_24,VIN_CN7*%
%TO.N,unconnected-(U1A-VIN_CN7-PadCN7_24)*%
X71760621Y-120486182D03*
%TO.P,U1,CN7_25,PC14*%
%TO.N,unconnected-(U1A-PC14-PadCN7_25)*%
X69220621Y-123026182D03*
%TO.P,U1,CN7_26*%
%TO.N,N/C*%
X71760621Y-123026182D03*
%TO.P,U1,CN7_27,PC15*%
%TO.N,unconnected-(U1A-PC15-PadCN7_27)*%
X69220621Y-125566182D03*
%TO.P,U1,CN7_28,PA0*%
%TO.N,unconnected-(U1A-PA0-PadCN7_28)*%
X71760621Y-125566182D03*
%TO.P,U1,CN7_29,PH0*%
%TO.N,unconnected-(U1A-PH0-PadCN7_29)*%
X69220621Y-128106182D03*
%TO.P,U1,CN7_30,PA1*%
%TO.N,unconnected-(U1A-PA1-PadCN7_30)*%
X71760621Y-128106182D03*
%TO.P,U1,CN7_31,PH1*%
%TO.N,unconnected-(U1A-PH1-PadCN7_31)*%
X69220621Y-130646182D03*
%TO.P,U1,CN7_32,PA4*%
%TO.N,unconnected-(U1A-PA4-PadCN7_32)*%
X71760621Y-130646182D03*
%TO.P,U1,CN7_33,VBAT*%
%TO.N,unconnected-(U1A-VBAT-PadCN7_33)*%
X69220621Y-133186182D03*
%TO.P,U1,CN7_34,PB0*%
%TO.N,unconnected-(U1A-PB0-PadCN7_34)*%
X71760621Y-133186182D03*
%TO.P,U1,CN7_35,PC2*%
%TO.N,unconnected-(U1A-PC2-PadCN7_35)*%
X69220621Y-135726182D03*
%TO.P,U1,CN7_36,PC1/PB9*%
%TO.N,/PC1*%
X71760621Y-135726182D03*
%TO.P,U1,CN7_37,PC3*%
%TO.N,unconnected-(U1A-PC3-PadCN7_37)*%
X69220621Y-138266182D03*
%TO.P,U1,CN7_38,PC0/PB8*%
%TO.N,/PC0*%
X71760621Y-138266182D03*
D12*
%TO.P,U1,CN10_1,PC9*%
%TO.N,unconnected-(U1B-PC9-PadCN10_1)*%
X130180621Y-92546182D03*
D13*
%TO.P,U1,CN10_2,PC8*%
%TO.N,unconnected-(U1B-PC8-PadCN10_2)*%
X132720621Y-92546182D03*
%TO.P,U1,CN10_3,PB8*%
%TO.N,/D15_SCL*%
X130180621Y-95086182D03*
%TO.P,U1,CN10_4,PC6*%
%TO.N,unconnected-(U1B-PC6-PadCN10_4)*%
X132720621Y-95086182D03*
%TO.P,U1,CN10_5,PB9*%
%TO.N,/D14_SDA*%
X130180621Y-97626182D03*
%TO.P,U1,CN10_6,PC5*%
%TO.N,unconnected-(U1B-PC5-PadCN10_6)*%
X132720621Y-97626182D03*
%TO.P,U1,CN10_7,AVDD_CN10*%
%TO.N,unconnected-(U1B-AVDD_CN10-PadCN10_7)*%
X130180621Y-100166182D03*
%TO.P,U1,CN10_8,U5V*%
%TO.N,unconnected-(U1B-U5V-PadCN10_8)*%
X132720621Y-100166182D03*
%TO.P,U1,CN10_9,GND_CN10*%
%TO.N,GND*%
X130180621Y-102706182D03*
%TO.P,U1,CN10_10*%
%TO.N,N/C*%
X132720621Y-102706182D03*
%TO.P,U1,CN10_11,PA5*%
%TO.N,/D13*%
X130180621Y-105246182D03*
%TO.P,U1,CN10_12,PA12*%
%TO.N,unconnected-(U1B-PA12-PadCN10_12)*%
X132720621Y-105246182D03*
%TO.P,U1,CN10_13,PA6*%
%TO.N,/D12*%
X130180621Y-107786182D03*
%TO.P,U1,CN10_14,PA11*%
%TO.N,unconnected-(U1B-PA11-PadCN10_14)*%
X132720621Y-107786182D03*
%TO.P,U1,CN10_15,PA7*%
%TO.N,/D11*%
X130180621Y-110326182D03*
%TO.P,U1,CN10_16,PB12*%
%TO.N,unconnected-(U1B-PB12-PadCN10_16)*%
X132720621Y-110326182D03*
%TO.P,U1,CN10_17,PB6*%
%TO.N,/D10*%
X130180621Y-112866182D03*
%TO.P,U1,CN10_18*%
%TO.N,N/C*%
X132720621Y-112866182D03*
%TO.P,U1,CN10_19,PC7*%
%TO.N,/D9*%
X130180621Y-115406182D03*
%TO.P,U1,CN10_20,GND_CN10*%
%TO.N,GND*%
X132720621Y-115406182D03*
%TO.P,U1,CN10_21,PA9*%
%TO.N,/D8*%
X130180621Y-117946182D03*
%TO.P,U1,CN10_22,PB2*%
%TO.N,unconnected-(U1B-PB2-PadCN10_22)*%
X132720621Y-117946182D03*
%TO.P,U1,CN10_23,PA8*%
%TO.N,/D7*%
X130180621Y-120486182D03*
%TO.P,U1,CN10_24,PB1*%
%TO.N,unconnected-(U1B-PB1-PadCN10_24)*%
X132720621Y-120486182D03*
%TO.P,U1,CN10_25,PB10*%
%TO.N,/D6*%
X130180621Y-123026182D03*
%TO.P,U1,CN10_26,PB15*%
%TO.N,unconnected-(U1B-PB15-PadCN10_26)*%
X132720621Y-123026182D03*
%TO.P,U1,CN10_27,PB4*%
%TO.N,/D5*%
X130180621Y-125566182D03*
%TO.P,U1,CN10_28,PB14*%
%TO.N,unconnected-(U1B-PB14-PadCN10_28)*%
X132720621Y-125566182D03*
%TO.P,U1,CN10_29,PB5*%
%TO.N,/D4*%
X130180621Y-128106182D03*
%TO.P,U1,CN10_30,PB13*%
%TO.N,unconnected-(U1B-PB13-PadCN10_30)*%
X132720621Y-128106182D03*
%TO.P,U1,CN10_31,PB3*%
%TO.N,unconnected-(U1B-PB3-PadCN10_31)*%
X130180621Y-130646182D03*
%TO.P,U1,CN10_32,AGND_CN10*%
%TO.N,unconnected-(U1B-AGND_CN10-PadCN10_32)*%
X132720621Y-130646182D03*
%TO.P,U1,CN10_33,PA10*%
%TO.N,unconnected-(U1B-PA10-PadCN10_33)*%
X130180621Y-133186182D03*
%TO.P,U1,CN10_34,PC4*%
%TO.N,/PC4*%
X132720621Y-133186182D03*
%TO.P,U1,CN10_35,PA2*%
%TO.N,unconnected-(U1B-PA2-PadCN10_35)*%
X130180621Y-135726182D03*
%TO.P,U1,CN10_36*%
%TO.N,N/C*%
X132720621Y-135726182D03*
%TO.P,U1,CN10_37,PA3*%
%TO.N,unconnected-(U1B-PA3-PadCN10_37)*%
X130180621Y-138266182D03*
%TO.P,U1,CN10_38*%
%TO.N,N/C*%
X132720621Y-138266182D03*
%TD*%
D14*
%TO.P,IDD1,2,Pin_2*%
%TO.N,Net-(Bornera1-Pin_1)*%
X83000000Y-151040000D03*
D15*
%TO.P,IDD1,1,Pin_1*%
%TO.N,VCC_EXT*%
X83000000Y-148500000D03*
%TD*%
D16*
%TO.P,Preset1,1,1*%
%TO.N,GND*%
X151770621Y-55006182D03*
%TO.P,Preset1,2,2*%
%TO.N,Net-(DS1-V0)*%
X154310621Y-55006182D03*
%TO.P,Preset1,3,3*%
%TO.N,VCC_EXT*%
X156850621Y-55006182D03*
%TD*%
D11*
%TO.P,R1,2*%
%TO.N,VCC_EXT*%
X165530622Y-55096183D03*
D10*
%TO.P,R1,1*%
%TO.N,Net-(DS1-A)*%
X185850622Y-55096183D03*
%TD*%
D15*
%TO.P,Buzzer1,1,Pin_1*%
%TO.N,GND*%
X126975000Y-149500000D03*
D14*
%TO.P,Buzzer1,2,Pin_2*%
%TO.N,/PC4*%
X129515000Y-149500000D03*
%TO.P,Buzzer1,3,Pin_3*%
%TO.N,VCC_33*%
X132055000Y-149500000D03*
%TD*%
D17*
%TO.P,SW3,2,2*%
%TO.N,GND*%
X213600621Y-131756182D03*
X207100621Y-131756182D03*
%TO.P,SW3,1,1*%
%TO.N,/D12*%
X213600621Y-127256182D03*
X207100621Y-127256182D03*
%TD*%
D15*
%TO.P,SHT86,1,Pin_1*%
%TO.N,/D14_SDA*%
X148850621Y-143256182D03*
D14*
%TO.P,SHT86,2,Pin_2*%
%TO.N,GND*%
X146310621Y-143256182D03*
%TO.P,SHT86,3,Pin_3*%
%TO.N,VCC_33*%
X143770621Y-143256182D03*
%TO.P,SHT86,4,Pin_4*%
%TO.N,/D15_SCL*%
X141230621Y-143256182D03*
%TD*%
D17*
%TO.P,SW2,2,2*%
%TO.N,GND*%
X193350621Y-131756182D03*
X186850621Y-131756182D03*
%TO.P,SW2,1,1*%
%TO.N,/D11*%
X193350621Y-127256182D03*
X186850621Y-127256182D03*
%TD*%
D15*
%TO.P,Jumper_prueba1,1,Pin_1*%
%TO.N,VCC_33*%
X99100621Y-147506182D03*
D14*
%TO.P,Jumper_prueba1,2,Pin_2*%
%TO.N,/PC1*%
X96560621Y-147506182D03*
%TD*%
D18*
%TO.P,Bornera1,2,Pin_2*%
%TO.N,GND*%
X73750000Y-150506182D03*
D19*
%TO.P,Bornera1,1,Pin_1*%
%TO.N,Net-(Bornera1-Pin_1)*%
X68750000Y-150506182D03*
%TD*%
D20*
%TO.P,DS1,16,K*%
%TO.N,GND*%
X189630622Y-63046182D03*
%TO.P,DS1,15,A*%
%TO.N,Net-(DS1-A)*%
X187090622Y-63046182D03*
%TO.P,DS1,14,DB7*%
%TO.N,/D9*%
X184550622Y-63046182D03*
%TO.P,DS1,13,DB6*%
%TO.N,/D8*%
X182010622Y-63046182D03*
%TO.P,DS1,12,DB5*%
%TO.N,/D7*%
X179470622Y-63046182D03*
%TO.P,DS1,11,DB4*%
%TO.N,/D6*%
X176930622Y-63046182D03*
%TO.P,DS1,10,DB3*%
%TO.N,unconnected-(DS1-DB3-Pad10)*%
X174390622Y-63046182D03*
%TO.P,DS1,9,DB2*%
%TO.N,unconnected-(DS1-DB2-Pad9)*%
X171850622Y-63046182D03*
%TO.P,DS1,8,DB1*%
%TO.N,unconnected-(DS1-DB1-Pad8)*%
X169310622Y-63046182D03*
%TO.P,DS1,7,DB0*%
%TO.N,unconnected-(DS1-DB0-Pad7)*%
X166770622Y-63046182D03*
%TO.P,DS1,6,E*%
%TO.N,/D5*%
X164230622Y-63046182D03*
%TO.P,DS1,5,R/W*%
%TO.N,GND*%
X161690622Y-63046182D03*
%TO.P,DS1,4,RS*%
%TO.N,/D4*%
X159150622Y-63046182D03*
%TO.P,DS1,3,V0*%
%TO.N,Net-(DS1-V0)*%
X156610622Y-63046182D03*
%TO.P,DS1,2,VDD*%
%TO.N,VCC_EXT*%
X154070622Y-63046182D03*
D21*
%TO.P,DS1,1,VSS*%
%TO.N,GND*%
X151530622Y-63046182D03*
%TD*%
D15*
%TO.P,Relay1,1,Pin_1*%
%TO.N,VCC_33*%
X93750621Y-153000000D03*
D14*
%TO.P,Relay1,2,Pin_2*%
%TO.N,unconnected-(Relay1-Pin_2-Pad2)*%
X96290621Y-153000000D03*
%TO.P,Relay1,3,Pin_3*%
%TO.N,/PC0*%
X98830621Y-153000000D03*
%TO.P,Relay1,4,Pin_4*%
%TO.N,GND*%
X101370621Y-153000000D03*
%TO.P,Relay1,5,Pin_5*%
X103910621Y-153000000D03*
%TO.P,Relay1,6,Pin_6*%
%TO.N,VCC_EXT*%
X106450621Y-153000000D03*
%TD*%
D17*
%TO.P,SW1,2,2*%
%TO.N,GND*%
X173350621Y-131756182D03*
X166850621Y-131756182D03*
%TO.P,SW1,1,1*%
%TO.N,/D10*%
X173350621Y-127256182D03*
X166850621Y-127256182D03*
%TD*%
D10*
%TO.P,R5,1*%
%TO.N,/D14_SDA*%
X155600621Y-151006182D03*
D11*
%TO.P,R5,2*%
%TO.N,VCC_33*%
X155600621Y-138306182D03*
%TD*%
D22*
%TO.N,/PC0*%
X91000000Y-145500000D02*
X91000000Y-154000000D01*
X91000000Y-154000000D02*
X92000000Y-155000000D01*
X92000000Y-155000000D02*
X96830621Y-155000000D01*
X83766182Y-138266182D02*
X91000000Y-145500000D01*
X96830621Y-155000000D02*
X98830621Y-153000000D01*
X71760621Y-138266182D02*
X83766182Y-138266182D01*
%TO.N,VCC_EXT*%
X65100621Y-141600621D02*
X67500000Y-144000000D01*
X67500000Y-144000000D02*
X76594439Y-144000000D01*
X76594439Y-144000000D02*
X81094439Y-148500000D01*
X73700621Y-89906182D02*
X68500621Y-89906182D01*
X81094439Y-148500000D02*
X83000000Y-148500000D01*
X68500621Y-89906182D02*
X65100621Y-93306182D01*
X65100621Y-93306182D02*
X65100621Y-141600621D01*
X74100621Y-90306182D02*
X73700621Y-89906182D01*
X74100621Y-96306182D02*
X74100621Y-90306182D01*
X105000000Y-158000000D02*
X106450621Y-156549379D01*
X106450621Y-156549379D02*
X106450621Y-153000000D01*
X89500000Y-158000000D02*
X105000000Y-158000000D01*
X86500000Y-155000000D02*
X89500000Y-158000000D01*
X83000000Y-148500000D02*
X86500000Y-152000000D01*
X86500000Y-152000000D02*
X86500000Y-155000000D01*
%TO.N,VCC_33*%
X93750621Y-152856182D02*
X99100621Y-147506182D01*
X93750621Y-153000000D02*
X93750621Y-152856182D01*
X129555000Y-152000000D02*
X132055000Y-149500000D01*
X111506182Y-147506182D02*
X116000000Y-152000000D01*
X99100621Y-147506182D02*
X111506182Y-147506182D01*
X116000000Y-152000000D02*
X129555000Y-152000000D01*
%TO.N,VCC_EXT*%
X157083819Y-55096183D02*
X165530622Y-55096183D01*
X156993818Y-55006182D02*
X157083819Y-55096183D01*
X156850621Y-55006182D02*
X156993818Y-55006182D01*
X156850621Y-60316184D02*
X156850621Y-55006182D01*
X154070622Y-63096183D02*
X156850621Y-60316184D01*
X154070622Y-62476183D02*
X154070622Y-63096183D01*
%TO.N,Net-(Bornera1-Pin_1)*%
X80540000Y-153500000D02*
X83000000Y-151040000D01*
X71743818Y-153500000D02*
X80540000Y-153500000D01*
X68750000Y-150506182D02*
X71743818Y-153500000D01*
%TO.N,/PC4*%
X135008818Y-144006182D02*
X135100621Y-144006182D01*
X129515000Y-149500000D02*
X135008818Y-144006182D01*
%TO.N,VCC_33*%
X132055000Y-149500000D02*
X137500000Y-149500000D01*
X137500000Y-149500000D02*
X143743818Y-143256182D01*
X143743818Y-143256182D02*
X143770621Y-143256182D01*
%TO.N,/D15_SCL*%
X129680621Y-95086182D02*
X130180621Y-95086182D01*
X128100621Y-93506182D02*
X129680621Y-95086182D01*
X128100621Y-91506182D02*
X128100621Y-93506182D01*
X136100621Y-92756182D02*
X133850621Y-90506182D01*
X136100621Y-121100621D02*
X136100621Y-92756182D01*
X133850621Y-90506182D02*
X129100621Y-90506182D01*
X139000621Y-124000621D02*
X136100621Y-121100621D01*
X139000621Y-139256182D02*
X139000621Y-124000621D01*
X141230621Y-143256182D02*
X141230621Y-141486182D01*
X141230621Y-141486182D02*
X139000621Y-139256182D01*
X129100621Y-90506182D02*
X128100621Y-91506182D01*
%TO.N,VCC_33*%
X159600621Y-146500000D02*
X159600621Y-152506182D01*
X155600621Y-142500000D02*
X159600621Y-146500000D01*
X155600621Y-138306182D02*
X155600621Y-142500000D01*
X82793401Y-110326182D02*
X99100621Y-126633402D01*
X71760621Y-110326182D02*
X82793401Y-110326182D01*
X99100621Y-126633402D02*
X99100621Y-147506182D01*
X150600621Y-155006182D02*
X143770621Y-148176182D01*
%TO.N,/PC4*%
X135100621Y-135566182D02*
X132720621Y-133186182D01*
X135100621Y-144006182D02*
X135100621Y-135566182D01*
%TO.N,VCC_33*%
X155300621Y-138306182D02*
X155100621Y-138506182D01*
%TO.N,/D11*%
X162190622Y-134506182D02*
X160190622Y-132506182D01*
%TO.N,VCC_33*%
X157100621Y-155006182D02*
X150600621Y-155006182D01*
%TO.N,/D11*%
X121100621Y-101246182D02*
X130180621Y-110326182D01*
%TO.N,VCC_33*%
X143770621Y-148176182D02*
X143770621Y-143256182D01*
%TO.N,/D12*%
X197850621Y-136506182D02*
X207100621Y-127256182D01*
X123100621Y-100706182D02*
X123100621Y-86506182D01*
%TO.N,/D10*%
X162350621Y-91756182D02*
X162350621Y-122756182D01*
%TO.N,/D11*%
X160190622Y-92596183D02*
X147100621Y-79506182D01*
%TO.N,/D12*%
X130180621Y-107786182D02*
X123100621Y-100706182D01*
X158100621Y-133006182D02*
X161600621Y-136506182D01*
X207100621Y-127256182D02*
X213600621Y-127256182D01*
%TO.N,/D10*%
X148850621Y-78256182D02*
X162350621Y-91756182D01*
%TO.N,/D11*%
X160190622Y-132506182D02*
X160190622Y-92596183D01*
X190600621Y-127556182D02*
X190600621Y-132006182D01*
%TO.N,/D12*%
X127600621Y-82006182D02*
X146000621Y-82006182D01*
X158100621Y-94106182D02*
X158100621Y-133006182D01*
%TO.N,/D10*%
X173350621Y-127256182D02*
X166850621Y-127256182D01*
%TO.N,/D11*%
X190600621Y-127556182D02*
X193350621Y-127556182D01*
X121100621Y-86506182D02*
X121100621Y-101246182D01*
%TO.N,/PC1*%
X84780621Y-135726182D02*
X71760621Y-135726182D01*
%TO.N,/D12*%
X146000621Y-82006182D02*
X158100621Y-94106182D01*
%TO.N,/D11*%
X186850621Y-127556182D02*
X190600621Y-127556182D01*
X190600621Y-132006182D02*
X188100621Y-134506182D01*
%TO.N,/D10*%
X119100621Y-86006182D02*
X119100621Y-101786182D01*
X119100621Y-86006182D02*
X126850621Y-78256182D01*
%TO.N,VCC_33*%
X155600621Y-138306182D02*
X155300621Y-138306182D01*
%TO.N,/D12*%
X123100621Y-86506182D02*
X127600621Y-82006182D01*
%TO.N,/D11*%
X188100621Y-134506182D02*
X162190622Y-134506182D01*
%TO.N,VCC_33*%
X155100621Y-138506182D02*
X151700621Y-138506182D01*
X159600621Y-152506182D02*
X157100621Y-155006182D01*
%TO.N,/PC1*%
X96560621Y-147506182D02*
X84780621Y-135726182D01*
%TO.N,/D12*%
X161600621Y-136506182D02*
X197850621Y-136506182D01*
%TO.N,/D11*%
X147100621Y-79506182D02*
X128100621Y-79506182D01*
%TO.N,VCC_33*%
X143770621Y-143256182D02*
X143850621Y-143176182D01*
%TO.N,/D11*%
X128100621Y-79506182D02*
X121100621Y-86506182D01*
%TO.N,VCC_EXT*%
X112400621Y-58006182D02*
X149030622Y-58006182D01*
%TO.N,/D4*%
X120700621Y-128106182D02*
X130180621Y-128106182D01*
%TO.N,VCC_EXT*%
X72780621Y-97626182D02*
X74100621Y-96306182D01*
X72420621Y-97576182D02*
X71490621Y-97576182D01*
%TO.N,/D14_SDA*%
X125100621Y-89006182D02*
X126600621Y-87506182D01*
X149450621Y-142656182D02*
X148850621Y-143256182D01*
X127720621Y-97626182D02*
X125100621Y-95006182D01*
%TO.N,/D7*%
X130180621Y-120486182D02*
X120580621Y-120486182D01*
%TO.N,/D14_SDA*%
X155600621Y-147656182D02*
X155600621Y-151006182D01*
X139100621Y-90506182D02*
X139100621Y-121006182D01*
X150600621Y-142656182D02*
X149450621Y-142656182D01*
X148850621Y-138256182D02*
X148850621Y-143256182D01*
X145600621Y-135006182D02*
X148850621Y-138256182D01*
%TO.N,VCC_EXT*%
X149030622Y-58006182D02*
X154070622Y-63046182D01*
%TO.N,/D14_SDA*%
X139100621Y-121006182D02*
X145600621Y-127506182D01*
X130180621Y-97626182D02*
X127720621Y-97626182D01*
%TO.N,VCC_EXT*%
X71760621Y-97626182D02*
X72780621Y-97626182D01*
%TO.N,/D14_SDA*%
X150600621Y-142656182D02*
X155600621Y-147656182D01*
%TO.N,/D7*%
X172498123Y-70256182D02*
X179630622Y-63123683D01*
%TO.N,/D4*%
X106850621Y-72756182D02*
X106850621Y-114256182D01*
X159310622Y-63123683D02*
X156178123Y-66256182D01*
%TO.N,VCC_EXT*%
X74100621Y-96306182D02*
X112400621Y-58006182D01*
%TO.N,/D4*%
X156178123Y-66256182D02*
X113350621Y-66256182D01*
X106850621Y-114256182D02*
X120700621Y-128106182D01*
%TO.N,/D7*%
X116850621Y-70256182D02*
X172498123Y-70256182D01*
%TO.N,/D4*%
X113350621Y-66256182D02*
X106850621Y-72756182D01*
%TO.N,/D7*%
X120580621Y-120486182D02*
X111600621Y-111506182D01*
%TO.N,/D10*%
X162350621Y-122756182D02*
X166850621Y-127256182D01*
%TO.N,/D7*%
X111600621Y-75506182D02*
X116850621Y-70256182D01*
%TO.N,/D14_SDA*%
X125100621Y-95006182D02*
X125100621Y-89006182D01*
%TO.N,/D4*%
X159310622Y-62976183D02*
X159310622Y-63123683D01*
%TO.N,/D10*%
X126850621Y-78256182D02*
X148850621Y-78256182D01*
X119100621Y-101786182D02*
X130180621Y-112866182D01*
%TO.N,/D14_SDA*%
X136100621Y-87506182D02*
X139100621Y-90506182D01*
%TO.N,/D7*%
X111600621Y-111506182D02*
X111600621Y-75506182D01*
%TO.N,/D14_SDA*%
X126600621Y-87506182D02*
X136100621Y-87506182D01*
X145600621Y-127506182D02*
X145600621Y-135006182D01*
%TO.N,Net-(DS1-A)*%
X185850622Y-55096183D02*
X185850622Y-58006183D01*
%TO.N,/D6*%
X177090622Y-63193683D02*
X177090622Y-63123683D01*
X120620621Y-123026182D02*
X130180621Y-123026182D01*
X110100621Y-74506182D02*
X110100621Y-112506182D01*
X171458123Y-68756182D02*
X115850621Y-68756182D01*
%TO.N,/D9*%
X130180621Y-115406182D02*
X120400621Y-115406182D01*
X129910621Y-115446182D02*
X129910621Y-115316182D01*
X114350621Y-109356182D02*
X114350621Y-76756182D01*
%TO.N,/D8*%
X173788123Y-71506182D02*
X117600621Y-71506182D01*
%TO.N,/D5*%
X108100621Y-113006182D02*
X120660621Y-125566182D01*
%TO.N,/D8*%
X120540621Y-117946182D02*
X130180621Y-117946182D01*
%TO.N,Net-(DS1-V0)*%
X167600621Y-53506182D02*
X155810621Y-53506182D01*
%TO.N,/D5*%
X159820623Y-67506182D02*
X114600621Y-67506182D01*
%TO.N,Net-(DS1-V0)*%
X156610622Y-62746181D02*
X161100621Y-58256182D01*
X156610622Y-63096183D02*
X156610622Y-62746181D01*
%TO.N,Net-(DS1-A)*%
X187250622Y-59406183D02*
X187250622Y-63123683D01*
%TO.N,/D9*%
X174828123Y-73006182D02*
X184710622Y-63123683D01*
X120400621Y-115406182D02*
X114350621Y-109356182D01*
%TO.N,Net-(DS1-V0)*%
X161100621Y-58256182D02*
X165100621Y-58256182D01*
X168100621Y-54006182D02*
X167600621Y-53506182D01*
X165100621Y-58256182D02*
X168100621Y-55256182D01*
%TO.N,/D5*%
X108100621Y-74006182D02*
X108100621Y-113006182D01*
X164390622Y-63123683D02*
X164390622Y-62643683D01*
%TO.N,Net-(DS1-A)*%
X185850622Y-58006183D02*
X187250622Y-59406183D01*
%TO.N,Net-(DS1-V0)*%
X155810621Y-53506182D02*
X154310621Y-55006182D01*
X168100621Y-55256182D02*
X168100621Y-54006182D01*
%TO.N,/D5*%
X114600621Y-67506182D02*
X108100621Y-74006182D01*
%TO.N,VCC_33*%
X71760621Y-110326182D02*
X71680621Y-110326182D01*
%TO.N,/D9*%
X118100621Y-73006182D02*
X174828123Y-73006182D01*
%TO.N,/D6*%
X115850621Y-68756182D02*
X110100621Y-74506182D01*
X177090622Y-63123683D02*
X171458123Y-68756182D01*
X110100621Y-112506182D02*
X120620621Y-123026182D01*
%TO.N,/D9*%
X129800621Y-115406182D02*
X130180621Y-115406182D01*
X114350621Y-76756182D02*
X118100621Y-73006182D01*
X184710622Y-63123683D02*
X184495622Y-63123683D01*
%TO.N,/D8*%
X182170622Y-63123683D02*
X173788123Y-71506182D01*
X117600621Y-71506182D02*
X112850621Y-76256182D01*
X112850621Y-76256182D02*
X112850621Y-110256182D01*
X112850621Y-110256182D02*
X120540621Y-117946182D01*
%TO.N,/D5*%
X120660621Y-125566182D02*
X130180621Y-125566182D01*
X164230622Y-63096183D02*
X159820623Y-67506182D01*
%TD*%
%TA.AperFunction,Conductor*%
%TO.N,GND*%
G36*
X67874455Y-91696228D02*
G01*
X67930388Y-91738100D01*
X67954805Y-91803564D01*
X67955121Y-91812410D01*
X67955121Y-93359052D01*
X67955122Y-93359058D01*
X67961529Y-93418665D01*
X68011823Y-93553510D01*
X68011827Y-93553517D01*
X68098073Y-93668726D01*
X68098076Y-93668729D01*
X68213285Y-93754975D01*
X68213292Y-93754979D01*
X68348138Y-93805273D01*
X68348137Y-93805273D01*
X68355065Y-93806017D01*
X68407748Y-93811682D01*
X68440189Y-93811681D01*
X68507226Y-93831364D01*
X68552982Y-93884166D01*
X68562927Y-93953325D01*
X68533904Y-94016881D01*
X68513076Y-94035998D01*
X68396203Y-94120912D01*
X68255354Y-94261761D01*
X68255354Y-94261762D01*
X68255352Y-94261764D01*
X68205068Y-94330972D01*
X68138268Y-94422915D01*
X68047834Y-94600401D01*
X67986282Y-94789838D01*
X67986282Y-94789841D01*
X67955121Y-94986585D01*
X67955121Y-95185778D01*
X67986282Y-95382522D01*
X67986282Y-95382525D01*
X68047834Y-95571962D01*
X68047836Y-95571965D01*
X68138268Y-95749448D01*
X68255352Y-95910600D01*
X68396203Y-96051451D01*
X68557355Y-96168535D01*
X68627074Y-96204059D01*
X68708793Y-96245697D01*
X68759589Y-96293672D01*
X68776384Y-96361493D01*
X68753846Y-96427628D01*
X68708793Y-96466667D01*
X68557354Y-96543829D01*
X68465411Y-96610629D01*
X68396203Y-96660913D01*
X68396201Y-96660915D01*
X68396200Y-96660915D01*
X68255354Y-96801761D01*
X68255354Y-96801762D01*
X68255352Y-96801764D01*
X68228035Y-96839363D01*
X68138268Y-96962915D01*
X68047834Y-97140401D01*
X67986282Y-97329838D01*
X67986282Y-97329841D01*
X67955121Y-97526585D01*
X67955121Y-97725778D01*
X67986282Y-97922522D01*
X67986282Y-97922525D01*
X68047834Y-98111962D01*
X68097346Y-98209134D01*
X68138268Y-98289448D01*
X68255352Y-98450600D01*
X68396203Y-98591451D01*
X68557355Y-98708535D01*
X68627074Y-98744059D01*
X68708793Y-98785697D01*
X68759589Y-98833672D01*
X68776384Y-98901493D01*
X68753846Y-98967628D01*
X68708793Y-99006667D01*
X68557354Y-99083829D01*
X68518907Y-99111763D01*
X68396203Y-99200913D01*
X68396201Y-99200915D01*
X68396200Y-99200915D01*
X68255354Y-99341761D01*
X68255354Y-99341762D01*
X68255352Y-99341764D01*
X68205068Y-99410972D01*
X68138268Y-99502915D01*
X68047834Y-99680401D01*
X67986282Y-99869838D01*
X67986282Y-99869841D01*
X67955121Y-100066585D01*
X67955121Y-100265778D01*
X67986282Y-100462522D01*
X67986282Y-100462525D01*
X68047834Y-100651962D01*
X68061106Y-100678009D01*
X68138268Y-100829448D01*
X68255352Y-100990600D01*
X68396203Y-101131451D01*
X68557355Y-101248535D01*
X68627074Y-101284059D01*
X68708793Y-101325697D01*
X68759589Y-101373672D01*
X68776384Y-101441493D01*
X68753846Y-101507628D01*
X68708793Y-101546667D01*
X68557354Y-101623829D01*
X68518907Y-101651763D01*
X68396203Y-101740913D01*
X68396201Y-101740915D01*
X68396200Y-101740915D01*
X68255354Y-101881761D01*
X68255354Y-101881762D01*
X68255352Y-101881764D01*
X68205068Y-101950972D01*
X68138268Y-102042915D01*
X68047834Y-102220401D01*
X67986282Y-102409838D01*
X67986282Y-102409841D01*
X67955121Y-102606585D01*
X67955121Y-102805778D01*
X67986282Y-103002522D01*
X67986282Y-103002525D01*
X68047834Y-103191962D01*
X68061106Y-103218009D01*
X68138268Y-103369448D01*
X68255352Y-103530600D01*
X68396203Y-103671451D01*
X68557355Y-103788535D01*
X68627074Y-103824059D01*
X68708793Y-103865697D01*
X68759589Y-103913672D01*
X68776384Y-103981493D01*
X68753846Y-104047628D01*
X68708793Y-104086667D01*
X68557354Y-104163829D01*
X68503907Y-104202661D01*
X68396203Y-104280913D01*
X68396201Y-104280915D01*
X68396200Y-104280915D01*
X68255354Y-104421761D01*
X68255354Y-104421762D01*
X68255352Y-104421764D01*
X68231628Y-104454417D01*
X68138268Y-104582915D01*
X68047834Y-104760401D01*
X67986282Y-104949838D01*
X67986282Y-104949841D01*
X67955121Y-105146585D01*
X67955121Y-105345778D01*
X67986282Y-105542522D01*
X67986282Y-105542525D01*
X68047834Y-105731962D01*
X68047836Y-105731965D01*
X68138268Y-105909448D01*
X68255352Y-106070600D01*
X68396203Y-106211451D01*
X68557355Y-106328535D01*
X68627074Y-106364059D01*
X68708793Y-106405697D01*
X68759589Y-106453672D01*
X68776384Y-106521493D01*
X68753846Y-106587628D01*
X68708793Y-106626667D01*
X68557354Y-106703829D01*
X68465411Y-106770629D01*
X68396203Y-106820913D01*
X68396201Y-106820915D01*
X68396200Y-106820915D01*
X68255354Y-106961761D01*
X68255354Y-106961762D01*
X68255352Y-106961764D01*
X68205068Y-107030972D01*
X68138268Y-107122915D01*
X68047834Y-107300401D01*
X67986282Y-107489838D01*
X67986282Y-107489841D01*
X67955121Y-107686585D01*
X67955121Y-107885778D01*
X67986282Y-108082522D01*
X67986282Y-108082525D01*
X68047834Y-108271962D01*
X68047836Y-108271965D01*
X68138268Y-108449448D01*
X68255352Y-108610600D01*
X68396203Y-108751451D01*
X68557355Y-108868535D01*
X68627074Y-108904059D01*
X68708793Y-108945697D01*
X68759589Y-108993672D01*
X68776384Y-109061493D01*
X68753846Y-109127628D01*
X68708793Y-109166667D01*
X68557354Y-109243829D01*
X68465411Y-109310629D01*
X68396203Y-109360913D01*
X68396201Y-109360915D01*
X68396200Y-109360915D01*
X68255354Y-109501761D01*
X68255354Y-109501762D01*
X68255352Y-109501764D01*
X68215949Y-109555997D01*
X68138268Y-109662915D01*
X68047834Y-109840401D01*
X67986282Y-110029838D01*
X67986282Y-110029841D01*
X67955121Y-110226585D01*
X67955121Y-110425778D01*
X67986282Y-110622522D01*
X67986282Y-110622525D01*
X68047834Y-110811962D01*
X68061106Y-110838009D01*
X68138268Y-110989448D01*
X68255352Y-111150600D01*
X68396203Y-111291451D01*
X68557355Y-111408535D01*
X68627074Y-111444059D01*
X68708793Y-111485697D01*
X68759589Y-111533672D01*
X68776384Y-111601493D01*
X68753846Y-111667628D01*
X68708793Y-111706667D01*
X68557354Y-111783829D01*
X68465411Y-111850629D01*
X68396203Y-111900913D01*
X68396201Y-111900915D01*
X68396200Y-111900915D01*
X68255354Y-112041761D01*
X68255354Y-112041762D01*
X68255352Y-112041764D01*
X68205068Y-112110972D01*
X68138268Y-112202915D01*
X68047834Y-112380401D01*
X67986282Y-112569838D01*
X67986282Y-112569841D01*
X67969414Y-112676342D01*
X67955121Y-112766585D01*
X67955121Y-112965779D01*
X67970701Y-113064150D01*
X67986282Y-113162522D01*
X67986282Y-113162525D01*
X68047834Y-113351962D01*
X68047836Y-113351965D01*
X68138268Y-113529448D01*
X68255352Y-113690600D01*
X68396203Y-113831451D01*
X68557355Y-113948535D01*
X68622314Y-113981633D01*
X68709343Y-114025977D01*
X68760139Y-114073952D01*
X68776934Y-114141773D01*
X68754397Y-114207908D01*
X68709344Y-114246946D01*
X68557614Y-114324257D01*
X68519756Y-114351762D01*
X68519756Y-114351763D01*
X69083046Y-114915053D01*
X69023768Y-114930937D01*
X68907474Y-114998080D01*
X68812519Y-115093035D01*
X68745376Y-115209329D01*
X68729492Y-115268607D01*
X68166202Y-114705317D01*
X68166201Y-114705317D01*
X68138698Y-114743172D01*
X68048300Y-114920587D01*
X67986768Y-115109959D01*
X67955621Y-115306618D01*
X67955621Y-115505745D01*
X67986768Y-115702404D01*
X68048300Y-115891776D01*
X68138698Y-116069190D01*
X68166201Y-116107045D01*
X68166202Y-116107046D01*
X68729492Y-115543756D01*
X68745376Y-115603035D01*
X68812519Y-115719329D01*
X68907474Y-115814284D01*
X69023768Y-115881427D01*
X69083046Y-115897310D01*
X68519755Y-116460599D01*
X68557615Y-116488106D01*
X68709343Y-116565416D01*
X68760139Y-116613391D01*
X68776934Y-116681212D01*
X68754397Y-116747347D01*
X68709344Y-116786385D01*
X68557356Y-116863827D01*
X68503907Y-116902661D01*
X68396203Y-116980913D01*
X68396201Y-116980915D01*
X68396200Y-116980915D01*
X68255354Y-117121761D01*
X68255354Y-117121762D01*
X68255352Y-117121764D01*
X68231628Y-117154417D01*
X68138268Y-117282915D01*
X68047834Y-117460401D01*
X67986282Y-117649838D01*
X67986282Y-117649841D01*
X67955121Y-117846585D01*
X67955121Y-118045778D01*
X67986282Y-118242522D01*
X67986282Y-118242525D01*
X68047834Y-118431962D01*
X68138135Y-118609187D01*
X68138268Y-118609448D01*
X68255352Y-118770600D01*
X68396203Y-118911451D01*
X68557355Y-119028535D01*
X68627074Y-119064059D01*
X68708793Y-119105697D01*
X68759589Y-119153672D01*
X68776384Y-119221493D01*
X68753846Y-119287628D01*
X68708793Y-119326667D01*
X68557354Y-119403829D01*
X68465411Y-119470629D01*
X68396203Y-119520913D01*
X68396201Y-119520915D01*
X68396200Y-119520915D01*
X68255354Y-119661761D01*
X68255354Y-119661762D01*
X68255352Y-119661764D01*
X68228035Y-119699363D01*
X68138268Y-119822915D01*
X68047834Y-120000401D01*
X67986282Y-120189838D01*
X67986282Y-120189841D01*
X67955121Y-120386585D01*
X67955121Y-120585778D01*
X67986282Y-120782522D01*
X67986282Y-120782525D01*
X68047834Y-120971962D01*
X68047836Y-120971965D01*
X68138268Y-121149448D01*
X68255352Y-121310600D01*
X68396203Y-121451451D01*
X68557355Y-121568535D01*
X68627074Y-121604059D01*
X68708793Y-121645697D01*
X68759589Y-121693672D01*
X68776384Y-121761493D01*
X68753846Y-121827628D01*
X68708793Y-121866667D01*
X68557354Y-121943829D01*
X68465411Y-122010629D01*
X68396203Y-122060913D01*
X68396201Y-122060915D01*
X68396200Y-122060915D01*
X68255354Y-122201761D01*
X68255354Y-122201762D01*
X68255352Y-122201764D01*
X68228035Y-122239363D01*
X68138268Y-122362915D01*
X68047834Y-122540401D01*
X67986282Y-122729838D01*
X67986282Y-122729841D01*
X67955121Y-122926585D01*
X67955121Y-123125773D01*
X67955120Y-123125776D01*
X67986282Y-123322522D01*
X67986282Y-123322525D01*
X68047834Y-123511962D01*
X68097347Y-123609136D01*
X68138268Y-123689448D01*
X68255352Y-123850600D01*
X68396203Y-123991451D01*
X68557355Y-124108535D01*
X68627074Y-124144059D01*
X68708793Y-124185697D01*
X68759589Y-124233672D01*
X68776384Y-124301493D01*
X68753846Y-124367628D01*
X68708793Y-124406667D01*
X68557354Y-124483829D01*
X68465411Y-124550629D01*
X68396203Y-124600913D01*
X68396201Y-124600915D01*
X68396200Y-124600915D01*
X68255354Y-124741761D01*
X68255354Y-124741762D01*
X68255352Y-124741764D01*
X68228035Y-124779363D01*
X68138268Y-124902915D01*
X68047834Y-125080401D01*
X67986282Y-125269838D01*
X67986282Y-125269841D01*
X67955121Y-125466585D01*
X67955121Y-125665778D01*
X67986282Y-125862522D01*
X67986282Y-125862525D01*
X68047834Y-126051962D01*
X68097346Y-126149134D01*
X68138268Y-126229448D01*
X68255352Y-126390600D01*
X68396203Y-126531451D01*
X68557355Y-126648535D01*
X68619472Y-126680185D01*
X68708793Y-126725697D01*
X68759589Y-126773672D01*
X68776384Y-126841493D01*
X68753846Y-126907628D01*
X68708793Y-126946667D01*
X68557354Y-127023829D01*
X68465411Y-127090629D01*
X68396203Y-127140913D01*
X68396201Y-127140915D01*
X68396200Y-127140915D01*
X68255354Y-127281761D01*
X68255354Y-127281762D01*
X68255352Y-127281764D01*
X68228035Y-127319363D01*
X68138268Y-127442915D01*
X68047834Y-127620401D01*
X67986282Y-127809838D01*
X67986282Y-127809841D01*
X67955121Y-128006585D01*
X67955121Y-128205778D01*
X67986282Y-128402522D01*
X67986282Y-128402525D01*
X68047834Y-128591962D01*
X68114433Y-128722670D01*
X68138268Y-128769448D01*
X68255352Y-128930600D01*
X68396203Y-129071451D01*
X68557355Y-129188535D01*
X68627074Y-129224059D01*
X68708793Y-129265697D01*
X68759589Y-129313672D01*
X68776384Y-129381493D01*
X68753846Y-129447628D01*
X68708793Y-129486667D01*
X68557354Y-129563829D01*
X68465411Y-129630629D01*
X68396203Y-129680913D01*
X68396201Y-129680915D01*
X68396200Y-129680915D01*
X68255354Y-129821761D01*
X68255354Y-129821762D01*
X68255352Y-129821764D01*
X68205068Y-129890972D01*
X68138268Y-129982915D01*
X68047834Y-130160401D01*
X67986282Y-130349838D01*
X67986282Y-130349841D01*
X67955121Y-130546585D01*
X67955121Y-130745778D01*
X67986282Y-130942522D01*
X67986282Y-130942525D01*
X68047834Y-131131962D01*
X68047836Y-131131965D01*
X68138268Y-131309448D01*
X68255352Y-131470600D01*
X68396203Y-131611451D01*
X68557355Y-131728535D01*
X68627074Y-131764059D01*
X68708793Y-131805697D01*
X68759589Y-131853672D01*
X68776384Y-131921493D01*
X68753846Y-131987628D01*
X68708793Y-132026667D01*
X68557354Y-132103829D01*
X68465852Y-132170310D01*
X68396203Y-132220913D01*
X68396201Y-132220915D01*
X68396200Y-132220915D01*
X68255354Y-132361761D01*
X68255354Y-132361762D01*
X68255352Y-132361764D01*
X68205068Y-132430972D01*
X68138268Y-132522915D01*
X68047834Y-132700401D01*
X67986282Y-132889838D01*
X67986282Y-132889841D01*
X67962642Y-133039100D01*
X67955121Y-133086585D01*
X67955121Y-133285779D01*
X67967142Y-133361677D01*
X67986282Y-133482522D01*
X67986282Y-133482525D01*
X68047834Y-133671962D01*
X68047836Y-133671965D01*
X68138268Y-133849448D01*
X68255352Y-134010600D01*
X68396203Y-134151451D01*
X68557355Y-134268535D01*
X68627074Y-134304059D01*
X68708793Y-134345697D01*
X68759589Y-134393672D01*
X68776384Y-134461493D01*
X68753846Y-134527628D01*
X68708793Y-134566667D01*
X68557354Y-134643829D01*
X68486492Y-134695314D01*
X68396203Y-134760913D01*
X68396201Y-134760915D01*
X68396200Y-134760915D01*
X68255354Y-134901761D01*
X68255354Y-134901762D01*
X68255352Y-134901764D01*
X68215949Y-134955997D01*
X68138268Y-135062915D01*
X68047834Y-135240401D01*
X67986282Y-135429838D01*
X67986282Y-135429841D01*
X67955121Y-135626585D01*
X67955121Y-135825778D01*
X67986282Y-136022522D01*
X67986282Y-136022525D01*
X68047834Y-136211962D01*
X68047836Y-136211965D01*
X68138268Y-136389448D01*
X68255352Y-136550600D01*
X68396203Y-136691451D01*
X68557355Y-136808535D01*
X68627074Y-136844059D01*
X68708793Y-136885697D01*
X68759589Y-136933672D01*
X68776384Y-137001493D01*
X68753846Y-137067628D01*
X68708793Y-137106667D01*
X68557354Y-137183829D01*
X68483201Y-137237705D01*
X68396203Y-137300913D01*
X68396201Y-137300915D01*
X68396200Y-137300915D01*
X68255354Y-137441761D01*
X68255354Y-137441762D01*
X68255352Y-137441764D01*
X68226786Y-137481082D01*
X68138268Y-137602915D01*
X68047834Y-137780401D01*
X67986282Y-137969838D01*
X67986282Y-137969841D01*
X67955121Y-138166585D01*
X67955121Y-138365778D01*
X67986282Y-138562522D01*
X67986282Y-138562525D01*
X68047834Y-138751962D01*
X68047836Y-138751965D01*
X68138268Y-138929448D01*
X68255352Y-139090600D01*
X68396203Y-139231451D01*
X68557355Y-139348535D01*
X68720376Y-139431598D01*
X68734840Y-139438968D01*
X68924278Y-139500520D01*
X68924279Y-139500520D01*
X68924282Y-139500521D01*
X69121024Y-139531682D01*
X69121025Y-139531682D01*
X69320217Y-139531682D01*
X69320218Y-139531682D01*
X69516960Y-139500521D01*
X69516963Y-139500520D01*
X69516964Y-139500520D01*
X69706401Y-139438968D01*
X69706401Y-139438967D01*
X69706404Y-139438967D01*
X69883887Y-139348535D01*
X70045039Y-139231451D01*
X70185890Y-139090600D01*
X70302974Y-138929448D01*
X70380136Y-138778009D01*
X70428111Y-138727213D01*
X70495932Y-138710418D01*
X70562067Y-138732955D01*
X70601106Y-138778009D01*
X70678268Y-138929448D01*
X70795352Y-139090600D01*
X70936203Y-139231451D01*
X71097355Y-139348535D01*
X71260376Y-139431598D01*
X71274840Y-139438968D01*
X71464278Y-139500520D01*
X71464279Y-139500520D01*
X71464282Y-139500521D01*
X71661024Y-139531682D01*
X71661025Y-139531682D01*
X71860217Y-139531682D01*
X71860218Y-139531682D01*
X72056960Y-139500521D01*
X72056963Y-139500520D01*
X72056964Y-139500520D01*
X72246401Y-139438968D01*
X72246401Y-139438967D01*
X72246404Y-139438967D01*
X72423887Y-139348535D01*
X72585039Y-139231451D01*
X72725890Y-139090600D01*
X72742459Y-139067795D01*
X72797790Y-139025130D01*
X72842776Y-139016682D01*
X83403952Y-139016682D01*
X83470991Y-139036367D01*
X83491633Y-139053001D01*
X90213181Y-145774548D01*
X90246666Y-145835871D01*
X90249500Y-145862229D01*
X90249500Y-154073918D01*
X90249500Y-154073920D01*
X90249499Y-154073920D01*
X90278340Y-154218907D01*
X90278343Y-154218917D01*
X90334914Y-154355492D01*
X90367812Y-154404727D01*
X90367813Y-154404730D01*
X90417046Y-154478414D01*
X90417052Y-154478421D01*
X91521585Y-155582952D01*
X91521590Y-155582956D01*
X91560315Y-155608831D01*
X91560334Y-155608842D01*
X91562373Y-155610205D01*
X91644505Y-155665084D01*
X91659430Y-155671266D01*
X91668413Y-155674987D01*
X91668415Y-155674988D01*
X91701771Y-155688804D01*
X91781088Y-155721659D01*
X91897241Y-155744763D01*
X91916468Y-155748587D01*
X91926081Y-155750500D01*
X91926082Y-155750500D01*
X96904541Y-155750500D01*
X97002083Y-155731096D01*
X97049534Y-155721658D01*
X97186116Y-155665084D01*
X97235350Y-155632186D01*
X97309037Y-155582952D01*
X98521814Y-154370172D01*
X98583135Y-154336689D01*
X98628886Y-154335382D01*
X98724334Y-154350500D01*
X98724336Y-154350500D01*
X98936907Y-154350500D01*
X98936908Y-154350500D01*
X99146864Y-154317246D01*
X99349033Y-154251557D01*
X99538437Y-154155051D01*
X99598537Y-154111386D01*
X99710407Y-154030109D01*
X99710409Y-154030106D01*
X99710413Y-154030104D01*
X99860725Y-153879792D01*
X99860727Y-153879788D01*
X99860730Y-153879786D01*
X99928136Y-153787007D01*
X99985672Y-153707816D01*
X99990414Y-153698508D01*
X100038384Y-153647711D01*
X100106204Y-153630911D01*
X100172340Y-153653445D01*
X100211384Y-153698500D01*
X100215998Y-153707555D01*
X100340893Y-153879459D01*
X100340897Y-153879464D01*
X100491156Y-154029723D01*
X100491161Y-154029727D01*
X100663063Y-154154620D01*
X100852403Y-154251095D01*
X101054492Y-154316757D01*
X101120621Y-154327231D01*
X101120621Y-153433012D01*
X101177628Y-153465925D01*
X101304795Y-153500000D01*
X101436447Y-153500000D01*
X101563614Y-153465925D01*
X101620621Y-153433012D01*
X101620621Y-154327230D01*
X101686747Y-154316757D01*
X101686750Y-154316757D01*
X101888838Y-154251095D01*
X102078178Y-154154620D01*
X102250080Y-154029727D01*
X102250085Y-154029723D01*
X102400344Y-153879464D01*
X102400348Y-153879459D01*
X102525241Y-153707558D01*
X102530135Y-153697954D01*
X102578109Y-153647157D01*
X102645929Y-153630361D01*
X102712065Y-153652897D01*
X102751107Y-153697954D01*
X102756000Y-153707558D01*
X102880893Y-153879459D01*
X102880897Y-153879464D01*
X103031156Y-154029723D01*
X103031161Y-154029727D01*
X103203063Y-154154620D01*
X103392403Y-154251095D01*
X103594492Y-154316757D01*
X103660621Y-154327231D01*
X103660621Y-153433012D01*
X103717628Y-153465925D01*
X103844795Y-153500000D01*
X103976447Y-153500000D01*
X104103614Y-153465925D01*
X104160621Y-153433012D01*
X104160621Y-154327230D01*
X104226747Y-154316757D01*
X104226750Y-154316757D01*
X104428838Y-154251095D01*
X104618178Y-154154620D01*
X104790080Y-154029727D01*
X104790085Y-154029723D01*
X104940344Y-153879464D01*
X104940348Y-153879459D01*
X105065241Y-153707558D01*
X105069853Y-153698507D01*
X105117826Y-153647709D01*
X105185646Y-153630912D01*
X105251782Y-153653447D01*
X105290825Y-153698504D01*
X105295570Y-153707817D01*
X105420511Y-153879786D01*
X105420517Y-153879792D01*
X105570829Y-154030104D01*
X105649005Y-154086902D01*
X105691672Y-154142231D01*
X105700121Y-154187220D01*
X105700121Y-156187149D01*
X105680436Y-156254188D01*
X105663802Y-156274830D01*
X104725451Y-157213181D01*
X104664128Y-157246666D01*
X104637770Y-157249500D01*
X89862229Y-157249500D01*
X89795190Y-157229815D01*
X89774548Y-157213181D01*
X87286819Y-154725451D01*
X87253334Y-154664128D01*
X87250500Y-154637770D01*
X87250500Y-151926079D01*
X87221659Y-151781092D01*
X87221658Y-151781091D01*
X87221658Y-151781087D01*
X87208137Y-151748444D01*
X87165087Y-151644511D01*
X87165080Y-151644498D01*
X87082952Y-151521585D01*
X87066768Y-151505401D01*
X86978416Y-151417049D01*
X84386818Y-148825450D01*
X84353333Y-148764127D01*
X84350499Y-148737769D01*
X84350499Y-147602129D01*
X84350498Y-147602123D01*
X84350497Y-147602116D01*
X84344091Y-147542517D01*
X84293796Y-147407669D01*
X84293795Y-147407668D01*
X84293793Y-147407664D01*
X84207547Y-147292455D01*
X84207544Y-147292452D01*
X84092335Y-147206206D01*
X84092328Y-147206202D01*
X83957482Y-147155908D01*
X83957483Y-147155908D01*
X83897883Y-147149501D01*
X83897881Y-147149500D01*
X83897873Y-147149500D01*
X83897864Y-147149500D01*
X82102129Y-147149500D01*
X82102123Y-147149501D01*
X82042516Y-147155908D01*
X81907671Y-147206202D01*
X81907664Y-147206206D01*
X81792455Y-147292452D01*
X81792452Y-147292455D01*
X81706206Y-147407664D01*
X81706202Y-147407671D01*
X81655908Y-147542517D01*
X81649501Y-147602116D01*
X81649501Y-147602123D01*
X81649500Y-147602135D01*
X81649500Y-147625500D01*
X81646949Y-147634185D01*
X81648238Y-147643147D01*
X81637259Y-147667187D01*
X81629815Y-147692539D01*
X81622974Y-147698466D01*
X81619213Y-147706703D01*
X81596978Y-147720992D01*
X81577011Y-147738294D01*
X81566496Y-147740581D01*
X81560435Y-147744477D01*
X81525500Y-147749500D01*
X81456669Y-147749500D01*
X81389630Y-147729815D01*
X81368988Y-147713181D01*
X77072860Y-143417052D01*
X77072859Y-143417051D01*
X77057340Y-143406682D01*
X76979577Y-143354723D01*
X76949934Y-143334916D01*
X76949932Y-143334915D01*
X76949929Y-143334913D01*
X76813356Y-143278343D01*
X76813346Y-143278340D01*
X76668359Y-143249500D01*
X76668357Y-143249500D01*
X67862229Y-143249500D01*
X67795190Y-143229815D01*
X67774548Y-143213181D01*
X65887440Y-141326072D01*
X65853955Y-141264749D01*
X65851121Y-141238391D01*
X65851121Y-93668411D01*
X65870806Y-93601372D01*
X65887440Y-93580730D01*
X66785909Y-92682261D01*
X67743442Y-91724727D01*
X67804763Y-91691244D01*
X67874455Y-91696228D01*
G37*
%TD.AperFunction*%
%TA.AperFunction,Conductor*%
G36*
X103444696Y-152807007D02*
G01*
X103410621Y-152934174D01*
X103410621Y-153065826D01*
X103444696Y-153192993D01*
X103477609Y-153250000D01*
X101803633Y-153250000D01*
X101836546Y-153192993D01*
X101870621Y-153065826D01*
X101870621Y-152934174D01*
X101836546Y-152807007D01*
X101803633Y-152750000D01*
X103477609Y-152750000D01*
X103444696Y-152807007D01*
G37*
%TD.AperFunction*%
%TA.AperFunction,Conductor*%
G36*
X148735431Y-58776367D02*
G01*
X148756073Y-58793001D01*
X150634751Y-60671679D01*
X151397574Y-61434501D01*
X151431059Y-61495824D01*
X151426075Y-61565516D01*
X151384203Y-61621449D01*
X151318739Y-61645866D01*
X151309893Y-61646182D01*
X150582777Y-61646182D01*
X150523249Y-61652583D01*
X150523242Y-61652585D01*
X150388535Y-61702827D01*
X150388528Y-61702831D01*
X150273434Y-61788991D01*
X150273431Y-61788994D01*
X150187271Y-61904088D01*
X150187267Y-61904095D01*
X150137025Y-62038802D01*
X150137023Y-62038809D01*
X150130622Y-62098337D01*
X150130622Y-62796182D01*
X150982140Y-62796182D01*
X150971511Y-62814591D01*
X150930622Y-62967191D01*
X150930622Y-63125173D01*
X150971511Y-63277773D01*
X150982140Y-63296182D01*
X150130622Y-63296182D01*
X150130622Y-63994026D01*
X150137023Y-64053554D01*
X150137025Y-64053561D01*
X150187267Y-64188268D01*
X150187271Y-64188275D01*
X150273431Y-64303369D01*
X150273434Y-64303372D01*
X150388528Y-64389532D01*
X150388535Y-64389536D01*
X150523242Y-64439778D01*
X150523249Y-64439780D01*
X150582777Y-64446181D01*
X150582794Y-64446182D01*
X151280622Y-64446182D01*
X151280622Y-63594664D01*
X151299031Y-63605293D01*
X151451631Y-63646182D01*
X151609613Y-63646182D01*
X151762213Y-63605293D01*
X151780622Y-63594664D01*
X151780622Y-64446182D01*
X152478450Y-64446182D01*
X152478466Y-64446181D01*
X152537994Y-64439780D01*
X152538001Y-64439778D01*
X152672708Y-64389536D01*
X152672715Y-64389532D01*
X152787809Y-64303372D01*
X152787812Y-64303369D01*
X152873972Y-64188275D01*
X152873976Y-64188268D01*
X152903835Y-64108213D01*
X152945706Y-64052279D01*
X153011170Y-64027862D01*
X153079443Y-64042713D01*
X153107698Y-64063865D01*
X153158258Y-64114425D01*
X153158263Y-64114429D01*
X153272254Y-64197247D01*
X153336600Y-64243997D01*
X153453123Y-64303369D01*
X153533015Y-64344077D01*
X153533018Y-64344078D01*
X153637843Y-64378137D01*
X153742671Y-64412197D01*
X153960400Y-64446682D01*
X153960401Y-64446682D01*
X154180843Y-64446682D01*
X154180844Y-64446682D01*
X154398573Y-64412197D01*
X154608228Y-64344077D01*
X154804644Y-64243997D01*
X154982987Y-64114424D01*
X155138864Y-63958547D01*
X155222308Y-63843696D01*
X155240304Y-63818927D01*
X155295633Y-63776261D01*
X155365247Y-63770282D01*
X155427042Y-63802887D01*
X155440940Y-63818927D01*
X155542374Y-63958540D01*
X155542378Y-63958545D01*
X155698258Y-64114425D01*
X155698263Y-64114429D01*
X155812254Y-64197247D01*
X155876600Y-64243997D01*
X155993123Y-64303369D01*
X156073015Y-64344077D01*
X156073018Y-64344078D01*
X156177843Y-64378137D01*
X156282671Y-64412197D01*
X156500400Y-64446682D01*
X156500401Y-64446682D01*
X156626892Y-64446682D01*
X156693931Y-64466367D01*
X156739686Y-64519171D01*
X156749630Y-64588329D01*
X156720605Y-64651885D01*
X156714573Y-64658363D01*
X155903574Y-65469363D01*
X155842251Y-65502848D01*
X155815893Y-65505682D01*
X113276701Y-65505682D01*
X113131713Y-65534522D01*
X113131703Y-65534525D01*
X112995132Y-65591094D01*
X112995119Y-65591101D01*
X112872205Y-65673230D01*
X112872201Y-65673233D01*
X106267669Y-72277764D01*
X106263155Y-72284522D01*
X106263150Y-72284529D01*
X106185537Y-72400684D01*
X106185535Y-72400688D01*
X106128964Y-72537264D01*
X106128961Y-72537274D01*
X106100121Y-72682261D01*
X106100121Y-72682264D01*
X106100121Y-114330100D01*
X106100121Y-114330102D01*
X106100120Y-114330102D01*
X106128961Y-114475089D01*
X106128964Y-114475099D01*
X106185533Y-114611670D01*
X106185535Y-114611674D01*
X106185537Y-114611677D01*
X106191950Y-114621275D01*
X106191951Y-114621278D01*
X106267667Y-114734596D01*
X106267673Y-114734603D01*
X120222205Y-128689134D01*
X120222207Y-128689136D01*
X120249351Y-128707272D01*
X120268004Y-128719735D01*
X120345126Y-128771266D01*
X120481708Y-128827840D01*
X120481712Y-128827840D01*
X120481713Y-128827841D01*
X120626700Y-128856682D01*
X120626703Y-128856682D01*
X120626704Y-128856682D01*
X120774539Y-128856682D01*
X129098466Y-128856682D01*
X129165505Y-128876367D01*
X129198783Y-128907795D01*
X129215352Y-128930600D01*
X129356203Y-129071451D01*
X129517355Y-129188535D01*
X129587074Y-129224059D01*
X129668793Y-129265697D01*
X129719589Y-129313672D01*
X129736384Y-129381493D01*
X129713846Y-129447628D01*
X129668793Y-129486667D01*
X129517354Y-129563829D01*
X129425411Y-129630629D01*
X129356203Y-129680913D01*
X129356201Y-129680915D01*
X129356200Y-129680915D01*
X129215354Y-129821761D01*
X129215354Y-129821762D01*
X129215352Y-129821764D01*
X129165068Y-129890972D01*
X129098268Y-129982915D01*
X129007834Y-130160401D01*
X128946282Y-130349838D01*
X128946282Y-130349841D01*
X128915121Y-130546585D01*
X128915121Y-130745778D01*
X128946282Y-130942522D01*
X128946282Y-130942525D01*
X129007834Y-131131962D01*
X129007836Y-131131965D01*
X129098268Y-131309448D01*
X129215352Y-131470600D01*
X129356203Y-131611451D01*
X129517355Y-131728535D01*
X129587074Y-131764059D01*
X129668793Y-131805697D01*
X129719589Y-131853672D01*
X129736384Y-131921493D01*
X129713846Y-131987628D01*
X129668793Y-132026667D01*
X129517354Y-132103829D01*
X129425852Y-132170310D01*
X129356203Y-132220913D01*
X129356201Y-132220915D01*
X129356200Y-132220915D01*
X129215354Y-132361761D01*
X129215354Y-132361762D01*
X129215352Y-132361764D01*
X129165068Y-132430972D01*
X129098268Y-132522915D01*
X129007834Y-132700401D01*
X128946282Y-132889838D01*
X128946282Y-132889841D01*
X128922642Y-133039100D01*
X128915121Y-133086585D01*
X128915121Y-133285779D01*
X128927142Y-133361677D01*
X128946282Y-133482522D01*
X128946282Y-133482525D01*
X129007834Y-133671962D01*
X129007836Y-133671965D01*
X129098268Y-133849448D01*
X129215352Y-134010600D01*
X129356203Y-134151451D01*
X129517355Y-134268535D01*
X129587074Y-134304059D01*
X129668793Y-134345697D01*
X129719589Y-134393672D01*
X129736384Y-134461493D01*
X129713846Y-134527628D01*
X129668793Y-134566667D01*
X129517354Y-134643829D01*
X129446492Y-134695314D01*
X129356203Y-134760913D01*
X129356201Y-134760915D01*
X129356200Y-134760915D01*
X129215354Y-134901761D01*
X129215354Y-134901762D01*
X129215352Y-134901764D01*
X129175949Y-134955997D01*
X129098268Y-135062915D01*
X129007834Y-135240401D01*
X128946282Y-135429838D01*
X128946282Y-135429841D01*
X128915121Y-135626585D01*
X128915121Y-135825778D01*
X128946282Y-136022522D01*
X128946282Y-136022525D01*
X129007834Y-136211962D01*
X129007836Y-136211965D01*
X129098268Y-136389448D01*
X129215352Y-136550600D01*
X129356203Y-136691451D01*
X129517355Y-136808535D01*
X129587074Y-136844059D01*
X129668793Y-136885697D01*
X129719589Y-136933672D01*
X129736384Y-137001493D01*
X129713846Y-137067628D01*
X129668793Y-137106667D01*
X129517354Y-137183829D01*
X129443201Y-137237705D01*
X129356203Y-137300913D01*
X129356201Y-137300915D01*
X129356200Y-137300915D01*
X129215354Y-137441761D01*
X129215354Y-137441762D01*
X129215352Y-137441764D01*
X129186786Y-137481082D01*
X129098268Y-137602915D01*
X129007834Y-137780401D01*
X128946282Y-137969838D01*
X128946282Y-137969841D01*
X128915121Y-138166585D01*
X128915121Y-138365778D01*
X128946282Y-138562522D01*
X128946282Y-138562525D01*
X129007834Y-138751962D01*
X129007836Y-138751965D01*
X129098268Y-138929448D01*
X129215352Y-139090600D01*
X129356203Y-139231451D01*
X129517355Y-139348535D01*
X129680376Y-139431598D01*
X129694840Y-139438968D01*
X129884278Y-139500520D01*
X129884279Y-139500520D01*
X129884282Y-139500521D01*
X130081024Y-139531682D01*
X130081025Y-139531682D01*
X130280217Y-139531682D01*
X130280218Y-139531682D01*
X130476960Y-139500521D01*
X130476963Y-139500520D01*
X130476964Y-139500520D01*
X130666401Y-139438968D01*
X130666401Y-139438967D01*
X130666404Y-139438967D01*
X130843887Y-139348535D01*
X131005039Y-139231451D01*
X131145890Y-139090600D01*
X131262974Y-138929448D01*
X131340136Y-138778009D01*
X131388111Y-138727213D01*
X131455932Y-138710418D01*
X131522067Y-138732955D01*
X131561106Y-138778009D01*
X131638268Y-138929448D01*
X131755352Y-139090600D01*
X131896203Y-139231451D01*
X132057355Y-139348535D01*
X132220376Y-139431598D01*
X132234840Y-139438968D01*
X132424278Y-139500520D01*
X132424279Y-139500520D01*
X132424282Y-139500521D01*
X132621024Y-139531682D01*
X132621025Y-139531682D01*
X132820217Y-139531682D01*
X132820218Y-139531682D01*
X133016960Y-139500521D01*
X133016963Y-139500520D01*
X133016964Y-139500520D01*
X133206401Y-139438968D01*
X133206401Y-139438967D01*
X133206404Y-139438967D01*
X133383887Y-139348535D01*
X133545039Y-139231451D01*
X133685890Y-139090600D01*
X133802974Y-138929448D01*
X133893406Y-138751965D01*
X133901448Y-138727213D01*
X133954959Y-138562525D01*
X133954959Y-138562524D01*
X133954960Y-138562521D01*
X133986121Y-138365779D01*
X133986121Y-138166585D01*
X133954960Y-137969843D01*
X133954959Y-137969839D01*
X133954959Y-137969838D01*
X133893407Y-137780401D01*
X133880135Y-137754354D01*
X133802974Y-137602916D01*
X133685890Y-137441764D01*
X133545039Y-137300913D01*
X133383887Y-137183829D01*
X133232448Y-137106667D01*
X133181652Y-137058692D01*
X133164857Y-136990871D01*
X133187394Y-136924736D01*
X133232448Y-136885697D01*
X133241737Y-136880963D01*
X133383887Y-136808535D01*
X133545039Y-136691451D01*
X133685890Y-136550600D01*
X133802974Y-136389448D01*
X133893406Y-136211965D01*
X133901448Y-136187213D01*
X133954959Y-136022525D01*
X133954959Y-136022524D01*
X133954960Y-136022521D01*
X133986121Y-135825779D01*
X133986121Y-135812411D01*
X133992359Y-135791165D01*
X133993939Y-135769077D01*
X134002011Y-135758293D01*
X134005806Y-135745372D01*
X134022539Y-135730872D01*
X134035811Y-135713144D01*
X134048431Y-135708436D01*
X134058610Y-135699617D01*
X134080527Y-135696465D01*
X134101275Y-135688727D01*
X134114435Y-135691589D01*
X134127768Y-135689673D01*
X134147911Y-135698872D01*
X134169548Y-135703579D01*
X134187273Y-135716847D01*
X134191324Y-135718698D01*
X134197802Y-135724730D01*
X134313802Y-135840730D01*
X134347287Y-135902053D01*
X134350121Y-135928411D01*
X134350121Y-143552148D01*
X134330436Y-143619187D01*
X134313802Y-143639829D01*
X129823806Y-148129824D01*
X129762483Y-148163309D01*
X129716726Y-148164616D01*
X129621291Y-148149500D01*
X129621287Y-148149500D01*
X129408713Y-148149500D01*
X129360042Y-148157208D01*
X129198760Y-148182753D01*
X128996585Y-148248444D01*
X128807179Y-148344951D01*
X128635215Y-148469889D01*
X128521285Y-148583819D01*
X128459962Y-148617303D01*
X128390270Y-148612319D01*
X128334337Y-148570447D01*
X128317422Y-148539470D01*
X128268354Y-148407913D01*
X128268350Y-148407906D01*
X128182190Y-148292812D01*
X128182187Y-148292809D01*
X128067093Y-148206649D01*
X128067086Y-148206645D01*
X127932379Y-148156403D01*
X127932372Y-148156401D01*
X127872844Y-148150000D01*
X127225000Y-148150000D01*
X127225000Y-149066988D01*
X127167993Y-149034075D01*
X127040826Y-149000000D01*
X126909174Y-149000000D01*
X126782007Y-149034075D01*
X126725000Y-149066988D01*
X126725000Y-148150000D01*
X126077155Y-148150000D01*
X126017627Y-148156401D01*
X126017620Y-148156403D01*
X125882913Y-148206645D01*
X125882906Y-148206649D01*
X125767812Y-148292809D01*
X125767809Y-148292812D01*
X125681649Y-148407906D01*
X125681645Y-148407913D01*
X125631403Y-148542620D01*
X125631401Y-148542627D01*
X125625000Y-148602155D01*
X125625000Y-149250000D01*
X126541988Y-149250000D01*
X126509075Y-149307007D01*
X126475000Y-149434174D01*
X126475000Y-149565826D01*
X126509075Y-149692993D01*
X126541988Y-149750000D01*
X125625000Y-149750000D01*
X125625000Y-150397844D01*
X125631401Y-150457372D01*
X125631403Y-150457379D01*
X125681645Y-150592086D01*
X125681649Y-150592093D01*
X125767809Y-150707187D01*
X125767812Y-150707190D01*
X125882906Y-150793350D01*
X125882913Y-150793354D01*
X126017620Y-150843596D01*
X126017627Y-150843598D01*
X126077155Y-150849999D01*
X126077172Y-150850000D01*
X126725000Y-150850000D01*
X126725000Y-149933012D01*
X126782007Y-149965925D01*
X126909174Y-150000000D01*
X127040826Y-150000000D01*
X127167993Y-149965925D01*
X127225000Y-149933012D01*
X127225000Y-150850000D01*
X127872828Y-150850000D01*
X127872844Y-150849999D01*
X127932372Y-150843598D01*
X127932379Y-150843596D01*
X128067086Y-150793354D01*
X128067093Y-150793350D01*
X128182187Y-150707190D01*
X128182190Y-150707187D01*
X128268350Y-150592093D01*
X128268354Y-150592086D01*
X128317422Y-150460529D01*
X128359293Y-150404595D01*
X128424757Y-150380178D01*
X128493030Y-150395030D01*
X128521285Y-150416181D01*
X128635213Y-150530109D01*
X128807179Y-150655048D01*
X128807181Y-150655049D01*
X128807184Y-150655051D01*
X128996588Y-150751557D01*
X129198757Y-150817246D01*
X129370714Y-150844481D01*
X129382088Y-150849873D01*
X129394648Y-150850772D01*
X129413063Y-150864557D01*
X129433847Y-150874410D01*
X129440501Y-150885097D01*
X129450582Y-150892643D01*
X129458620Y-150914194D01*
X129470779Y-150933721D01*
X129470599Y-150946311D01*
X129474999Y-150958108D01*
X129470109Y-150980584D01*
X129469781Y-151003584D01*
X129462468Y-151015711D01*
X129460147Y-151026381D01*
X129438998Y-151054633D01*
X129280449Y-151213182D01*
X129219128Y-151246666D01*
X129192770Y-151249500D01*
X116362229Y-151249500D01*
X116295190Y-151229815D01*
X116274548Y-151213181D01*
X114847687Y-149786319D01*
X113747900Y-148686532D01*
X111984603Y-146923234D01*
X111984602Y-146923233D01*
X111883222Y-146855494D01*
X111883222Y-146855493D01*
X111861677Y-146841098D01*
X111861672Y-146841095D01*
X111725099Y-146784525D01*
X111725089Y-146784522D01*
X111580102Y-146755682D01*
X111580100Y-146755682D01*
X100575120Y-146755682D01*
X100508081Y-146735997D01*
X100462326Y-146683193D01*
X100451120Y-146631682D01*
X100451120Y-146608311D01*
X100451119Y-146608305D01*
X100444712Y-146548698D01*
X100394418Y-146413853D01*
X100394414Y-146413846D01*
X100308168Y-146298637D01*
X100308165Y-146298634D01*
X100192956Y-146212388D01*
X100192949Y-146212384D01*
X100058103Y-146162090D01*
X100058104Y-146162090D01*
X99998504Y-146155683D01*
X99998502Y-146155682D01*
X99998494Y-146155682D01*
X99998486Y-146155682D01*
X99975121Y-146155682D01*
X99908082Y-146135997D01*
X99862327Y-146083193D01*
X99851121Y-146031682D01*
X99851121Y-126559482D01*
X99840419Y-126505684D01*
X99840419Y-126505682D01*
X99822280Y-126414490D01*
X99769819Y-126287840D01*
X99765705Y-126277907D01*
X99717446Y-126205682D01*
X99683573Y-126154986D01*
X91490446Y-117961859D01*
X83271822Y-109743234D01*
X83271815Y-109743228D01*
X83180217Y-109682025D01*
X83180216Y-109682025D01*
X83148901Y-109661101D01*
X83148889Y-109661094D01*
X83012318Y-109604525D01*
X83012308Y-109604522D01*
X82867321Y-109575682D01*
X82867319Y-109575682D01*
X72842776Y-109575682D01*
X72775737Y-109555997D01*
X72742459Y-109524569D01*
X72725890Y-109501764D01*
X72585041Y-109360915D01*
X72585039Y-109360913D01*
X72423887Y-109243829D01*
X72272448Y-109166667D01*
X72221652Y-109118692D01*
X72204857Y-109050871D01*
X72227394Y-108984736D01*
X72272448Y-108945697D01*
X72281737Y-108940963D01*
X72423887Y-108868535D01*
X72585039Y-108751451D01*
X72725890Y-108610600D01*
X72842974Y-108449448D01*
X72933406Y-108271965D01*
X72941448Y-108247213D01*
X72994959Y-108082525D01*
X72994959Y-108082524D01*
X72994960Y-108082521D01*
X73026121Y-107885779D01*
X73026121Y-107686585D01*
X72994960Y-107489843D01*
X72994959Y-107489839D01*
X72994959Y-107489838D01*
X72933407Y-107300401D01*
X72842973Y-107122915D01*
X72725890Y-106961764D01*
X72585039Y-106820913D01*
X72423887Y-106703829D01*
X72272448Y-106626667D01*
X72221652Y-106578692D01*
X72204857Y-106510871D01*
X72227394Y-106444736D01*
X72272448Y-106405697D01*
X72281737Y-106400963D01*
X72423887Y-106328535D01*
X72585039Y-106211451D01*
X72725890Y-106070600D01*
X72842974Y-105909448D01*
X72933406Y-105731965D01*
X72941448Y-105707213D01*
X72994959Y-105542525D01*
X72994959Y-105542524D01*
X72994960Y-105542521D01*
X73026121Y-105345779D01*
X73026121Y-105146585D01*
X72994960Y-104949843D01*
X72994959Y-104949839D01*
X72994959Y-104949838D01*
X72933407Y-104760401D01*
X72842973Y-104582915D01*
X72819059Y-104550000D01*
X72725890Y-104421764D01*
X72585039Y-104280913D01*
X72477335Y-104202661D01*
X72423885Y-104163827D01*
X72403225Y-104153301D01*
X72272448Y-104086667D01*
X72231171Y-104047682D01*
X79200000Y-104047682D01*
X79200000Y-104252317D01*
X79232009Y-104454417D01*
X79295244Y-104649031D01*
X79388141Y-104831350D01*
X79388147Y-104831359D01*
X79420523Y-104875921D01*
X79420524Y-104875922D01*
X80100000Y-104196446D01*
X80100000Y-104202661D01*
X80127259Y-104304394D01*
X80179920Y-104395606D01*
X80254394Y-104470080D01*
X80345606Y-104522741D01*
X80447339Y-104550000D01*
X80453553Y-104550000D01*
X79774076Y-105229474D01*
X79818650Y-105261859D01*
X80000968Y-105354755D01*
X80195582Y-105417990D01*
X80397683Y-105450000D01*
X80602317Y-105450000D01*
X80804417Y-105417990D01*
X80999031Y-105354755D01*
X81181349Y-105261859D01*
X81225921Y-105229474D01*
X80546447Y-104550000D01*
X80552661Y-104550000D01*
X80654394Y-104522741D01*
X80745606Y-104470080D01*
X80820080Y-104395606D01*
X80872741Y-104304394D01*
X80900000Y-104202661D01*
X80900000Y-104196447D01*
X81579474Y-104875921D01*
X81611859Y-104831349D01*
X81704755Y-104649031D01*
X81767990Y-104454417D01*
X81800000Y-104252317D01*
X81800000Y-104047682D01*
X81767990Y-103845582D01*
X81704755Y-103650968D01*
X81611859Y-103468650D01*
X81579474Y-103424077D01*
X81579474Y-103424076D01*
X80900000Y-104103551D01*
X80900000Y-104097339D01*
X80872741Y-103995606D01*
X80820080Y-103904394D01*
X80745606Y-103829920D01*
X80654394Y-103777259D01*
X80552661Y-103750000D01*
X80546446Y-103750000D01*
X81225922Y-103070524D01*
X81225921Y-103070523D01*
X81181359Y-103038147D01*
X81181350Y-103038141D01*
X80999031Y-102945244D01*
X80804417Y-102882009D01*
X80602317Y-102850000D01*
X80397683Y-102850000D01*
X80195582Y-102882009D01*
X80000968Y-102945244D01*
X79818644Y-103038143D01*
X79774077Y-103070523D01*
X79774077Y-103070524D01*
X80453554Y-103750000D01*
X80447339Y-103750000D01*
X80345606Y-103777259D01*
X80254394Y-103829920D01*
X80179920Y-103904394D01*
X80127259Y-103995606D01*
X80100000Y-104097339D01*
X80100000Y-104103553D01*
X79420524Y-103424077D01*
X79420523Y-103424077D01*
X79388143Y-103468644D01*
X79295244Y-103650968D01*
X79232009Y-103845582D01*
X79200000Y-104047682D01*
X72231171Y-104047682D01*
X72221652Y-104038692D01*
X72204857Y-103970871D01*
X72227394Y-103904736D01*
X72272448Y-103865697D01*
X72281737Y-103860963D01*
X72423887Y-103788535D01*
X72585039Y-103671451D01*
X72725890Y-103530600D01*
X72842974Y-103369448D01*
X72933406Y-103191965D01*
X72939583Y-103172955D01*
X72969960Y-103079465D01*
X72994959Y-103002525D01*
X72994959Y-103002524D01*
X72994960Y-103002521D01*
X73026121Y-102805779D01*
X73026121Y-102606585D01*
X72994960Y-102409843D01*
X72994959Y-102409839D01*
X72994959Y-102409838D01*
X72933407Y-102220401D01*
X72893295Y-102141677D01*
X72842974Y-102042916D01*
X72725890Y-101881764D01*
X72585039Y-101740913D01*
X72423887Y-101623829D01*
X72423883Y-101623827D01*
X72271898Y-101546386D01*
X72221102Y-101498411D01*
X72204307Y-101430590D01*
X72226845Y-101364455D01*
X72271898Y-101325416D01*
X72423626Y-101248106D01*
X72461484Y-101220600D01*
X72461484Y-101220599D01*
X71898195Y-100657310D01*
X71957474Y-100641427D01*
X72073768Y-100574284D01*
X72168723Y-100479329D01*
X72235866Y-100363035D01*
X72251749Y-100303756D01*
X72815038Y-100867045D01*
X72815039Y-100867045D01*
X72842545Y-100829187D01*
X72932941Y-100651776D01*
X72994473Y-100462404D01*
X73025621Y-100265745D01*
X73025621Y-100066618D01*
X72994473Y-99869959D01*
X72932941Y-99680587D01*
X72842545Y-99503176D01*
X72815038Y-99465317D01*
X72815038Y-99465316D01*
X72251749Y-100028606D01*
X72235866Y-99969329D01*
X72168723Y-99853035D01*
X72073768Y-99758080D01*
X71957474Y-99690937D01*
X71898195Y-99675053D01*
X72461485Y-99111763D01*
X72461484Y-99111762D01*
X72423629Y-99084259D01*
X72271898Y-99006947D01*
X72221102Y-98958972D01*
X72204307Y-98891151D01*
X72226845Y-98825016D01*
X72271898Y-98785977D01*
X72272448Y-98785697D01*
X72423887Y-98708535D01*
X72585039Y-98591451D01*
X72725890Y-98450600D01*
X72742459Y-98427795D01*
X72797790Y-98385130D01*
X72842776Y-98376682D01*
X72854541Y-98376682D01*
X72952083Y-98357278D01*
X72999534Y-98347840D01*
X73136116Y-98291266D01*
X73185350Y-98258368D01*
X73259037Y-98209134D01*
X74683573Y-96784598D01*
X74683573Y-96784597D01*
X112675169Y-58793001D01*
X112736492Y-58759516D01*
X112762850Y-58756682D01*
X148668392Y-58756682D01*
X148735431Y-58776367D01*
G37*
%TD.AperFunction*%
%TA.AperFunction,Conductor*%
G36*
X133940626Y-91659001D02*
G01*
X133952587Y-91669516D01*
X135313802Y-93030730D01*
X135347287Y-93092053D01*
X135350121Y-93118411D01*
X135350121Y-121174539D01*
X135350121Y-121174541D01*
X135350120Y-121174541D01*
X135378961Y-121319528D01*
X135378964Y-121319538D01*
X135435535Y-121456113D01*
X135454567Y-121484596D01*
X135454568Y-121484599D01*
X135517667Y-121579035D01*
X135517673Y-121579042D01*
X138213802Y-124275169D01*
X138247287Y-124336492D01*
X138250121Y-124362850D01*
X138250121Y-137380764D01*
X138230436Y-137447803D01*
X138199006Y-137481082D01*
X138153408Y-137514210D01*
X138153403Y-137514214D01*
X138008649Y-137658968D01*
X137888336Y-137824568D01*
X137795402Y-138006958D01*
X137732143Y-138201647D01*
X137700121Y-138403830D01*
X137700121Y-138608533D01*
X137732143Y-138810716D01*
X137795402Y-139005405D01*
X137838813Y-139090602D01*
X137887705Y-139186558D01*
X137888336Y-139187795D01*
X138008649Y-139353395D01*
X138008655Y-139353401D01*
X138153402Y-139498148D01*
X138319011Y-139618469D01*
X138321946Y-139619964D01*
X138322112Y-139620049D01*
X138368924Y-139661646D01*
X138417667Y-139734596D01*
X138417673Y-139734603D01*
X140443802Y-141760730D01*
X140458505Y-141787657D01*
X140475098Y-141813476D01*
X140475989Y-141819676D01*
X140477287Y-141822053D01*
X140480121Y-141848411D01*
X140480121Y-142068961D01*
X140460436Y-142136000D01*
X140429006Y-142169279D01*
X140350832Y-142226075D01*
X140350826Y-142226080D01*
X140200511Y-142376395D01*
X140075572Y-142548361D01*
X139979065Y-142737767D01*
X139913374Y-142939942D01*
X139880121Y-143149895D01*
X139880121Y-143362468D01*
X139905657Y-143523699D01*
X139913375Y-143572425D01*
X139927992Y-143617412D01*
X139979065Y-143774596D01*
X140075572Y-143964002D01*
X140200511Y-144135968D01*
X140350834Y-144286291D01*
X140522800Y-144411230D01*
X140522802Y-144411231D01*
X140522805Y-144411233D01*
X140712209Y-144507739D01*
X140914378Y-144573428D01*
X140914381Y-144573428D01*
X140914382Y-144573429D01*
X140969483Y-144582155D01*
X141063197Y-144596998D01*
X141126331Y-144626927D01*
X141163263Y-144686238D01*
X141162265Y-144756101D01*
X141131480Y-144807152D01*
X137225451Y-148713181D01*
X137164128Y-148746666D01*
X137137770Y-148749500D01*
X133242221Y-148749500D01*
X133175182Y-148729815D01*
X133141903Y-148698385D01*
X133085107Y-148620211D01*
X132934786Y-148469890D01*
X132762820Y-148344951D01*
X132573414Y-148248444D01*
X132573413Y-148248443D01*
X132573412Y-148248443D01*
X132371243Y-148182754D01*
X132371241Y-148182753D01*
X132371239Y-148182753D01*
X132199285Y-148155518D01*
X132136150Y-148125589D01*
X132099219Y-148066277D01*
X132100217Y-147996415D01*
X132131000Y-147945366D01*
X135351590Y-144724776D01*
X135391812Y-144697900D01*
X135456116Y-144671266D01*
X135579037Y-144589133D01*
X135683572Y-144484598D01*
X135765705Y-144361677D01*
X135822279Y-144225095D01*
X135851121Y-144080100D01*
X135851121Y-135492264D01*
X135851121Y-135492261D01*
X135822280Y-135347274D01*
X135822279Y-135347273D01*
X135822279Y-135347269D01*
X135795221Y-135281945D01*
X135765708Y-135210693D01*
X135765701Y-135210680D01*
X135683573Y-135087767D01*
X135656901Y-135061095D01*
X135579037Y-134983231D01*
X134016503Y-133420697D01*
X133983018Y-133359374D01*
X133981711Y-133313619D01*
X133986121Y-133285779D01*
X133986121Y-133086585D01*
X133954960Y-132889843D01*
X133954959Y-132889839D01*
X133954959Y-132889838D01*
X133893407Y-132700401D01*
X133864645Y-132643952D01*
X133802974Y-132522916D01*
X133685890Y-132361764D01*
X133545039Y-132220913D01*
X133383887Y-132103829D01*
X133232448Y-132026667D01*
X133181652Y-131978692D01*
X133164857Y-131910871D01*
X133187394Y-131844736D01*
X133232448Y-131805697D01*
X133241737Y-131800963D01*
X133383887Y-131728535D01*
X133545039Y-131611451D01*
X133685890Y-131470600D01*
X133802974Y-131309448D01*
X133893406Y-131131965D01*
X133901448Y-131107213D01*
X133954959Y-130942525D01*
X133954959Y-130942524D01*
X133954960Y-130942521D01*
X133986121Y-130745779D01*
X133986121Y-130546585D01*
X133954960Y-130349843D01*
X133954959Y-130349839D01*
X133954959Y-130349838D01*
X133893407Y-130160401D01*
X133802973Y-129982915D01*
X133685890Y-129821764D01*
X133545039Y-129680913D01*
X133383887Y-129563829D01*
X133232448Y-129486667D01*
X133181652Y-129438692D01*
X133164857Y-129370871D01*
X133187394Y-129304736D01*
X133232448Y-129265697D01*
X133241737Y-129260963D01*
X133383887Y-129188535D01*
X133545039Y-129071451D01*
X133685890Y-128930600D01*
X133802974Y-128769448D01*
X133893406Y-128591965D01*
X133901448Y-128567213D01*
X133954959Y-128402525D01*
X133954959Y-128402524D01*
X133954960Y-128402521D01*
X133986121Y-128205779D01*
X133986121Y-128006585D01*
X133954960Y-127809843D01*
X133954959Y-127809839D01*
X133954959Y-127809838D01*
X133893407Y-127620401D01*
X133802973Y-127442915D01*
X133685890Y-127281764D01*
X133545039Y-127140913D01*
X133383887Y-127023829D01*
X133232448Y-126946667D01*
X133181652Y-126898692D01*
X133164857Y-126830871D01*
X133187394Y-126764736D01*
X133232448Y-126725697D01*
X133243627Y-126720001D01*
X133383887Y-126648535D01*
X133545039Y-126531451D01*
X133685890Y-126390600D01*
X133802974Y-126229448D01*
X133893406Y-126051965D01*
X133901448Y-126027213D01*
X133954959Y-125862525D01*
X133954959Y-125862524D01*
X133954960Y-125862521D01*
X133986121Y-125665779D01*
X133986121Y-125466585D01*
X133954960Y-125269843D01*
X133954959Y-125269839D01*
X133954959Y-125269838D01*
X133893407Y-125080401D01*
X133802973Y-124902915D01*
X133685890Y-124741764D01*
X133545039Y-124600913D01*
X133383887Y-124483829D01*
X133232448Y-124406667D01*
X133181652Y-124358692D01*
X133164857Y-124290871D01*
X133187394Y-124224736D01*
X133232448Y-124185697D01*
X133241737Y-124180963D01*
X133383887Y-124108535D01*
X133545039Y-123991451D01*
X133685890Y-123850600D01*
X133802974Y-123689448D01*
X133893406Y-123511965D01*
X133901448Y-123487213D01*
X133954959Y-123322525D01*
X133954959Y-123322524D01*
X133954960Y-123322521D01*
X133986121Y-123125779D01*
X133986121Y-122926585D01*
X133954960Y-122729843D01*
X133954959Y-122729839D01*
X133954959Y-122729838D01*
X133893407Y-122540401D01*
X133844958Y-122445314D01*
X133802974Y-122362916D01*
X133685890Y-122201764D01*
X133545039Y-122060913D01*
X133383887Y-121943829D01*
X133232448Y-121866667D01*
X133181652Y-121818692D01*
X133164857Y-121750871D01*
X133187394Y-121684736D01*
X133232448Y-121645697D01*
X133241737Y-121640963D01*
X133383887Y-121568535D01*
X133545039Y-121451451D01*
X133685890Y-121310600D01*
X133802974Y-121149448D01*
X133893406Y-120971965D01*
X133901448Y-120947213D01*
X133954959Y-120782525D01*
X133954959Y-120782524D01*
X133954960Y-120782521D01*
X133986121Y-120585779D01*
X133986121Y-120386585D01*
X133954960Y-120189843D01*
X133954959Y-120189839D01*
X133954959Y-120189838D01*
X133893407Y-120000401D01*
X133802973Y-119822915D01*
X133685890Y-119661764D01*
X133545039Y-119520913D01*
X133383887Y-119403829D01*
X133232448Y-119326667D01*
X133181652Y-119278692D01*
X133164857Y-119210871D01*
X133187394Y-119144736D01*
X133232448Y-119105697D01*
X133241737Y-119100963D01*
X133383887Y-119028535D01*
X133545039Y-118911451D01*
X133685890Y-118770600D01*
X133802974Y-118609448D01*
X133893406Y-118431965D01*
X133901627Y-118406663D01*
X133954959Y-118242525D01*
X133954959Y-118242524D01*
X133954960Y-118242521D01*
X133986121Y-118045779D01*
X133986121Y-117846585D01*
X133954960Y-117649843D01*
X133954959Y-117649839D01*
X133954959Y-117649838D01*
X133893407Y-117460401D01*
X133803106Y-117283176D01*
X133802974Y-117282916D01*
X133685890Y-117121764D01*
X133545039Y-116980913D01*
X133383887Y-116863829D01*
X133356744Y-116849999D01*
X133231898Y-116786386D01*
X133181102Y-116738411D01*
X133164307Y-116670590D01*
X133186845Y-116604455D01*
X133231898Y-116565416D01*
X133383626Y-116488106D01*
X133421484Y-116460600D01*
X133421484Y-116460599D01*
X132858195Y-115897310D01*
X132917474Y-115881427D01*
X133033768Y-115814284D01*
X133128723Y-115719329D01*
X133195866Y-115603035D01*
X133211749Y-115543756D01*
X133775038Y-116107045D01*
X133775039Y-116107045D01*
X133802545Y-116069187D01*
X133892941Y-115891776D01*
X133954473Y-115702404D01*
X133985621Y-115505745D01*
X133985621Y-115306618D01*
X133954473Y-115109959D01*
X133892941Y-114920587D01*
X133802545Y-114743176D01*
X133775038Y-114705317D01*
X133775038Y-114705316D01*
X133211749Y-115268606D01*
X133195866Y-115209329D01*
X133128723Y-115093035D01*
X133033768Y-114998080D01*
X132917474Y-114930937D01*
X132858195Y-114915053D01*
X133421485Y-114351763D01*
X133421484Y-114351762D01*
X133383629Y-114324259D01*
X133231898Y-114246947D01*
X133181102Y-114198972D01*
X133164307Y-114131151D01*
X133186845Y-114065016D01*
X133231898Y-114025977D01*
X133232448Y-114025697D01*
X133383887Y-113948535D01*
X133545039Y-113831451D01*
X133685890Y-113690600D01*
X133802974Y-113529448D01*
X133893406Y-113351965D01*
X133901448Y-113327213D01*
X133954959Y-113162525D01*
X133954959Y-113162524D01*
X133954960Y-113162521D01*
X133986121Y-112965779D01*
X133986121Y-112766585D01*
X133954960Y-112569843D01*
X133954959Y-112569839D01*
X133954959Y-112569838D01*
X133893407Y-112380401D01*
X133817606Y-112231633D01*
X133802974Y-112202916D01*
X133685890Y-112041764D01*
X133545039Y-111900913D01*
X133383887Y-111783829D01*
X133232448Y-111706667D01*
X133181652Y-111658692D01*
X133164857Y-111590871D01*
X133187394Y-111524736D01*
X133232448Y-111485697D01*
X133241737Y-111480963D01*
X133383887Y-111408535D01*
X133545039Y-111291451D01*
X133685890Y-111150600D01*
X133802974Y-110989448D01*
X133893406Y-110811965D01*
X133901448Y-110787213D01*
X133954959Y-110622525D01*
X133954959Y-110622524D01*
X133954960Y-110622521D01*
X133986121Y-110425779D01*
X133986121Y-110226585D01*
X133954960Y-110029843D01*
X133954959Y-110029839D01*
X133954959Y-110029838D01*
X133893407Y-109840401D01*
X133812711Y-109682026D01*
X133802974Y-109662916D01*
X133685890Y-109501764D01*
X133545039Y-109360913D01*
X133383887Y-109243829D01*
X133232448Y-109166667D01*
X133181652Y-109118692D01*
X133164857Y-109050871D01*
X133187394Y-108984736D01*
X133232448Y-108945697D01*
X133241737Y-108940963D01*
X133383887Y-108868535D01*
X133545039Y-108751451D01*
X133685890Y-108610600D01*
X133802974Y-108449448D01*
X133893406Y-108271965D01*
X133901448Y-108247213D01*
X133954959Y-108082525D01*
X133954959Y-108082524D01*
X133954960Y-108082521D01*
X133986121Y-107885779D01*
X133986121Y-107686585D01*
X133954960Y-107489843D01*
X133954959Y-107489839D01*
X133954959Y-107489838D01*
X133893407Y-107300401D01*
X133802973Y-107122915D01*
X133685890Y-106961764D01*
X133545039Y-106820913D01*
X133383887Y-106703829D01*
X133232448Y-106626667D01*
X133181652Y-106578692D01*
X133164857Y-106510871D01*
X133187394Y-106444736D01*
X133232448Y-106405697D01*
X133241737Y-106400963D01*
X133383887Y-106328535D01*
X133545039Y-106211451D01*
X133685890Y-106070600D01*
X133802974Y-105909448D01*
X133893406Y-105731965D01*
X133901448Y-105707213D01*
X133954959Y-105542525D01*
X133954959Y-105542524D01*
X133954960Y-105542521D01*
X133986121Y-105345779D01*
X133986121Y-105146585D01*
X133954960Y-104949843D01*
X133954959Y-104949839D01*
X133954959Y-104949838D01*
X133893407Y-104760401D01*
X133802973Y-104582915D01*
X133779059Y-104550000D01*
X133685890Y-104421764D01*
X133545039Y-104280913D01*
X133383887Y-104163829D01*
X133232448Y-104086667D01*
X133181652Y-104038692D01*
X133164857Y-103970871D01*
X133187394Y-103904736D01*
X133232448Y-103865697D01*
X133241737Y-103860963D01*
X133383887Y-103788535D01*
X133545039Y-103671451D01*
X133685890Y-103530600D01*
X133802974Y-103369448D01*
X133893406Y-103191965D01*
X133901627Y-103166663D01*
X133954959Y-103002525D01*
X133954959Y-103002524D01*
X133954960Y-103002521D01*
X133986121Y-102805779D01*
X133986121Y-102606585D01*
X133954960Y-102409843D01*
X133954959Y-102409839D01*
X133954959Y-102409838D01*
X133893407Y-102220401D01*
X133853295Y-102141677D01*
X133802974Y-102042916D01*
X133685890Y-101881764D01*
X133545039Y-101740913D01*
X133383887Y-101623829D01*
X133340405Y-101601674D01*
X133232448Y-101546667D01*
X133181652Y-101498692D01*
X133164857Y-101430871D01*
X133187394Y-101364736D01*
X133232448Y-101325697D01*
X133243433Y-101320100D01*
X133383887Y-101248535D01*
X133545039Y-101131451D01*
X133685890Y-100990600D01*
X133802974Y-100829448D01*
X133893406Y-100651965D01*
X133901627Y-100626663D01*
X133954959Y-100462525D01*
X133954959Y-100462524D01*
X133954960Y-100462521D01*
X133986121Y-100265779D01*
X133986121Y-100066585D01*
X133954960Y-99869843D01*
X133954959Y-99869839D01*
X133954959Y-99869838D01*
X133893407Y-99680401D01*
X133803106Y-99503176D01*
X133802974Y-99502916D01*
X133685890Y-99341764D01*
X133545039Y-99200913D01*
X133383887Y-99083829D01*
X133232448Y-99006667D01*
X133181652Y-98958692D01*
X133164857Y-98890871D01*
X133187394Y-98824736D01*
X133232448Y-98785697D01*
X133241737Y-98780963D01*
X133383887Y-98708535D01*
X133545039Y-98591451D01*
X133685890Y-98450600D01*
X133802974Y-98289448D01*
X133893406Y-98111965D01*
X133905761Y-98073940D01*
X133954959Y-97922525D01*
X133954959Y-97922524D01*
X133954960Y-97922521D01*
X133986121Y-97725779D01*
X133986121Y-97526585D01*
X133954960Y-97329843D01*
X133954959Y-97329839D01*
X133954959Y-97329838D01*
X133893407Y-97140401D01*
X133802973Y-96962915D01*
X133685890Y-96801764D01*
X133545039Y-96660913D01*
X133383887Y-96543829D01*
X133232448Y-96466667D01*
X133181652Y-96418692D01*
X133164857Y-96350871D01*
X133187394Y-96284736D01*
X133232448Y-96245697D01*
X133241737Y-96240963D01*
X133383887Y-96168535D01*
X133545039Y-96051451D01*
X133685890Y-95910600D01*
X133802974Y-95749448D01*
X133893406Y-95571965D01*
X133901448Y-95547213D01*
X133954959Y-95382525D01*
X133954959Y-95382524D01*
X133954960Y-95382521D01*
X133986121Y-95185779D01*
X133986121Y-94986585D01*
X133954960Y-94789843D01*
X133954959Y-94789839D01*
X133954959Y-94789838D01*
X133893407Y-94600401D01*
X133839353Y-94494314D01*
X133802974Y-94422916D01*
X133685890Y-94261764D01*
X133545039Y-94120913D01*
X133383887Y-94003829D01*
X133232448Y-93926667D01*
X133181652Y-93878692D01*
X133164857Y-93810871D01*
X133187394Y-93744736D01*
X133232448Y-93705697D01*
X133241737Y-93700963D01*
X133383887Y-93628535D01*
X133545039Y-93511451D01*
X133685890Y-93370600D01*
X133802974Y-93209448D01*
X133893406Y-93031965D01*
X133893807Y-93030730D01*
X133954959Y-92842525D01*
X133954959Y-92842524D01*
X133954960Y-92842521D01*
X133986121Y-92645779D01*
X133986121Y-92446585D01*
X133954960Y-92249843D01*
X133954959Y-92249839D01*
X133954959Y-92249838D01*
X133893407Y-92060401D01*
X133878289Y-92030730D01*
X133802974Y-91882916D01*
X133764587Y-91830081D01*
X133741108Y-91764277D01*
X133756933Y-91696223D01*
X133807039Y-91647528D01*
X133875517Y-91633652D01*
X133940626Y-91659001D01*
G37*
%TD.AperFunction*%
%TA.AperFunction,Conductor*%
G36*
X82498210Y-111096367D02*
G01*
X82518852Y-111113001D01*
X98313802Y-126907951D01*
X98347287Y-126969274D01*
X98350121Y-126995632D01*
X98350121Y-146031682D01*
X98330436Y-146098721D01*
X98277632Y-146144476D01*
X98226126Y-146155682D01*
X98202753Y-146155682D01*
X98202744Y-146155683D01*
X98143137Y-146162090D01*
X98008292Y-146212384D01*
X98008285Y-146212388D01*
X97893076Y-146298634D01*
X97893073Y-146298637D01*
X97806827Y-146413846D01*
X97806824Y-146413851D01*
X97757810Y-146545265D01*
X97715938Y-146601198D01*
X97650474Y-146625615D01*
X97582201Y-146610763D01*
X97553947Y-146589612D01*
X97440407Y-146476072D01*
X97268441Y-146351133D01*
X97079035Y-146254626D01*
X97079034Y-146254625D01*
X97079033Y-146254625D01*
X96876864Y-146188936D01*
X96876862Y-146188935D01*
X96876861Y-146188935D01*
X96715578Y-146163390D01*
X96666908Y-146155682D01*
X96454334Y-146155682D01*
X96454329Y-146155682D01*
X96358892Y-146170798D01*
X96289599Y-146161844D01*
X96251813Y-146136006D01*
X85259034Y-135143227D01*
X85210458Y-135110771D01*
X85178073Y-135089133D01*
X85136116Y-135061098D01*
X85136115Y-135061097D01*
X85136113Y-135061096D01*
X85136111Y-135061095D01*
X84999538Y-135004525D01*
X84999528Y-135004522D01*
X84854541Y-134975682D01*
X84854539Y-134975682D01*
X72842776Y-134975682D01*
X72775737Y-134955997D01*
X72742459Y-134924569D01*
X72725890Y-134901764D01*
X72585041Y-134760915D01*
X72585039Y-134760913D01*
X72423887Y-134643829D01*
X72272448Y-134566667D01*
X72221652Y-134518692D01*
X72204857Y-134450871D01*
X72227394Y-134384736D01*
X72272448Y-134345697D01*
X72281737Y-134340963D01*
X72423887Y-134268535D01*
X72585039Y-134151451D01*
X72725890Y-134010600D01*
X72842974Y-133849448D01*
X72933406Y-133671965D01*
X72941448Y-133647213D01*
X72994959Y-133482525D01*
X72994959Y-133482524D01*
X72994960Y-133482521D01*
X73026121Y-133285779D01*
X73026121Y-133086585D01*
X72994960Y-132889843D01*
X72994959Y-132889839D01*
X72994959Y-132889838D01*
X72933407Y-132700401D01*
X72904645Y-132643952D01*
X72842974Y-132522916D01*
X72725890Y-132361764D01*
X72585039Y-132220913D01*
X72423887Y-132103829D01*
X72272448Y-132026667D01*
X72221652Y-131978692D01*
X72204857Y-131910871D01*
X72227394Y-131844736D01*
X72272448Y-131805697D01*
X72281737Y-131800963D01*
X72423887Y-131728535D01*
X72585039Y-131611451D01*
X72725890Y-131470600D01*
X72842974Y-131309448D01*
X72933406Y-131131965D01*
X72941448Y-131107213D01*
X72994959Y-130942525D01*
X72994959Y-130942524D01*
X72994960Y-130942521D01*
X73026121Y-130745779D01*
X73026121Y-130546585D01*
X72994960Y-130349843D01*
X72994959Y-130349839D01*
X72994959Y-130349838D01*
X72933407Y-130160401D01*
X72842973Y-129982915D01*
X72725890Y-129821764D01*
X72585039Y-129680913D01*
X72423887Y-129563829D01*
X72272448Y-129486667D01*
X72221652Y-129438692D01*
X72204857Y-129370871D01*
X72227394Y-129304736D01*
X72272448Y-129265697D01*
X72281737Y-129260963D01*
X72423887Y-129188535D01*
X72585039Y-129071451D01*
X72725890Y-128930600D01*
X72842974Y-128769448D01*
X72933406Y-128591965D01*
X72941448Y-128567213D01*
X72994959Y-128402525D01*
X72994959Y-128402524D01*
X72994960Y-128402521D01*
X73026121Y-128205779D01*
X73026121Y-128006585D01*
X72994960Y-127809843D01*
X72994959Y-127809839D01*
X72994959Y-127809838D01*
X72933407Y-127620401D01*
X72842973Y-127442915D01*
X72725890Y-127281764D01*
X72585039Y-127140913D01*
X72423887Y-127023829D01*
X72272448Y-126946667D01*
X72221652Y-126898692D01*
X72204857Y-126830871D01*
X72227394Y-126764736D01*
X72272448Y-126725697D01*
X72283627Y-126720001D01*
X72423887Y-126648535D01*
X72585039Y-126531451D01*
X72725890Y-126390600D01*
X72842974Y-126229448D01*
X72933406Y-126051965D01*
X72941448Y-126027213D01*
X72994959Y-125862525D01*
X72994959Y-125862524D01*
X72994960Y-125862521D01*
X73026121Y-125665779D01*
X73026121Y-125466585D01*
X72994960Y-125269843D01*
X72994959Y-125269839D01*
X72994959Y-125269838D01*
X72933407Y-125080401D01*
X72842973Y-124902915D01*
X72725890Y-124741764D01*
X72585039Y-124600913D01*
X72423887Y-124483829D01*
X72272448Y-124406667D01*
X72221652Y-124358692D01*
X72204857Y-124290871D01*
X72227394Y-124224736D01*
X72272448Y-124185697D01*
X72281737Y-124180963D01*
X72423887Y-124108535D01*
X72585039Y-123991451D01*
X72725890Y-123850600D01*
X72842974Y-123689448D01*
X72933406Y-123511965D01*
X72941448Y-123487213D01*
X72994959Y-123322525D01*
X72994959Y-123322524D01*
X72994960Y-123322521D01*
X73026121Y-123125779D01*
X73026121Y-122926585D01*
X72994960Y-122729843D01*
X72994959Y-122729839D01*
X72994959Y-122729838D01*
X72933407Y-122540401D01*
X72884958Y-122445314D01*
X72842974Y-122362916D01*
X72725890Y-122201764D01*
X72585039Y-122060913D01*
X72423887Y-121943829D01*
X72272448Y-121866667D01*
X72221652Y-121818692D01*
X72204857Y-121750871D01*
X72227394Y-121684736D01*
X72272448Y-121645697D01*
X72281737Y-121640963D01*
X72423887Y-121568535D01*
X72585039Y-121451451D01*
X72725890Y-121310600D01*
X72842974Y-121149448D01*
X72933406Y-120971965D01*
X72941448Y-120947213D01*
X72994959Y-120782525D01*
X72994959Y-120782524D01*
X72994960Y-120782521D01*
X73026121Y-120585779D01*
X73026121Y-120386585D01*
X72994960Y-120189843D01*
X72994959Y-120189839D01*
X72994959Y-120189838D01*
X72933407Y-120000401D01*
X72842973Y-119822915D01*
X72725890Y-119661764D01*
X72585039Y-119520913D01*
X72423887Y-119403829D01*
X72423883Y-119403827D01*
X72271898Y-119326386D01*
X72221102Y-119278411D01*
X72204307Y-119210590D01*
X72226845Y-119144455D01*
X72271898Y-119105416D01*
X72423626Y-119028106D01*
X72461484Y-119000600D01*
X72461484Y-119000599D01*
X71898195Y-118437310D01*
X71957474Y-118421427D01*
X72073768Y-118354284D01*
X72168723Y-118259329D01*
X72235866Y-118143035D01*
X72251749Y-118083756D01*
X72815038Y-118647045D01*
X72815039Y-118647045D01*
X72842545Y-118609187D01*
X72932941Y-118431776D01*
X72994473Y-118242404D01*
X73025621Y-118045745D01*
X73025621Y-117846618D01*
X72994473Y-117649959D01*
X72932941Y-117460587D01*
X72842545Y-117283176D01*
X72815038Y-117245317D01*
X72815038Y-117245316D01*
X72251749Y-117808606D01*
X72235866Y-117749329D01*
X72168723Y-117633035D01*
X72073768Y-117538080D01*
X71957474Y-117470937D01*
X71898195Y-117455053D01*
X72461485Y-116891763D01*
X72461484Y-116891762D01*
X72423627Y-116864257D01*
X72402125Y-116853301D01*
X72402124Y-116853301D01*
X72271348Y-116786667D01*
X72230071Y-116747682D01*
X79200000Y-116747682D01*
X79200000Y-116952317D01*
X79232009Y-117154417D01*
X79295244Y-117349031D01*
X79388141Y-117531350D01*
X79388147Y-117531359D01*
X79420523Y-117575921D01*
X79420524Y-117575922D01*
X80100000Y-116896446D01*
X80100000Y-116902661D01*
X80127259Y-117004394D01*
X80179920Y-117095606D01*
X80254394Y-117170080D01*
X80345606Y-117222741D01*
X80447339Y-117250000D01*
X80453553Y-117250000D01*
X79774076Y-117929474D01*
X79818650Y-117961859D01*
X80000968Y-118054755D01*
X80195582Y-118117990D01*
X80397683Y-118150000D01*
X80602317Y-118150000D01*
X80804417Y-118117990D01*
X80999031Y-118054755D01*
X81181349Y-117961859D01*
X81225921Y-117929474D01*
X80546447Y-117250000D01*
X80552661Y-117250000D01*
X80654394Y-117222741D01*
X80745606Y-117170080D01*
X80820080Y-117095606D01*
X80872741Y-117004394D01*
X80900000Y-116902661D01*
X80900000Y-116896447D01*
X81579474Y-117575921D01*
X81611859Y-117531349D01*
X81704755Y-117349031D01*
X81767990Y-117154417D01*
X81800000Y-116952317D01*
X81800000Y-116747682D01*
X81767990Y-116545582D01*
X81704755Y-116350968D01*
X81611859Y-116168650D01*
X81579474Y-116124077D01*
X81579474Y-116124076D01*
X80900000Y-116803551D01*
X80900000Y-116797339D01*
X80872741Y-116695606D01*
X80820080Y-116604394D01*
X80745606Y-116529920D01*
X80654394Y-116477259D01*
X80552661Y-116450000D01*
X80546446Y-116450000D01*
X81225922Y-115770524D01*
X81225921Y-115770523D01*
X81181359Y-115738147D01*
X81181350Y-115738141D01*
X80999031Y-115645244D01*
X80804417Y-115582009D01*
X80602317Y-115550000D01*
X80397683Y-115550000D01*
X80195582Y-115582009D01*
X80000968Y-115645244D01*
X79818644Y-115738143D01*
X79774077Y-115770523D01*
X79774077Y-115770524D01*
X80453554Y-116450000D01*
X80447339Y-116450000D01*
X80345606Y-116477259D01*
X80254394Y-116529920D01*
X80179920Y-116604394D01*
X80127259Y-116695606D01*
X80100000Y-116797339D01*
X80100000Y-116803553D01*
X79420524Y-116124077D01*
X79420523Y-116124077D01*
X79388143Y-116168644D01*
X79295244Y-116350968D01*
X79232009Y-116545582D01*
X79200000Y-116747682D01*
X72230071Y-116747682D01*
X72220552Y-116738692D01*
X72203757Y-116670871D01*
X72226294Y-116604736D01*
X72271348Y-116565697D01*
X72423626Y-116488106D01*
X72461484Y-116460600D01*
X72461484Y-116460599D01*
X71898195Y-115897310D01*
X71957474Y-115881427D01*
X72073768Y-115814284D01*
X72168723Y-115719329D01*
X72235866Y-115603035D01*
X72251749Y-115543756D01*
X72815038Y-116107045D01*
X72815039Y-116107045D01*
X72842545Y-116069187D01*
X72932941Y-115891776D01*
X72969434Y-115779465D01*
X72969434Y-115779464D01*
X72994473Y-115702402D01*
X73025621Y-115505745D01*
X73025621Y-115306618D01*
X72994473Y-115109959D01*
X72932941Y-114920587D01*
X72842545Y-114743176D01*
X72815038Y-114705317D01*
X72815038Y-114705316D01*
X72251749Y-115268606D01*
X72235866Y-115209329D01*
X72168723Y-115093035D01*
X72073768Y-114998080D01*
X71957474Y-114930937D01*
X71898195Y-114915053D01*
X72461485Y-114351763D01*
X72461484Y-114351762D01*
X72423629Y-114324259D01*
X72271898Y-114246947D01*
X72221102Y-114198972D01*
X72204307Y-114131151D01*
X72226845Y-114065016D01*
X72271898Y-114025977D01*
X72272448Y-114025697D01*
X72423887Y-113948535D01*
X72585039Y-113831451D01*
X72725890Y-113690600D01*
X72842974Y-113529448D01*
X72933406Y-113351965D01*
X72941448Y-113327213D01*
X72994959Y-113162525D01*
X72994959Y-113162524D01*
X72994960Y-113162521D01*
X73026121Y-112965779D01*
X73026121Y-112766585D01*
X72994960Y-112569843D01*
X72994959Y-112569839D01*
X72994959Y-112569838D01*
X72933407Y-112380401D01*
X72857606Y-112231633D01*
X72842974Y-112202916D01*
X72725890Y-112041764D01*
X72585039Y-111900913D01*
X72423887Y-111783829D01*
X72272448Y-111706667D01*
X72221652Y-111658692D01*
X72204857Y-111590871D01*
X72227394Y-111524736D01*
X72272448Y-111485697D01*
X72281737Y-111480963D01*
X72423887Y-111408535D01*
X72585039Y-111291451D01*
X72725890Y-111150600D01*
X72742459Y-111127795D01*
X72797790Y-111085130D01*
X72842776Y-111076682D01*
X82431171Y-111076682D01*
X82498210Y-111096367D01*
G37*
%TD.AperFunction*%
%TA.AperFunction,Conductor*%
G36*
X135805430Y-88276367D02*
G01*
X135826072Y-88293001D01*
X138313802Y-90780730D01*
X138347287Y-90842053D01*
X138350121Y-90868411D01*
X138350121Y-121080100D01*
X138350121Y-121080102D01*
X138350120Y-121080102D01*
X138378961Y-121225089D01*
X138378964Y-121225099D01*
X138435535Y-121361674D01*
X138468433Y-121410909D01*
X138468434Y-121410912D01*
X138517667Y-121484596D01*
X138517673Y-121484603D01*
X144813802Y-127780730D01*
X144847287Y-127842053D01*
X144850121Y-127868411D01*
X144850121Y-135080100D01*
X144850121Y-135080102D01*
X144850120Y-135080102D01*
X144878961Y-135225089D01*
X144878964Y-135225099D01*
X144935534Y-135361672D01*
X144935535Y-135361673D01*
X144935537Y-135361677D01*
X144941557Y-135370686D01*
X144941558Y-135370689D01*
X145017667Y-135484596D01*
X145017673Y-135484603D01*
X148063802Y-138530731D01*
X148097287Y-138592054D01*
X148100121Y-138618412D01*
X148100121Y-141781682D01*
X148080436Y-141848721D01*
X148027632Y-141894476D01*
X147976126Y-141905682D01*
X147952753Y-141905682D01*
X147952744Y-141905683D01*
X147893137Y-141912090D01*
X147758292Y-141962384D01*
X147758285Y-141962388D01*
X147643076Y-142048634D01*
X147643073Y-142048637D01*
X147556827Y-142163846D01*
X147556823Y-142163853D01*
X147507618Y-142295780D01*
X147465747Y-142351714D01*
X147400282Y-142376131D01*
X147332009Y-142361279D01*
X147303755Y-142340128D01*
X147190085Y-142226458D01*
X147190080Y-142226454D01*
X147018178Y-142101561D01*
X146828836Y-142005085D01*
X146626745Y-141939423D01*
X146560621Y-141928950D01*
X146560621Y-142823170D01*
X146503614Y-142790257D01*
X146376447Y-142756182D01*
X146244795Y-142756182D01*
X146117628Y-142790257D01*
X146060621Y-142823170D01*
X146060621Y-141928950D01*
X146060620Y-141928950D01*
X145994496Y-141939423D01*
X145792405Y-142005085D01*
X145603063Y-142101561D01*
X145431161Y-142226454D01*
X145431156Y-142226458D01*
X145280897Y-142376717D01*
X145280893Y-142376722D01*
X145155999Y-142548625D01*
X145151383Y-142557684D01*
X145103405Y-142608477D01*
X145035584Y-142625269D01*
X144969450Y-142602728D01*
X144930415Y-142557675D01*
X144925672Y-142548366D01*
X144925670Y-142548363D01*
X144925669Y-142548361D01*
X144800730Y-142376395D01*
X144650407Y-142226072D01*
X144478441Y-142101133D01*
X144289035Y-142004626D01*
X144289034Y-142004625D01*
X144289033Y-142004625D01*
X144086864Y-141938936D01*
X144086862Y-141938935D01*
X144086861Y-141938935D01*
X143925578Y-141913390D01*
X143876908Y-141905682D01*
X143664334Y-141905682D01*
X143615663Y-141913390D01*
X143454381Y-141938935D01*
X143252206Y-142004626D01*
X143062800Y-142101133D01*
X142890834Y-142226072D01*
X142740511Y-142376395D01*
X142615570Y-142548364D01*
X142611105Y-142557128D01*
X142563130Y-142607924D01*
X142495309Y-142624718D01*
X142429174Y-142602180D01*
X142390137Y-142557128D01*
X142385671Y-142548364D01*
X142260730Y-142376395D01*
X142110415Y-142226080D01*
X142110409Y-142226075D01*
X142032236Y-142169279D01*
X141989570Y-142113949D01*
X141981121Y-142068961D01*
X141981121Y-141412261D01*
X141952280Y-141267274D01*
X141952279Y-141267273D01*
X141952279Y-141267269D01*
X141951235Y-141264749D01*
X141895708Y-141130693D01*
X141895701Y-141130680D01*
X141813573Y-141007767D01*
X141813572Y-141007766D01*
X141709037Y-140903231D01*
X140136340Y-139330534D01*
X140102855Y-139269211D01*
X140107839Y-139199519D01*
X140113531Y-139186568D01*
X140205841Y-139005401D01*
X140269098Y-138810716D01*
X140301121Y-138608534D01*
X140301121Y-138403830D01*
X140269098Y-138201648D01*
X140257705Y-138166585D01*
X140239748Y-138111319D01*
X140205841Y-138006963D01*
X140205839Y-138006960D01*
X140205839Y-138006958D01*
X140172124Y-137940789D01*
X140112908Y-137824572D01*
X140080815Y-137780399D01*
X139992592Y-137658968D01*
X139847838Y-137514214D01*
X139847833Y-137514210D01*
X139802236Y-137481082D01*
X139759570Y-137425753D01*
X139751121Y-137380764D01*
X139751121Y-123926700D01*
X139722280Y-123781713D01*
X139722279Y-123781712D01*
X139722279Y-123781708D01*
X139708251Y-123747841D01*
X139665708Y-123645132D01*
X139665701Y-123645119D01*
X139583573Y-123522206D01*
X139531785Y-123470418D01*
X139479037Y-123417670D01*
X136887440Y-120826072D01*
X136853955Y-120764749D01*
X136851121Y-120738391D01*
X136851121Y-92682261D01*
X136841508Y-92633938D01*
X136825942Y-92555682D01*
X136822280Y-92537270D01*
X136784746Y-92446656D01*
X136783726Y-92444195D01*
X136783723Y-92444185D01*
X136765708Y-92400693D01*
X136765701Y-92400680D01*
X136683573Y-92277767D01*
X136646494Y-92240688D01*
X136579037Y-92173231D01*
X136039458Y-91633652D01*
X134329042Y-89923234D01*
X134329035Y-89923228D01*
X134255350Y-89873994D01*
X134255350Y-89873995D01*
X134206112Y-89841095D01*
X134069538Y-89784525D01*
X134069528Y-89784522D01*
X133924541Y-89755682D01*
X133924539Y-89755682D01*
X129026703Y-89755682D01*
X129026697Y-89755682D01*
X128997863Y-89761416D01*
X128997864Y-89761417D01*
X128881714Y-89784521D01*
X128881704Y-89784524D01*
X128801702Y-89817661D01*
X128801703Y-89817662D01*
X128745126Y-89841097D01*
X128662993Y-89895977D01*
X128622206Y-89923229D01*
X128622204Y-89923231D01*
X127517669Y-91027765D01*
X127497099Y-91058551D01*
X127476666Y-91089133D01*
X127435540Y-91150681D01*
X127435533Y-91150693D01*
X127378964Y-91287264D01*
X127378961Y-91287274D01*
X127350121Y-91432261D01*
X127350121Y-91432264D01*
X127350121Y-93580100D01*
X127350121Y-93580102D01*
X127350120Y-93580102D01*
X127378961Y-93725089D01*
X127378964Y-93725099D01*
X127435533Y-93861670D01*
X127435537Y-93861677D01*
X127452635Y-93887266D01*
X127452636Y-93887269D01*
X127517667Y-93984596D01*
X127517673Y-93984603D01*
X128940001Y-95406929D01*
X128970251Y-95456291D01*
X129007837Y-95571969D01*
X129098268Y-95749448D01*
X129215352Y-95910600D01*
X129356203Y-96051451D01*
X129517355Y-96168535D01*
X129587074Y-96204059D01*
X129668793Y-96245697D01*
X129719589Y-96293672D01*
X129736384Y-96361493D01*
X129713846Y-96427628D01*
X129668793Y-96466667D01*
X129517354Y-96543829D01*
X129425411Y-96610629D01*
X129356203Y-96660913D01*
X129356201Y-96660915D01*
X129356200Y-96660915D01*
X129215351Y-96801764D01*
X129198783Y-96824569D01*
X129143452Y-96867234D01*
X129098466Y-96875682D01*
X128082850Y-96875682D01*
X128015811Y-96855997D01*
X127995169Y-96839363D01*
X125887440Y-94731633D01*
X125853955Y-94670310D01*
X125851121Y-94643952D01*
X125851121Y-89368411D01*
X125870806Y-89301372D01*
X125887440Y-89280730D01*
X126875169Y-88293001D01*
X126936492Y-88259516D01*
X126962850Y-88256682D01*
X135738391Y-88256682D01*
X135805430Y-88276367D01*
G37*
%TD.AperFunction*%
%TA.AperFunction,Conductor*%
G36*
X71285376Y-118143035D02*
G01*
X71352519Y-118259329D01*
X71447474Y-118354284D01*
X71563768Y-118421427D01*
X71623046Y-118437310D01*
X71059755Y-119000599D01*
X71097615Y-119028106D01*
X71249343Y-119105416D01*
X71300139Y-119153391D01*
X71316934Y-119221212D01*
X71294397Y-119287347D01*
X71249344Y-119326385D01*
X71097356Y-119403827D01*
X70984618Y-119485737D01*
X70936203Y-119520913D01*
X70936201Y-119520915D01*
X70936200Y-119520915D01*
X70795354Y-119661761D01*
X70795354Y-119661762D01*
X70795352Y-119661764D01*
X70768035Y-119699363D01*
X70678268Y-119822915D01*
X70601106Y-119974354D01*
X70553131Y-120025150D01*
X70485310Y-120041945D01*
X70419175Y-120019407D01*
X70380136Y-119974354D01*
X70302973Y-119822915D01*
X70185890Y-119661764D01*
X70045039Y-119520913D01*
X69883887Y-119403829D01*
X69732448Y-119326667D01*
X69681652Y-119278692D01*
X69664857Y-119210871D01*
X69687394Y-119144736D01*
X69732448Y-119105697D01*
X69741737Y-119100963D01*
X69883887Y-119028535D01*
X70045039Y-118911451D01*
X70185890Y-118770600D01*
X70302974Y-118609448D01*
X70380416Y-118457458D01*
X70428390Y-118406663D01*
X70496211Y-118389868D01*
X70562346Y-118412405D01*
X70601386Y-118457459D01*
X70678698Y-118609190D01*
X70706201Y-118647045D01*
X70706202Y-118647046D01*
X71269492Y-118083756D01*
X71285376Y-118143035D01*
G37*
%TD.AperFunction*%
%TA.AperFunction,Conductor*%
G36*
X71285376Y-115603035D02*
G01*
X71352519Y-115719329D01*
X71447474Y-115814284D01*
X71563768Y-115881427D01*
X71623046Y-115897310D01*
X71059755Y-116460599D01*
X71097620Y-116488110D01*
X71249893Y-116565698D01*
X71300689Y-116613672D01*
X71317484Y-116681493D01*
X71294946Y-116747628D01*
X71249893Y-116786666D01*
X71097617Y-116864255D01*
X71097616Y-116864256D01*
X71059756Y-116891762D01*
X71059756Y-116891763D01*
X71623046Y-117455053D01*
X71563768Y-117470937D01*
X71447474Y-117538080D01*
X71352519Y-117633035D01*
X71285376Y-117749329D01*
X71269492Y-117808607D01*
X70706202Y-117245317D01*
X70706201Y-117245317D01*
X70678696Y-117283175D01*
X70601385Y-117434905D01*
X70553411Y-117485700D01*
X70485590Y-117502495D01*
X70419455Y-117479957D01*
X70380416Y-117434904D01*
X70303106Y-117283176D01*
X70302974Y-117282916D01*
X70185890Y-117121764D01*
X70045039Y-116980913D01*
X69883887Y-116863829D01*
X69856744Y-116849999D01*
X69731898Y-116786386D01*
X69681102Y-116738411D01*
X69664307Y-116670590D01*
X69686845Y-116604455D01*
X69731898Y-116565416D01*
X69883626Y-116488106D01*
X69921484Y-116460600D01*
X69921484Y-116460599D01*
X69358195Y-115897310D01*
X69417474Y-115881427D01*
X69533768Y-115814284D01*
X69628723Y-115719329D01*
X69695866Y-115603035D01*
X69711749Y-115543756D01*
X70275038Y-116107045D01*
X70275039Y-116107045D01*
X70302545Y-116069187D01*
X70380136Y-115916909D01*
X70428111Y-115866113D01*
X70495932Y-115849318D01*
X70562067Y-115871856D01*
X70601106Y-115916909D01*
X70678698Y-116069190D01*
X70706201Y-116107045D01*
X70706202Y-116107046D01*
X71269492Y-115543756D01*
X71285376Y-115603035D01*
G37*
%TD.AperFunction*%
%TA.AperFunction,Conductor*%
G36*
X132245376Y-115603035D02*
G01*
X132312519Y-115719329D01*
X132407474Y-115814284D01*
X132523768Y-115881427D01*
X132583046Y-115897310D01*
X132019755Y-116460599D01*
X132057615Y-116488106D01*
X132209343Y-116565416D01*
X132260139Y-116613391D01*
X132276934Y-116681212D01*
X132254397Y-116747347D01*
X132209344Y-116786385D01*
X132057356Y-116863827D01*
X132003907Y-116902661D01*
X131896203Y-116980913D01*
X131896201Y-116980915D01*
X131896200Y-116980915D01*
X131755354Y-117121761D01*
X131755354Y-117121762D01*
X131755352Y-117121764D01*
X131731628Y-117154417D01*
X131638268Y-117282915D01*
X131561106Y-117434354D01*
X131513131Y-117485150D01*
X131445310Y-117501945D01*
X131379175Y-117479407D01*
X131340136Y-117434354D01*
X131263106Y-117283176D01*
X131262974Y-117282916D01*
X131145890Y-117121764D01*
X131005039Y-116980913D01*
X130843887Y-116863829D01*
X130692448Y-116786667D01*
X130641652Y-116738692D01*
X130624857Y-116670871D01*
X130647394Y-116604736D01*
X130692448Y-116565697D01*
X130701737Y-116560963D01*
X130843887Y-116488535D01*
X131005039Y-116371451D01*
X131145890Y-116230600D01*
X131262974Y-116069448D01*
X131340416Y-115917458D01*
X131388390Y-115866663D01*
X131456211Y-115849868D01*
X131522346Y-115872405D01*
X131561386Y-115917459D01*
X131638698Y-116069190D01*
X131666201Y-116107045D01*
X131666202Y-116107046D01*
X132229492Y-115543756D01*
X132245376Y-115603035D01*
G37*
%TD.AperFunction*%
%TA.AperFunction,Conductor*%
G36*
X70562067Y-113332955D02*
G01*
X70601106Y-113378009D01*
X70678268Y-113529448D01*
X70795352Y-113690600D01*
X70936203Y-113831451D01*
X71097355Y-113948535D01*
X71162314Y-113981633D01*
X71249343Y-114025977D01*
X71300139Y-114073952D01*
X71316934Y-114141773D01*
X71294397Y-114207908D01*
X71249344Y-114246946D01*
X71097614Y-114324257D01*
X71059756Y-114351762D01*
X71059756Y-114351763D01*
X71623046Y-114915053D01*
X71563768Y-114930937D01*
X71447474Y-114998080D01*
X71352519Y-115093035D01*
X71285376Y-115209329D01*
X71269492Y-115268607D01*
X70706202Y-114705317D01*
X70706201Y-114705317D01*
X70678695Y-114743177D01*
X70678694Y-114743178D01*
X70601105Y-114895454D01*
X70553131Y-114946250D01*
X70485310Y-114963045D01*
X70419175Y-114940507D01*
X70380137Y-114895454D01*
X70302549Y-114743181D01*
X70275038Y-114705317D01*
X70275038Y-114705316D01*
X69711749Y-115268606D01*
X69695866Y-115209329D01*
X69628723Y-115093035D01*
X69533768Y-114998080D01*
X69417474Y-114930937D01*
X69358195Y-114915053D01*
X69921485Y-114351763D01*
X69921484Y-114351762D01*
X69883629Y-114324259D01*
X69731898Y-114246947D01*
X69681102Y-114198972D01*
X69664307Y-114131151D01*
X69686845Y-114065016D01*
X69731898Y-114025977D01*
X69732448Y-114025697D01*
X69883887Y-113948535D01*
X70045039Y-113831451D01*
X70185890Y-113690600D01*
X70302974Y-113529448D01*
X70380136Y-113378009D01*
X70428111Y-113327213D01*
X70495932Y-113310418D01*
X70562067Y-113332955D01*
G37*
%TD.AperFunction*%
%TA.AperFunction,Conductor*%
G36*
X131522067Y-113332955D02*
G01*
X131561106Y-113378009D01*
X131638268Y-113529448D01*
X131755352Y-113690600D01*
X131896203Y-113831451D01*
X132057355Y-113948535D01*
X132122314Y-113981633D01*
X132209343Y-114025977D01*
X132260139Y-114073952D01*
X132276934Y-114141773D01*
X132254397Y-114207908D01*
X132209344Y-114246946D01*
X132057614Y-114324257D01*
X132019756Y-114351762D01*
X132019756Y-114351763D01*
X132583046Y-114915053D01*
X132523768Y-114930937D01*
X132407474Y-114998080D01*
X132312519Y-115093035D01*
X132245376Y-115209329D01*
X132229492Y-115268607D01*
X131666202Y-114705317D01*
X131666201Y-114705317D01*
X131638696Y-114743175D01*
X131561385Y-114894905D01*
X131513411Y-114945700D01*
X131445590Y-114962495D01*
X131379455Y-114939957D01*
X131340416Y-114894904D01*
X131263107Y-114743178D01*
X131262974Y-114742916D01*
X131145890Y-114581764D01*
X131005039Y-114440913D01*
X130843887Y-114323829D01*
X130692448Y-114246667D01*
X130641652Y-114198692D01*
X130624857Y-114130871D01*
X130647394Y-114064736D01*
X130692448Y-114025697D01*
X130701737Y-114020963D01*
X130843887Y-113948535D01*
X131005039Y-113831451D01*
X131145890Y-113690600D01*
X131262974Y-113529448D01*
X131340136Y-113378009D01*
X131388111Y-113327213D01*
X131455932Y-113310418D01*
X131522067Y-113332955D01*
G37*
%TD.AperFunction*%
%TA.AperFunction,Conductor*%
G36*
X131235038Y-103407045D02*
G01*
X131235039Y-103407045D01*
X131262545Y-103369187D01*
X131339855Y-103217459D01*
X131387829Y-103166663D01*
X131455650Y-103149868D01*
X131521785Y-103172405D01*
X131560825Y-103217459D01*
X131638135Y-103369187D01*
X131638268Y-103369448D01*
X131755352Y-103530600D01*
X131896203Y-103671451D01*
X132057355Y-103788535D01*
X132127074Y-103824059D01*
X132208793Y-103865697D01*
X132259589Y-103913672D01*
X132276384Y-103981493D01*
X132253846Y-104047628D01*
X132208793Y-104086667D01*
X132057354Y-104163829D01*
X132003907Y-104202661D01*
X131896203Y-104280913D01*
X131896201Y-104280915D01*
X131896200Y-104280915D01*
X131755354Y-104421761D01*
X131755354Y-104421762D01*
X131755352Y-104421764D01*
X131731628Y-104454417D01*
X131638268Y-104582915D01*
X131561106Y-104734354D01*
X131513131Y-104785150D01*
X131445310Y-104801945D01*
X131379175Y-104779407D01*
X131340136Y-104734354D01*
X131262973Y-104582915D01*
X131239059Y-104550000D01*
X131145890Y-104421764D01*
X131005039Y-104280913D01*
X130843887Y-104163829D01*
X130816744Y-104149999D01*
X130691898Y-104086386D01*
X130641102Y-104038411D01*
X130624307Y-103970590D01*
X130646845Y-103904455D01*
X130691898Y-103865416D01*
X130843626Y-103788106D01*
X130881484Y-103760600D01*
X130881484Y-103760599D01*
X130318195Y-103197310D01*
X130377474Y-103181427D01*
X130493768Y-103114284D01*
X130588723Y-103019329D01*
X130655866Y-102903035D01*
X130671749Y-102843756D01*
X131235038Y-103407045D01*
G37*
%TD.AperFunction*%
%TA.AperFunction,Conductor*%
G36*
X131522067Y-100632955D02*
G01*
X131561106Y-100678009D01*
X131638268Y-100829448D01*
X131755352Y-100990600D01*
X131896203Y-101131451D01*
X132057355Y-101248535D01*
X132127074Y-101284059D01*
X132208793Y-101325697D01*
X132259589Y-101373672D01*
X132276384Y-101441493D01*
X132253846Y-101507628D01*
X132208793Y-101546667D01*
X132057354Y-101623829D01*
X132018907Y-101651763D01*
X131896203Y-101740913D01*
X131896201Y-101740915D01*
X131896200Y-101740915D01*
X131755354Y-101881761D01*
X131755354Y-101881762D01*
X131755352Y-101881764D01*
X131720176Y-101930179D01*
X131638266Y-102042917D01*
X131560824Y-102194905D01*
X131512850Y-102245700D01*
X131445029Y-102262495D01*
X131378894Y-102239957D01*
X131339855Y-102194904D01*
X131262545Y-102043176D01*
X131235038Y-102005317D01*
X131235038Y-102005316D01*
X130671749Y-102568606D01*
X130655866Y-102509329D01*
X130588723Y-102393035D01*
X130493768Y-102298080D01*
X130377474Y-102230937D01*
X130318195Y-102215053D01*
X130881485Y-101651763D01*
X130881484Y-101651762D01*
X130843629Y-101624259D01*
X130691898Y-101546947D01*
X130641102Y-101498972D01*
X130624307Y-101431151D01*
X130646845Y-101365016D01*
X130691898Y-101325977D01*
X130692999Y-101325416D01*
X130843887Y-101248535D01*
X131005039Y-101131451D01*
X131145890Y-100990600D01*
X131262974Y-100829448D01*
X131340136Y-100678009D01*
X131388111Y-100627213D01*
X131455932Y-100610418D01*
X131522067Y-100632955D01*
G37*
%TD.AperFunction*%
%TA.AperFunction,Conductor*%
G36*
X71285376Y-100363035D02*
G01*
X71352519Y-100479329D01*
X71447474Y-100574284D01*
X71563768Y-100641427D01*
X71623046Y-100657310D01*
X71059755Y-101220599D01*
X71097615Y-101248106D01*
X71249343Y-101325416D01*
X71300139Y-101373391D01*
X71316934Y-101441212D01*
X71294397Y-101507347D01*
X71249344Y-101546385D01*
X71097356Y-101623827D01*
X70984618Y-101705737D01*
X70936203Y-101740913D01*
X70936201Y-101740915D01*
X70936200Y-101740915D01*
X70795354Y-101881761D01*
X70795354Y-101881762D01*
X70795352Y-101881764D01*
X70745068Y-101950972D01*
X70678268Y-102042915D01*
X70601106Y-102194354D01*
X70553131Y-102245150D01*
X70485310Y-102261945D01*
X70419175Y-102239407D01*
X70380136Y-102194354D01*
X70303104Y-102043172D01*
X70302974Y-102042916D01*
X70185890Y-101881764D01*
X70045039Y-101740913D01*
X69883887Y-101623829D01*
X69840405Y-101601674D01*
X69732448Y-101546667D01*
X69681652Y-101498692D01*
X69664857Y-101430871D01*
X69687394Y-101364736D01*
X69732448Y-101325697D01*
X69743433Y-101320100D01*
X69883887Y-101248535D01*
X70045039Y-101131451D01*
X70185890Y-100990600D01*
X70302974Y-100829448D01*
X70380416Y-100677458D01*
X70428390Y-100626663D01*
X70496211Y-100609868D01*
X70562346Y-100632405D01*
X70601386Y-100677459D01*
X70678698Y-100829190D01*
X70706201Y-100867045D01*
X70706202Y-100867046D01*
X71269492Y-100303756D01*
X71285376Y-100363035D01*
G37*
%TD.AperFunction*%
%TA.AperFunction,Conductor*%
G36*
X70562067Y-98092955D02*
G01*
X70601106Y-98138009D01*
X70637346Y-98209134D01*
X70678268Y-98289448D01*
X70795352Y-98450600D01*
X70936203Y-98591451D01*
X71097355Y-98708535D01*
X71187530Y-98754481D01*
X71249343Y-98785977D01*
X71300139Y-98833952D01*
X71316934Y-98901773D01*
X71294397Y-98967908D01*
X71249344Y-99006946D01*
X71097614Y-99084257D01*
X71059756Y-99111762D01*
X71059756Y-99111763D01*
X71623046Y-99675053D01*
X71563768Y-99690937D01*
X71447474Y-99758080D01*
X71352519Y-99853035D01*
X71285376Y-99969329D01*
X71269492Y-100028607D01*
X70706202Y-99465317D01*
X70706201Y-99465317D01*
X70678696Y-99503175D01*
X70601385Y-99654905D01*
X70553411Y-99705700D01*
X70485590Y-99722495D01*
X70419455Y-99699957D01*
X70380416Y-99654904D01*
X70303106Y-99503176D01*
X70302974Y-99502916D01*
X70185890Y-99341764D01*
X70045039Y-99200913D01*
X69883887Y-99083829D01*
X69732448Y-99006667D01*
X69681652Y-98958692D01*
X69664857Y-98890871D01*
X69687394Y-98824736D01*
X69732448Y-98785697D01*
X69741737Y-98780963D01*
X69883887Y-98708535D01*
X70045039Y-98591451D01*
X70185890Y-98450600D01*
X70302974Y-98289448D01*
X70380136Y-98138009D01*
X70428111Y-98087213D01*
X70495932Y-98070418D01*
X70562067Y-98092955D01*
G37*
%TD.AperFunction*%
%TA.AperFunction,Conductor*%
G36*
X161131511Y-63277773D02*
G01*
X161210503Y-63414590D01*
X161322214Y-63526301D01*
X161459031Y-63605293D01*
X161479562Y-63610794D01*
X160893107Y-64197247D01*
X160893107Y-64197248D01*
X160956865Y-64243570D01*
X161153211Y-64343614D01*
X161362786Y-64411708D01*
X161546234Y-64440764D01*
X161609369Y-64470693D01*
X161646300Y-64530005D01*
X161645302Y-64599867D01*
X161614517Y-64650918D01*
X159546074Y-66719363D01*
X159484751Y-66752848D01*
X159458393Y-66755682D01*
X157039353Y-66755682D01*
X156972314Y-66735997D01*
X156926559Y-66683193D01*
X156916615Y-66614035D01*
X156945640Y-66550479D01*
X156951672Y-66544001D01*
X159012671Y-64483001D01*
X159073994Y-64449516D01*
X159100352Y-64446682D01*
X159260843Y-64446682D01*
X159260844Y-64446682D01*
X159478573Y-64412197D01*
X159688228Y-64344077D01*
X159884644Y-64243997D01*
X160062987Y-64114424D01*
X160218864Y-63958547D01*
X160320613Y-63818499D01*
X160375942Y-63775835D01*
X160445555Y-63769856D01*
X160507351Y-63802461D01*
X160521250Y-63818501D01*
X160539554Y-63843695D01*
X161126009Y-63257240D01*
X161131511Y-63277773D01*
G37*
%TD.AperFunction*%
%TA.AperFunction,Conductor*%
G36*
X244442539Y-50520185D02*
G01*
X244488294Y-50572989D01*
X244499500Y-50624500D01*
X244499500Y-159375500D01*
X244479815Y-159442539D01*
X244427011Y-159488294D01*
X244375500Y-159499500D01*
X55624500Y-159499500D01*
X55557461Y-159479815D01*
X55511706Y-159427011D01*
X55500500Y-159375500D01*
X55500500Y-149878711D01*
X58149500Y-149878711D01*
X58149500Y-150121288D01*
X58177263Y-150332179D01*
X58181162Y-150361789D01*
X58207620Y-150460529D01*
X58243947Y-150596104D01*
X58336773Y-150820205D01*
X58336777Y-150820214D01*
X58353974Y-150850000D01*
X58458064Y-151030289D01*
X58458066Y-151030292D01*
X58458067Y-151030293D01*
X58605733Y-151222736D01*
X58605739Y-151222743D01*
X58777256Y-151394260D01*
X58777262Y-151394265D01*
X58969711Y-151541936D01*
X59179788Y-151663224D01*
X59403900Y-151756054D01*
X59638211Y-151818838D01*
X59818586Y-151842584D01*
X59878711Y-151850500D01*
X59878712Y-151850500D01*
X60121289Y-151850500D01*
X60169388Y-151844167D01*
X60361789Y-151818838D01*
X60596100Y-151756054D01*
X60820212Y-151663224D01*
X61030289Y-151541936D01*
X61222738Y-151394265D01*
X61394265Y-151222738D01*
X61541936Y-151030289D01*
X61663224Y-150820212D01*
X61756054Y-150596100D01*
X61818838Y-150361789D01*
X61850500Y-150121288D01*
X61850500Y-149878712D01*
X61845773Y-149842810D01*
X61827966Y-149707546D01*
X61818838Y-149638211D01*
X61756054Y-149403900D01*
X61663224Y-149179788D01*
X61541936Y-148969711D01*
X61455205Y-148856681D01*
X61394266Y-148777263D01*
X61394260Y-148777256D01*
X61222743Y-148605739D01*
X61222736Y-148605733D01*
X61030293Y-148458067D01*
X61030292Y-148458066D01*
X61030289Y-148458064D01*
X60820212Y-148336776D01*
X60714530Y-148293001D01*
X60596104Y-148243947D01*
X60367730Y-148182754D01*
X60361789Y-148181162D01*
X60361788Y-148181161D01*
X60361785Y-148181161D01*
X60121289Y-148149500D01*
X60121288Y-148149500D01*
X59878712Y-148149500D01*
X59878711Y-148149500D01*
X59638214Y-148181161D01*
X59403895Y-148243947D01*
X59179794Y-148336773D01*
X59179785Y-148336777D01*
X58969706Y-148458067D01*
X58777263Y-148605733D01*
X58777256Y-148605739D01*
X58605739Y-148777256D01*
X58605733Y-148777263D01*
X58458067Y-148969706D01*
X58336777Y-149179785D01*
X58336773Y-149179794D01*
X58243947Y-149403895D01*
X58181161Y-149638214D01*
X58149500Y-149878711D01*
X55500500Y-149878711D01*
X55500500Y-141674541D01*
X64350120Y-141674541D01*
X64378961Y-141819528D01*
X64378964Y-141819538D01*
X64435535Y-141956112D01*
X64435537Y-141956116D01*
X64458911Y-141991098D01*
X64458910Y-141991098D01*
X64517667Y-142079035D01*
X64517673Y-142079042D01*
X66325726Y-143887093D01*
X66917048Y-144478415D01*
X66917049Y-144478416D01*
X66988608Y-144549975D01*
X67021585Y-144582952D01*
X67144498Y-144665080D01*
X67144511Y-144665087D01*
X67195575Y-144686238D01*
X67281087Y-144721658D01*
X67281091Y-144721658D01*
X67281092Y-144721659D01*
X67426079Y-144750500D01*
X67426082Y-144750500D01*
X76232209Y-144750500D01*
X76299248Y-144770185D01*
X76319890Y-144786819D01*
X80616025Y-149082954D01*
X80641390Y-149099901D01*
X80689709Y-149132186D01*
X80738944Y-149165084D01*
X80738945Y-149165084D01*
X80738946Y-149165085D01*
X80738948Y-149165086D01*
X80806322Y-149192993D01*
X80875526Y-149221658D01*
X80875530Y-149221658D01*
X80875531Y-149221659D01*
X81020518Y-149250500D01*
X81020521Y-149250500D01*
X81020522Y-149250500D01*
X81168356Y-149250500D01*
X81525501Y-149250500D01*
X81592540Y-149270185D01*
X81638295Y-149322989D01*
X81649501Y-149374500D01*
X81649501Y-149397876D01*
X81655908Y-149457483D01*
X81706202Y-149592328D01*
X81706206Y-149592335D01*
X81792452Y-149707544D01*
X81792455Y-149707547D01*
X81907664Y-149793793D01*
X81907671Y-149793797D01*
X82039082Y-149842810D01*
X82095016Y-149884681D01*
X82119433Y-149950145D01*
X82104582Y-150018418D01*
X82083431Y-150046673D01*
X81969889Y-150160215D01*
X81844951Y-150332179D01*
X81748444Y-150521585D01*
X81682753Y-150723760D01*
X81649500Y-150933713D01*
X81649500Y-151146292D01*
X81664616Y-151241728D01*
X81655662Y-151311021D01*
X81629824Y-151348807D01*
X80265451Y-152713181D01*
X80204128Y-152746666D01*
X80177770Y-152749500D01*
X72106048Y-152749500D01*
X72039009Y-152729815D01*
X72018367Y-152713181D01*
X70686819Y-151381633D01*
X70653334Y-151320310D01*
X70650500Y-151293952D01*
X70650500Y-150381648D01*
X71850000Y-150381648D01*
X71850000Y-150630715D01*
X71882508Y-150877645D01*
X71946973Y-151118231D01*
X72042283Y-151348330D01*
X72042288Y-151348341D01*
X72166813Y-151564023D01*
X72166819Y-151564031D01*
X72241400Y-151661227D01*
X73148958Y-150753669D01*
X73173978Y-150814072D01*
X73245112Y-150920533D01*
X73335649Y-151011070D01*
X73442110Y-151082204D01*
X73502511Y-151107223D01*
X72594953Y-152014780D01*
X72692150Y-152089362D01*
X72692158Y-152089368D01*
X72907840Y-152213893D01*
X72907851Y-152213898D01*
X73137950Y-152309208D01*
X73378536Y-152373673D01*
X73625466Y-152406182D01*
X73874534Y-152406182D01*
X74121463Y-152373673D01*
X74362049Y-152309208D01*
X74592148Y-152213898D01*
X74592159Y-152213893D01*
X74807855Y-152089360D01*
X74905045Y-152014782D01*
X74905045Y-152014779D01*
X73997488Y-151107223D01*
X74057890Y-151082204D01*
X74164351Y-151011070D01*
X74254888Y-150920533D01*
X74326022Y-150814072D01*
X74351041Y-150753670D01*
X75258597Y-151661227D01*
X75258600Y-151661227D01*
X75333178Y-151564037D01*
X75457711Y-151348341D01*
X75457716Y-151348330D01*
X75553026Y-151118231D01*
X75617491Y-150877645D01*
X75650000Y-150630715D01*
X75650000Y-150381648D01*
X75617491Y-150134718D01*
X75553026Y-149894132D01*
X75457716Y-149664033D01*
X75457711Y-149664022D01*
X75333186Y-149448340D01*
X75333180Y-149448332D01*
X75258598Y-149351135D01*
X74351041Y-150258692D01*
X74326022Y-150198292D01*
X74254888Y-150091831D01*
X74164351Y-150001294D01*
X74057890Y-149930160D01*
X73997487Y-149905139D01*
X74905045Y-148997582D01*
X74807849Y-148923001D01*
X74807841Y-148922995D01*
X74592159Y-148798470D01*
X74592148Y-148798465D01*
X74362049Y-148703155D01*
X74121463Y-148638690D01*
X73874534Y-148606182D01*
X73625466Y-148606182D01*
X73378536Y-148638690D01*
X73137950Y-148703155D01*
X72907851Y-148798465D01*
X72907847Y-148798467D01*
X72692143Y-148923005D01*
X72594953Y-148997581D01*
X72594953Y-148997582D01*
X73502511Y-149905140D01*
X73442110Y-149930160D01*
X73335649Y-150001294D01*
X73245112Y-150091831D01*
X73173978Y-150198292D01*
X73148958Y-150258693D01*
X72241400Y-149351135D01*
X72241399Y-149351135D01*
X72166823Y-149448325D01*
X72042285Y-149664029D01*
X72042283Y-149664033D01*
X71946973Y-149894132D01*
X71882508Y-150134718D01*
X71850000Y-150381648D01*
X70650500Y-150381648D01*
X70650500Y-149306179D01*
X70650499Y-149306166D01*
X70641865Y-149221656D01*
X70639999Y-149203385D01*
X70584814Y-149036848D01*
X70568109Y-149009766D01*
X70492713Y-148887530D01*
X70492710Y-148887526D01*
X70368655Y-148763471D01*
X70368651Y-148763468D01*
X70219337Y-148671369D01*
X70219335Y-148671368D01*
X70136065Y-148643775D01*
X70052797Y-148616183D01*
X70052795Y-148616182D01*
X69950015Y-148605682D01*
X69950008Y-148605682D01*
X67549992Y-148605682D01*
X67549984Y-148605682D01*
X67447204Y-148616182D01*
X67447203Y-148616183D01*
X67280664Y-148671368D01*
X67280662Y-148671369D01*
X67131348Y-148763468D01*
X67131344Y-148763471D01*
X67007289Y-148887526D01*
X67007286Y-148887530D01*
X66915187Y-149036844D01*
X66915186Y-149036846D01*
X66860001Y-149203385D01*
X66860000Y-149203386D01*
X66849500Y-149306166D01*
X66849500Y-151706197D01*
X66860000Y-151808977D01*
X66860001Y-151808978D01*
X66915186Y-151975517D01*
X66915187Y-151975519D01*
X67007286Y-152124833D01*
X67007289Y-152124837D01*
X67131344Y-152248892D01*
X67131348Y-152248895D01*
X67280662Y-152340994D01*
X67280664Y-152340995D01*
X67280666Y-152340996D01*
X67447203Y-152396181D01*
X67549992Y-152406682D01*
X69537770Y-152406682D01*
X69604809Y-152426367D01*
X69625451Y-152443001D01*
X71265404Y-154082954D01*
X71279439Y-154092331D01*
X71339088Y-154132186D01*
X71388323Y-154165084D01*
X71388324Y-154165084D01*
X71388325Y-154165085D01*
X71388327Y-154165086D01*
X71519364Y-154219363D01*
X71524905Y-154221658D01*
X71524909Y-154221658D01*
X71524910Y-154221659D01*
X71669897Y-154250500D01*
X71669900Y-154250500D01*
X80613920Y-154250500D01*
X80711462Y-154231096D01*
X80758913Y-154221658D01*
X80895495Y-154165084D01*
X80944729Y-154132186D01*
X80944734Y-154132183D01*
X80975860Y-154111386D01*
X81018416Y-154082952D01*
X82691193Y-152410172D01*
X82752514Y-152376689D01*
X82798265Y-152375382D01*
X82893713Y-152390500D01*
X82893715Y-152390500D01*
X83106286Y-152390500D01*
X83106287Y-152390500D01*
X83316243Y-152357246D01*
X83518412Y-152291557D01*
X83707816Y-152195051D01*
X83729789Y-152179086D01*
X83879786Y-152070109D01*
X83879788Y-152070106D01*
X83879792Y-152070104D01*
X84030104Y-151919792D01*
X84030106Y-151919788D01*
X84030109Y-151919786D01*
X84155048Y-151747820D01*
X84155047Y-151747820D01*
X84155051Y-151747816D01*
X84251557Y-151558412D01*
X84317246Y-151356243D01*
X84344481Y-151184284D01*
X84374410Y-151121152D01*
X84433721Y-151084220D01*
X84503584Y-151085218D01*
X84554635Y-151116003D01*
X85713181Y-152274548D01*
X85746666Y-152335871D01*
X85749500Y-152362229D01*
X85749500Y-155073918D01*
X85749500Y-155073920D01*
X85749499Y-155073920D01*
X85778340Y-155218907D01*
X85778342Y-155218913D01*
X85834916Y-155355494D01*
X85834918Y-155355498D01*
X85839043Y-155361671D01*
X85839045Y-155361678D01*
X85839047Y-155361677D01*
X85917051Y-155478420D01*
X85917052Y-155478421D01*
X88917049Y-158478416D01*
X89021584Y-158582951D01*
X89021587Y-158582953D01*
X89021588Y-158582954D01*
X89144503Y-158665083D01*
X89144506Y-158665085D01*
X89194665Y-158685861D01*
X89201080Y-158688518D01*
X89281088Y-158721659D01*
X89397241Y-158744763D01*
X89420380Y-158749365D01*
X89426081Y-158750500D01*
X89426082Y-158750500D01*
X105073920Y-158750500D01*
X105171462Y-158731096D01*
X105218913Y-158721658D01*
X105355495Y-158665084D01*
X105404729Y-158632186D01*
X105478416Y-158582952D01*
X107033573Y-157027795D01*
X107082807Y-156954108D01*
X107115705Y-156904874D01*
X107172279Y-156768292D01*
X107201121Y-156623297D01*
X107201121Y-154187220D01*
X107220806Y-154120181D01*
X107252235Y-154086902D01*
X107330413Y-154030104D01*
X107480725Y-153879792D01*
X107480727Y-153879788D01*
X107480730Y-153879786D01*
X107589707Y-153729789D01*
X107605672Y-153707816D01*
X107702178Y-153518412D01*
X107767867Y-153316243D01*
X107801121Y-153106287D01*
X107801121Y-152893713D01*
X107767867Y-152683757D01*
X107702178Y-152481588D01*
X107605672Y-152292184D01*
X107605670Y-152292181D01*
X107605669Y-152292179D01*
X107480730Y-152120213D01*
X107330407Y-151969890D01*
X107158441Y-151844951D01*
X106969035Y-151748444D01*
X106969034Y-151748443D01*
X106969033Y-151748443D01*
X106766864Y-151682754D01*
X106766862Y-151682753D01*
X106766861Y-151682753D01*
X106605578Y-151657208D01*
X106556908Y-151649500D01*
X106344334Y-151649500D01*
X106295663Y-151657208D01*
X106134381Y-151682753D01*
X105932206Y-151748444D01*
X105742800Y-151844951D01*
X105570834Y-151969890D01*
X105420511Y-152120213D01*
X105295570Y-152292182D01*
X105290823Y-152301499D01*
X105242848Y-152352293D01*
X105175026Y-152369087D01*
X105108892Y-152346548D01*
X105069855Y-152301495D01*
X105065243Y-152292444D01*
X104940348Y-152120540D01*
X104940344Y-152120535D01*
X104790085Y-151970276D01*
X104790080Y-151970272D01*
X104618178Y-151845379D01*
X104428836Y-151748903D01*
X104226745Y-151683241D01*
X104160621Y-151672768D01*
X104160621Y-152566988D01*
X104103614Y-152534075D01*
X103976447Y-152500000D01*
X103844795Y-152500000D01*
X103717628Y-152534075D01*
X103660621Y-152566988D01*
X103660621Y-151672768D01*
X103660620Y-151672768D01*
X103594496Y-151683241D01*
X103392405Y-151748903D01*
X103203063Y-151845379D01*
X103031161Y-151970272D01*
X103031156Y-151970276D01*
X102880897Y-152120535D01*
X102880893Y-152120540D01*
X102755998Y-152292444D01*
X102751105Y-152302048D01*
X102703130Y-152352844D01*
X102635309Y-152369638D01*
X102569174Y-152347100D01*
X102530137Y-152302048D01*
X102525243Y-152292444D01*
X102400348Y-152120540D01*
X102400344Y-152120535D01*
X102250085Y-151970276D01*
X102250080Y-151970272D01*
X102078178Y-151845379D01*
X101888836Y-151748903D01*
X101686745Y-151683241D01*
X101620621Y-151672768D01*
X101620621Y-152566988D01*
X101563614Y-152534075D01*
X101436447Y-152500000D01*
X101304795Y-152500000D01*
X101177628Y-152534075D01*
X101120621Y-152566988D01*
X101120621Y-151672768D01*
X101120620Y-151672768D01*
X101054496Y-151683241D01*
X100852405Y-151748903D01*
X100663063Y-151845379D01*
X100491161Y-151970272D01*
X100491156Y-151970276D01*
X100340897Y-152120535D01*
X100340893Y-152120540D01*
X100215999Y-152292443D01*
X100211383Y-152301502D01*
X100163405Y-152352295D01*
X100095584Y-152369087D01*
X100029450Y-152346546D01*
X99990415Y-152301493D01*
X99985672Y-152292184D01*
X99985670Y-152292181D01*
X99985669Y-152292179D01*
X99860730Y-152120213D01*
X99710407Y-151969890D01*
X99538441Y-151844951D01*
X99349035Y-151748444D01*
X99349034Y-151748443D01*
X99349033Y-151748443D01*
X99146864Y-151682754D01*
X99146862Y-151682753D01*
X99146861Y-151682753D01*
X98985578Y-151657208D01*
X98936908Y-151649500D01*
X98724334Y-151649500D01*
X98675663Y-151657208D01*
X98514381Y-151682753D01*
X98312206Y-151748444D01*
X98122800Y-151844951D01*
X97950834Y-151969890D01*
X97800511Y-152120213D01*
X97675570Y-152292182D01*
X97671105Y-152300946D01*
X97623130Y-152351742D01*
X97555309Y-152368536D01*
X97489174Y-152345998D01*
X97450137Y-152300946D01*
X97445671Y-152292182D01*
X97320730Y-152120213D01*
X97170407Y-151969890D01*
X96998441Y-151844951D01*
X96809035Y-151748444D01*
X96809034Y-151748443D01*
X96809033Y-151748443D01*
X96606864Y-151682754D01*
X96606862Y-151682753D01*
X96606861Y-151682753D01*
X96445578Y-151657208D01*
X96396908Y-151649500D01*
X96318032Y-151649500D01*
X96250993Y-151629815D01*
X96205238Y-151577011D01*
X96195294Y-151507853D01*
X96224319Y-151444297D01*
X96230351Y-151437819D01*
X98775169Y-148893000D01*
X98836492Y-148859515D01*
X98862850Y-148856681D01*
X99998492Y-148856681D01*
X99998493Y-148856681D01*
X100058104Y-148850273D01*
X100192952Y-148799978D01*
X100308167Y-148713728D01*
X100394417Y-148598513D01*
X100444712Y-148463665D01*
X100451121Y-148404055D01*
X100451121Y-148380682D01*
X100470806Y-148313643D01*
X100523610Y-148267888D01*
X100575121Y-148256682D01*
X111143952Y-148256682D01*
X111210991Y-148276367D01*
X111231633Y-148293001D01*
X113333663Y-150395030D01*
X115417048Y-152478415D01*
X115417049Y-152478416D01*
X115472708Y-152534075D01*
X115521585Y-152582952D01*
X115644498Y-152665080D01*
X115644511Y-152665087D01*
X115781082Y-152721656D01*
X115781087Y-152721658D01*
X115781091Y-152721658D01*
X115781092Y-152721659D01*
X115926079Y-152750500D01*
X115926082Y-152750500D01*
X129628920Y-152750500D01*
X129756634Y-152725095D01*
X129773913Y-152721658D01*
X129910495Y-152665084D01*
X129959729Y-152632186D01*
X130033416Y-152582952D01*
X131746194Y-150870172D01*
X131807515Y-150836689D01*
X131853265Y-150835382D01*
X131948713Y-150850500D01*
X131948715Y-150850500D01*
X132161286Y-150850500D01*
X132161287Y-150850500D01*
X132371243Y-150817246D01*
X132573412Y-150751557D01*
X132762816Y-150655051D01*
X132796312Y-150630715D01*
X132934786Y-150530109D01*
X132934788Y-150530106D01*
X132934792Y-150530104D01*
X133085104Y-150379792D01*
X133119693Y-150332184D01*
X133141903Y-150301615D01*
X133197233Y-150258949D01*
X133242221Y-150250500D01*
X137573920Y-150250500D01*
X137671462Y-150231096D01*
X137718913Y-150221658D01*
X137855495Y-150165084D01*
X137904729Y-150132186D01*
X137978416Y-150082952D01*
X142808440Y-145252926D01*
X142869763Y-145219442D01*
X142939455Y-145224426D01*
X142995388Y-145266298D01*
X143019805Y-145331762D01*
X143020121Y-145340608D01*
X143020121Y-148250100D01*
X143020121Y-148250102D01*
X143020120Y-148250102D01*
X143048961Y-148395089D01*
X143048964Y-148395099D01*
X143105535Y-148531674D01*
X143138433Y-148580909D01*
X143138434Y-148580912D01*
X143187667Y-148654596D01*
X143187673Y-148654603D01*
X150017670Y-155484598D01*
X150122205Y-155589133D01*
X150122208Y-155589135D01*
X150122209Y-155589136D01*
X150245120Y-155671263D01*
X150245125Y-155671266D01*
X150295333Y-155692063D01*
X150295338Y-155692064D01*
X150301701Y-155694700D01*
X150381709Y-155727841D01*
X150495625Y-155750500D01*
X150512889Y-155753934D01*
X150526702Y-155756682D01*
X150526703Y-155756682D01*
X157174541Y-155756682D01*
X157272083Y-155737278D01*
X157319534Y-155727840D01*
X157456116Y-155671266D01*
X157505350Y-155638368D01*
X157514603Y-155632186D01*
X157529692Y-155622103D01*
X157579037Y-155589134D01*
X160183573Y-152984598D01*
X160232807Y-152910911D01*
X160265705Y-152861677D01*
X160322279Y-152725095D01*
X160340760Y-152632186D01*
X160351121Y-152580102D01*
X160351121Y-149878711D01*
X233149500Y-149878711D01*
X233149500Y-150121288D01*
X233177263Y-150332179D01*
X233181162Y-150361789D01*
X233207620Y-150460529D01*
X233243947Y-150596104D01*
X233336773Y-150820205D01*
X233336777Y-150820214D01*
X233353974Y-150850000D01*
X233458064Y-151030289D01*
X233458066Y-151030292D01*
X233458067Y-151030293D01*
X233605733Y-151222736D01*
X233605739Y-151222743D01*
X233777256Y-151394260D01*
X233777262Y-151394265D01*
X233969711Y-151541936D01*
X234179788Y-151663224D01*
X234403900Y-151756054D01*
X234638211Y-151818838D01*
X234818586Y-151842584D01*
X234878711Y-151850500D01*
X234878712Y-151850500D01*
X235121289Y-151850500D01*
X235169388Y-151844167D01*
X235361789Y-151818838D01*
X235596100Y-151756054D01*
X235820212Y-151663224D01*
X236030289Y-151541936D01*
X236222738Y-151394265D01*
X236394265Y-151222738D01*
X236541936Y-151030289D01*
X236663224Y-150820212D01*
X236756054Y-150596100D01*
X236818838Y-150361789D01*
X236850500Y-150121288D01*
X236850500Y-149878712D01*
X236845773Y-149842810D01*
X236827966Y-149707546D01*
X236818838Y-149638211D01*
X236756054Y-149403900D01*
X236663224Y-149179788D01*
X236541936Y-148969711D01*
X236455205Y-148856681D01*
X236394266Y-148777263D01*
X236394260Y-148777256D01*
X236222743Y-148605739D01*
X236222736Y-148605733D01*
X236030293Y-148458067D01*
X236030292Y-148458066D01*
X236030289Y-148458064D01*
X235820212Y-148336776D01*
X235714530Y-148293001D01*
X235596104Y-148243947D01*
X235367730Y-148182754D01*
X235361789Y-148181162D01*
X235361788Y-148181161D01*
X235361785Y-148181161D01*
X235121289Y-148149500D01*
X235121288Y-148149500D01*
X234878712Y-148149500D01*
X234878711Y-148149500D01*
X234638214Y-148181161D01*
X234403895Y-148243947D01*
X234179794Y-148336773D01*
X234179785Y-148336777D01*
X233969706Y-148458067D01*
X233777263Y-148605733D01*
X233777256Y-148605739D01*
X233605739Y-148777256D01*
X233605733Y-148777263D01*
X233458067Y-148969706D01*
X233336777Y-149179785D01*
X233336773Y-149179794D01*
X233243947Y-149403895D01*
X233181161Y-149638214D01*
X233149500Y-149878711D01*
X160351121Y-149878711D01*
X160351121Y-146426079D01*
X160322280Y-146281092D01*
X160322279Y-146281091D01*
X160322279Y-146281087D01*
X160293822Y-146212386D01*
X160265708Y-146144511D01*
X160265701Y-146144498D01*
X160183573Y-146021585D01*
X160183572Y-146021584D01*
X160079037Y-145917049D01*
X156387440Y-142225451D01*
X156353955Y-142164128D01*
X156351121Y-142137770D01*
X156351121Y-139431598D01*
X156370806Y-139364559D01*
X156402234Y-139331281D01*
X156447840Y-139298148D01*
X156592587Y-139153401D01*
X156592589Y-139153397D01*
X156592592Y-139153395D01*
X156677616Y-139036367D01*
X156712908Y-138987792D01*
X156805841Y-138805401D01*
X156869098Y-138610716D01*
X156901121Y-138408534D01*
X156901121Y-138203830D01*
X156869098Y-138001648D01*
X156858762Y-137969838D01*
X156836294Y-137900687D01*
X156805841Y-137806963D01*
X156805839Y-137806960D01*
X156805839Y-137806958D01*
X156769682Y-137735997D01*
X156712908Y-137624572D01*
X156697173Y-137602915D01*
X156592592Y-137458968D01*
X156447834Y-137314210D01*
X156282234Y-137193897D01*
X156282233Y-137193896D01*
X156282231Y-137193895D01*
X156225274Y-137164873D01*
X156099844Y-137100963D01*
X155905155Y-137037704D01*
X155730616Y-137010060D01*
X155702973Y-137005682D01*
X155498269Y-137005682D01*
X155473950Y-137009533D01*
X155296086Y-137037704D01*
X155101397Y-137100963D01*
X154919007Y-137193897D01*
X154753407Y-137314210D01*
X154608649Y-137458968D01*
X154488334Y-137624570D01*
X154456028Y-137687976D01*
X154408054Y-137738773D01*
X154345543Y-137755682D01*
X152826039Y-137755682D01*
X152759000Y-137735997D01*
X152725721Y-137704567D01*
X152692592Y-137658969D01*
X152692588Y-137658964D01*
X152547834Y-137514210D01*
X152382234Y-137393897D01*
X152382233Y-137393896D01*
X152382231Y-137393895D01*
X152325274Y-137364873D01*
X152199844Y-137300963D01*
X152005155Y-137237704D01*
X151830616Y-137210060D01*
X151802973Y-137205682D01*
X151598269Y-137205682D01*
X151573950Y-137209533D01*
X151396086Y-137237704D01*
X151201397Y-137300963D01*
X151019007Y-137393897D01*
X150853407Y-137514210D01*
X150708649Y-137658968D01*
X150588336Y-137824568D01*
X150495402Y-138006958D01*
X150432143Y-138201647D01*
X150400121Y-138403830D01*
X150400121Y-138608533D01*
X150432143Y-138810716D01*
X150495402Y-139005405D01*
X150538813Y-139090602D01*
X150587705Y-139186558D01*
X150588336Y-139187795D01*
X150708649Y-139353395D01*
X150853407Y-139498153D01*
X151008370Y-139610738D01*
X151019011Y-139618469D01*
X151103751Y-139661646D01*
X151201397Y-139711400D01*
X151201399Y-139711400D01*
X151201402Y-139711402D01*
X151305758Y-139745309D01*
X151396086Y-139774659D01*
X151497178Y-139790670D01*
X151598269Y-139806682D01*
X151598270Y-139806682D01*
X151802972Y-139806682D01*
X151802973Y-139806682D01*
X152005155Y-139774659D01*
X152199840Y-139711402D01*
X152382231Y-139618469D01*
X152501684Y-139531682D01*
X152547834Y-139498153D01*
X152547836Y-139498150D01*
X152547840Y-139498148D01*
X152692587Y-139353401D01*
X152706922Y-139333671D01*
X152725721Y-139307797D01*
X152781050Y-139265131D01*
X152826039Y-139256682D01*
X154660574Y-139256682D01*
X154682847Y-139263222D01*
X154705972Y-139265291D01*
X154719025Y-139273845D01*
X154727613Y-139276367D01*
X154736642Y-139282755D01*
X154742766Y-139287512D01*
X154753402Y-139298148D01*
X154800638Y-139332466D01*
X154802189Y-139333671D01*
X154821508Y-139360460D01*
X154841671Y-139386607D01*
X154842131Y-139389058D01*
X154843057Y-139390342D01*
X154843330Y-139395442D01*
X154850121Y-139431598D01*
X154850121Y-142573918D01*
X154850121Y-142573920D01*
X154850120Y-142573920D01*
X154878961Y-142718907D01*
X154878964Y-142718917D01*
X154935535Y-142855491D01*
X154935537Y-142855495D01*
X154955756Y-142885756D01*
X154965732Y-142900686D01*
X155017670Y-142978418D01*
X155017673Y-142978421D01*
X158813802Y-146774548D01*
X158847287Y-146835871D01*
X158850121Y-146862229D01*
X158850121Y-152143952D01*
X158830436Y-152210991D01*
X158813802Y-152231633D01*
X156826072Y-154219363D01*
X156764749Y-154252848D01*
X156738391Y-154255682D01*
X150962850Y-154255682D01*
X150895811Y-154235997D01*
X150875169Y-154219363D01*
X144557440Y-147901633D01*
X144523955Y-147840310D01*
X144521121Y-147813952D01*
X144521121Y-144443402D01*
X144540806Y-144376363D01*
X144572235Y-144343084D01*
X144650413Y-144286286D01*
X144800725Y-144135974D01*
X144800727Y-144135970D01*
X144800730Y-144135968D01*
X144925669Y-143964002D01*
X144925672Y-143963998D01*
X144930414Y-143954690D01*
X144978384Y-143903893D01*
X145046204Y-143887093D01*
X145112340Y-143909627D01*
X145151384Y-143954682D01*
X145155998Y-143963737D01*
X145280893Y-144135641D01*
X145280897Y-144135646D01*
X145431156Y-144285905D01*
X145431161Y-144285909D01*
X145603063Y-144410802D01*
X145792403Y-144507277D01*
X145994492Y-144572939D01*
X146060621Y-144583413D01*
X146060621Y-143689194D01*
X146117628Y-143722107D01*
X146244795Y-143756182D01*
X146376447Y-143756182D01*
X146503614Y-143722107D01*
X146560621Y-143689194D01*
X146560621Y-144583412D01*
X146626747Y-144572939D01*
X146626750Y-144572939D01*
X146828838Y-144507277D01*
X147018178Y-144410802D01*
X147190079Y-144285910D01*
X147303754Y-144172235D01*
X147365077Y-144138750D01*
X147434769Y-144143734D01*
X147490703Y-144185605D01*
X147507618Y-144216583D01*
X147556823Y-144348510D01*
X147556827Y-144348517D01*
X147643073Y-144463726D01*
X147643076Y-144463729D01*
X147758285Y-144549975D01*
X147758292Y-144549979D01*
X147893138Y-144600273D01*
X147893137Y-144600273D01*
X147900065Y-144601017D01*
X147952748Y-144606682D01*
X149748493Y-144606681D01*
X149808104Y-144600273D01*
X149942952Y-144549978D01*
X150058167Y-144463728D01*
X150144417Y-144348513D01*
X150194712Y-144213665D01*
X150201121Y-144154055D01*
X150201121Y-143617412D01*
X150220806Y-143550373D01*
X150273610Y-143504618D01*
X150342768Y-143494674D01*
X150406324Y-143523699D01*
X150412802Y-143529731D01*
X154813802Y-147930731D01*
X154847287Y-147992054D01*
X154850121Y-148018412D01*
X154850121Y-149880764D01*
X154830436Y-149947803D01*
X154799006Y-149981082D01*
X154753408Y-150014210D01*
X154753403Y-150014214D01*
X154608649Y-150158968D01*
X154488336Y-150324568D01*
X154395402Y-150506958D01*
X154332143Y-150701647D01*
X154304781Y-150874410D01*
X154300121Y-150903830D01*
X154300121Y-151108534D01*
X154304499Y-151136177D01*
X154332143Y-151310716D01*
X154395402Y-151505405D01*
X154431888Y-151577011D01*
X154486015Y-151683241D01*
X154488336Y-151687795D01*
X154608649Y-151853395D01*
X154753407Y-151998153D01*
X154896503Y-152102116D01*
X154919011Y-152118469D01*
X155035228Y-152177685D01*
X155101397Y-152211400D01*
X155101399Y-152211400D01*
X155101402Y-152211402D01*
X155163667Y-152231633D01*
X155296086Y-152274659D01*
X155397178Y-152290670D01*
X155498269Y-152306682D01*
X155498270Y-152306682D01*
X155702972Y-152306682D01*
X155702973Y-152306682D01*
X155905155Y-152274659D01*
X156099840Y-152211402D01*
X156282231Y-152118469D01*
X156386771Y-152042517D01*
X156447834Y-151998153D01*
X156447836Y-151998150D01*
X156447840Y-151998148D01*
X156592587Y-151853401D01*
X156592589Y-151853397D01*
X156592592Y-151853395D01*
X156663313Y-151756054D01*
X156712908Y-151687792D01*
X156805841Y-151505401D01*
X156869098Y-151310716D01*
X156901121Y-151108534D01*
X156901121Y-150903830D01*
X156887407Y-150817246D01*
X156869098Y-150701647D01*
X156826388Y-150570201D01*
X156805841Y-150506963D01*
X156805839Y-150506960D01*
X156805839Y-150506958D01*
X156748808Y-150395030D01*
X156712908Y-150324572D01*
X156696229Y-150301615D01*
X156592592Y-150158968D01*
X156447838Y-150014214D01*
X156447833Y-150014210D01*
X156402236Y-149981082D01*
X156359570Y-149925753D01*
X156351121Y-149880764D01*
X156351121Y-147582261D01*
X156322280Y-147437274D01*
X156322279Y-147437273D01*
X156322279Y-147437269D01*
X156265705Y-147300687D01*
X156202574Y-147206204D01*
X156183573Y-147177766D01*
X153632734Y-144626927D01*
X151079042Y-142073234D01*
X151079039Y-142073231D01*
X151001742Y-142021584D01*
X150976362Y-142004626D01*
X150956116Y-141991098D01*
X150956113Y-141991096D01*
X150956112Y-141991096D01*
X150819538Y-141934525D01*
X150819528Y-141934522D01*
X150674541Y-141905682D01*
X150674539Y-141905682D01*
X149725121Y-141905682D01*
X149658082Y-141885997D01*
X149612327Y-141833193D01*
X149601121Y-141781682D01*
X149601121Y-138182261D01*
X149572280Y-138037274D01*
X149572279Y-138037273D01*
X149572279Y-138037269D01*
X149544350Y-137969843D01*
X149515706Y-137900689D01*
X149463092Y-137821945D01*
X149453081Y-137806963D01*
X149453080Y-137806960D01*
X149433577Y-137777771D01*
X149433571Y-137777764D01*
X146387440Y-134731633D01*
X146353955Y-134670310D01*
X146351121Y-134643952D01*
X146351121Y-127432261D01*
X146322280Y-127287274D01*
X146322279Y-127287273D01*
X146322279Y-127287269D01*
X146319998Y-127281761D01*
X146265708Y-127150693D01*
X146265701Y-127150680D01*
X146183573Y-127027767D01*
X146151438Y-126995632D01*
X146079037Y-126923231D01*
X139887440Y-120731633D01*
X139853955Y-120670310D01*
X139851121Y-120643952D01*
X139851121Y-90432263D01*
X139845384Y-90403424D01*
X139845384Y-90403422D01*
X139822281Y-90287277D01*
X139822280Y-90287270D01*
X139768029Y-90156299D01*
X139766385Y-90151704D01*
X139683575Y-90027770D01*
X139683574Y-90027769D01*
X139683572Y-90027766D01*
X139579037Y-89923231D01*
X139579036Y-89923230D01*
X138840328Y-89184522D01*
X136579042Y-86923234D01*
X136579041Y-86923233D01*
X136486913Y-86861676D01*
X136456116Y-86841098D01*
X136456109Y-86841094D01*
X136319538Y-86784525D01*
X136319528Y-86784522D01*
X136174541Y-86755682D01*
X136174539Y-86755682D01*
X126674538Y-86755682D01*
X126526703Y-86755682D01*
X126526701Y-86755682D01*
X126381713Y-86784522D01*
X126381703Y-86784525D01*
X126245132Y-86841094D01*
X126245119Y-86841101D01*
X126122205Y-86923230D01*
X126122201Y-86923233D01*
X124517671Y-88527762D01*
X124517665Y-88527770D01*
X124468433Y-88601450D01*
X124468434Y-88601451D01*
X124435542Y-88650678D01*
X124435535Y-88650690D01*
X124378963Y-88787268D01*
X124378961Y-88787274D01*
X124350121Y-88932261D01*
X124350121Y-88932264D01*
X124350121Y-95080100D01*
X124350121Y-95080102D01*
X124350120Y-95080102D01*
X124378961Y-95225089D01*
X124378964Y-95225099D01*
X124435535Y-95361674D01*
X124435536Y-95361676D01*
X124435537Y-95361677D01*
X124465773Y-95406929D01*
X124468433Y-95410909D01*
X124468434Y-95410912D01*
X124517667Y-95484596D01*
X124517673Y-95484603D01*
X127137670Y-98104598D01*
X127242205Y-98209133D01*
X127242208Y-98209135D01*
X127242209Y-98209136D01*
X127365124Y-98291265D01*
X127365127Y-98291267D01*
X127415286Y-98312043D01*
X127421701Y-98314700D01*
X127501709Y-98347841D01*
X127617862Y-98370945D01*
X127641001Y-98375547D01*
X127646702Y-98376682D01*
X127646703Y-98376682D01*
X127646704Y-98376682D01*
X127794539Y-98376682D01*
X129098466Y-98376682D01*
X129165505Y-98396367D01*
X129198783Y-98427795D01*
X129215352Y-98450600D01*
X129356203Y-98591451D01*
X129517355Y-98708535D01*
X129587074Y-98744059D01*
X129668793Y-98785697D01*
X129719589Y-98833672D01*
X129736384Y-98901493D01*
X129713846Y-98967628D01*
X129668793Y-99006667D01*
X129517354Y-99083829D01*
X129478907Y-99111763D01*
X129356203Y-99200913D01*
X129356201Y-99200915D01*
X129356200Y-99200915D01*
X129215354Y-99341761D01*
X129215354Y-99341762D01*
X129215352Y-99341764D01*
X129165068Y-99410972D01*
X129098268Y-99502915D01*
X129007834Y-99680401D01*
X128946282Y-99869838D01*
X128946282Y-99869841D01*
X128915121Y-100066585D01*
X128915121Y-100265778D01*
X128946282Y-100462522D01*
X128946282Y-100462525D01*
X129007834Y-100651962D01*
X129021106Y-100678009D01*
X129098268Y-100829448D01*
X129215352Y-100990600D01*
X129356203Y-101131451D01*
X129517355Y-101248535D01*
X129607530Y-101294481D01*
X129669343Y-101325977D01*
X129720139Y-101373952D01*
X129736934Y-101441773D01*
X129714397Y-101507908D01*
X129669344Y-101546946D01*
X129517614Y-101624257D01*
X129479756Y-101651762D01*
X129479756Y-101651763D01*
X130043046Y-102215053D01*
X129983768Y-102230937D01*
X129867474Y-102298080D01*
X129772519Y-102393035D01*
X129705376Y-102509329D01*
X129689492Y-102568607D01*
X129126202Y-102005317D01*
X129126201Y-102005317D01*
X129098698Y-102043172D01*
X129008300Y-102220587D01*
X128946768Y-102409959D01*
X128915621Y-102606618D01*
X128915621Y-102805745D01*
X128946768Y-103002404D01*
X129008300Y-103191776D01*
X129098698Y-103369190D01*
X129126201Y-103407045D01*
X129126202Y-103407046D01*
X129689492Y-102843756D01*
X129705376Y-102903035D01*
X129772519Y-103019329D01*
X129867474Y-103114284D01*
X129983768Y-103181427D01*
X130043046Y-103197310D01*
X129479755Y-103760599D01*
X129517615Y-103788106D01*
X129669343Y-103865416D01*
X129720139Y-103913391D01*
X129736934Y-103981212D01*
X129714397Y-104047347D01*
X129669344Y-104086385D01*
X129517356Y-104163827D01*
X129463907Y-104202661D01*
X129356203Y-104280913D01*
X129356201Y-104280915D01*
X129356200Y-104280915D01*
X129215354Y-104421761D01*
X129215354Y-104421762D01*
X129215352Y-104421764D01*
X129191628Y-104454417D01*
X129098268Y-104582915D01*
X129007834Y-104760401D01*
X128946282Y-104949838D01*
X128946282Y-104949841D01*
X128915121Y-105146585D01*
X128915121Y-105159952D01*
X128895436Y-105226991D01*
X128842632Y-105272746D01*
X128773474Y-105282690D01*
X128709918Y-105253665D01*
X128703440Y-105247633D01*
X123887440Y-100431633D01*
X123853955Y-100370310D01*
X123851121Y-100343952D01*
X123851121Y-86868412D01*
X123870806Y-86801373D01*
X123887440Y-86780731D01*
X127875170Y-82793001D01*
X127936493Y-82759516D01*
X127962851Y-82756682D01*
X145638391Y-82756682D01*
X145705430Y-82776367D01*
X145726072Y-82793001D01*
X157313802Y-94380730D01*
X157347287Y-94442053D01*
X157350121Y-94468411D01*
X157350121Y-133080100D01*
X157350121Y-133080102D01*
X157350120Y-133080102D01*
X157378961Y-133225089D01*
X157378964Y-133225099D01*
X157404099Y-133285779D01*
X157435537Y-133361677D01*
X157454962Y-133390749D01*
X157464546Y-133405093D01*
X157517670Y-133484600D01*
X157517673Y-133484603D01*
X160203490Y-136170418D01*
X161017669Y-136984597D01*
X161017670Y-136984598D01*
X161070776Y-137037704D01*
X161122206Y-137089134D01*
X161245119Y-137171262D01*
X161245132Y-137171269D01*
X161381703Y-137227838D01*
X161381708Y-137227840D01*
X161381712Y-137227840D01*
X161381713Y-137227841D01*
X161526700Y-137256682D01*
X161526703Y-137256682D01*
X197924541Y-137256682D01*
X198022083Y-137237278D01*
X198069534Y-137227840D01*
X198206116Y-137171266D01*
X198255350Y-137138368D01*
X198329037Y-137089134D01*
X203780040Y-131638129D01*
X205600621Y-131638129D01*
X205600621Y-131874234D01*
X205637555Y-132107429D01*
X205710518Y-132331984D01*
X205817708Y-132542356D01*
X205877959Y-132625286D01*
X205877961Y-132625287D01*
X206576833Y-131926415D01*
X206588103Y-131968474D01*
X206660511Y-132093890D01*
X206762913Y-132196292D01*
X206888329Y-132268700D01*
X206930386Y-132279969D01*
X206231514Y-132978840D01*
X206314449Y-133039096D01*
X206524818Y-133146284D01*
X206749373Y-133219247D01*
X206749372Y-133219247D01*
X206982569Y-133256182D01*
X207218673Y-133256182D01*
X207451868Y-133219247D01*
X207676423Y-133146284D01*
X207886784Y-133039100D01*
X207886790Y-133039096D01*
X207969725Y-132978840D01*
X207969726Y-132978840D01*
X207270854Y-132279969D01*
X207312913Y-132268700D01*
X207438329Y-132196292D01*
X207540731Y-132093890D01*
X207613139Y-131968474D01*
X207624408Y-131926415D01*
X208323279Y-132625287D01*
X208323279Y-132625286D01*
X208383535Y-132542351D01*
X208383539Y-132542345D01*
X208490723Y-132331984D01*
X208563686Y-132107429D01*
X208600621Y-131874234D01*
X208600621Y-131638129D01*
X212100621Y-131638129D01*
X212100621Y-131874234D01*
X212137555Y-132107429D01*
X212210518Y-132331984D01*
X212317708Y-132542356D01*
X212377959Y-132625286D01*
X212377961Y-132625287D01*
X213076833Y-131926415D01*
X213088103Y-131968474D01*
X213160511Y-132093890D01*
X213262913Y-132196292D01*
X213388329Y-132268700D01*
X213430386Y-132279969D01*
X212731514Y-132978840D01*
X212814449Y-133039096D01*
X213024818Y-133146284D01*
X213249373Y-133219247D01*
X213249372Y-133219247D01*
X213482569Y-133256182D01*
X213718673Y-133256182D01*
X213951868Y-133219247D01*
X214176423Y-133146284D01*
X214386784Y-133039100D01*
X214386790Y-133039096D01*
X214469725Y-132978840D01*
X214469726Y-132978840D01*
X213770854Y-132279969D01*
X213812913Y-132268700D01*
X213938329Y-132196292D01*
X214040731Y-132093890D01*
X214113139Y-131968474D01*
X214124408Y-131926415D01*
X214823279Y-132625287D01*
X214823279Y-132625286D01*
X214883535Y-132542351D01*
X214883539Y-132542345D01*
X214990723Y-132331984D01*
X215063686Y-132107429D01*
X215100621Y-131874234D01*
X215100621Y-131638129D01*
X215063686Y-131404934D01*
X214990723Y-131180379D01*
X214883535Y-130970010D01*
X214823279Y-130887076D01*
X214823279Y-130887075D01*
X214124408Y-131585947D01*
X214113139Y-131543890D01*
X214040731Y-131418474D01*
X213938329Y-131316072D01*
X213812913Y-131243664D01*
X213770855Y-131232394D01*
X214469726Y-130533522D01*
X214469725Y-130533520D01*
X214386795Y-130473269D01*
X214176423Y-130366079D01*
X213951868Y-130293116D01*
X213951869Y-130293116D01*
X213718673Y-130256182D01*
X213482569Y-130256182D01*
X213249373Y-130293116D01*
X213024818Y-130366079D01*
X212814451Y-130473266D01*
X212731515Y-130533522D01*
X213430387Y-131232394D01*
X213388329Y-131243664D01*
X213262913Y-131316072D01*
X213160511Y-131418474D01*
X213088103Y-131543890D01*
X213076833Y-131585948D01*
X212377961Y-130887076D01*
X212317705Y-130970012D01*
X212210518Y-131180379D01*
X212137555Y-131404934D01*
X212100621Y-131638129D01*
X208600621Y-131638129D01*
X208563686Y-131404934D01*
X208490723Y-131180379D01*
X208383535Y-130970010D01*
X208323279Y-130887076D01*
X208323279Y-130887075D01*
X207624408Y-131585947D01*
X207613139Y-131543890D01*
X207540731Y-131418474D01*
X207438329Y-131316072D01*
X207312913Y-131243664D01*
X207270855Y-131232394D01*
X207969726Y-130533522D01*
X207969725Y-130533521D01*
X207886795Y-130473269D01*
X207676423Y-130366079D01*
X207451868Y-130293116D01*
X207451869Y-130293116D01*
X207218673Y-130256182D01*
X206982569Y-130256182D01*
X206749373Y-130293116D01*
X206524818Y-130366079D01*
X206314451Y-130473266D01*
X206231515Y-130533522D01*
X206930387Y-131232394D01*
X206888329Y-131243664D01*
X206762913Y-131316072D01*
X206660511Y-131418474D01*
X206588103Y-131543890D01*
X206576833Y-131585947D01*
X205877961Y-130887076D01*
X205817705Y-130970012D01*
X205710518Y-131180379D01*
X205637555Y-131404934D01*
X205600621Y-131638129D01*
X203780040Y-131638129D01*
X206660708Y-128757460D01*
X206722029Y-128723977D01*
X206767784Y-128722670D01*
X206803410Y-128728312D01*
X206982524Y-128756682D01*
X206982529Y-128756682D01*
X207218718Y-128756682D01*
X207451989Y-128719735D01*
X207490346Y-128707272D01*
X207676613Y-128646750D01*
X207887054Y-128539525D01*
X208078131Y-128400699D01*
X208245138Y-128233692D01*
X208372934Y-128057795D01*
X208428264Y-128015131D01*
X208473252Y-128006682D01*
X212227990Y-128006682D01*
X212295029Y-128026367D01*
X212328306Y-128057795D01*
X212456104Y-128233692D01*
X212623111Y-128400699D01*
X212814188Y-128539525D01*
X212835567Y-128550418D01*
X213024624Y-128646748D01*
X213024626Y-128646748D01*
X213024629Y-128646750D01*
X213145033Y-128685871D01*
X213249252Y-128719735D01*
X213482524Y-128756682D01*
X213482529Y-128756682D01*
X213718718Y-128756682D01*
X213951989Y-128719735D01*
X213990346Y-128707272D01*
X214176613Y-128646750D01*
X214387054Y-128539525D01*
X214578131Y-128400699D01*
X214745138Y-128233692D01*
X214883964Y-128042615D01*
X214991189Y-127832174D01*
X215064174Y-127607550D01*
X215067110Y-127589015D01*
X215101121Y-127374279D01*
X215101121Y-127138084D01*
X215064174Y-126904813D01*
X214991187Y-126680185D01*
X214915401Y-126531448D01*
X214883964Y-126469749D01*
X214745138Y-126278672D01*
X214578131Y-126111665D01*
X214387054Y-125972839D01*
X214176617Y-125865615D01*
X213951989Y-125792628D01*
X213718718Y-125755682D01*
X213718713Y-125755682D01*
X213482529Y-125755682D01*
X213482524Y-125755682D01*
X213249252Y-125792628D01*
X213024624Y-125865615D01*
X212814187Y-125972839D01*
X212705285Y-126051962D01*
X212623111Y-126111665D01*
X212623109Y-126111667D01*
X212623108Y-126111667D01*
X212456106Y-126278669D01*
X212456106Y-126278670D01*
X212456104Y-126278672D01*
X212328308Y-126454568D01*
X212272978Y-126497233D01*
X212227990Y-126505682D01*
X208473252Y-126505682D01*
X208406213Y-126485997D01*
X208372934Y-126454568D01*
X208245138Y-126278672D01*
X208078131Y-126111665D01*
X207887054Y-125972839D01*
X207676617Y-125865615D01*
X207451989Y-125792628D01*
X207218718Y-125755682D01*
X207218713Y-125755682D01*
X206982529Y-125755682D01*
X206982524Y-125755682D01*
X206749252Y-125792628D01*
X206524624Y-125865615D01*
X206314187Y-125972839D01*
X206205285Y-126051962D01*
X206123111Y-126111665D01*
X206123109Y-126111667D01*
X206123108Y-126111667D01*
X205956106Y-126278669D01*
X205956106Y-126278670D01*
X205956104Y-126278672D01*
X205942790Y-126296997D01*
X205817278Y-126469748D01*
X205710054Y-126680185D01*
X205637067Y-126904813D01*
X205600121Y-127138084D01*
X205600121Y-127374279D01*
X205634132Y-127589015D01*
X205625177Y-127658308D01*
X205599340Y-127696094D01*
X197576072Y-135719363D01*
X197514749Y-135752848D01*
X197488391Y-135755682D01*
X161962850Y-135755682D01*
X161895811Y-135735997D01*
X161875169Y-135719363D01*
X158887440Y-132731633D01*
X158853955Y-132670310D01*
X158851121Y-132643952D01*
X158851121Y-94032261D01*
X158822279Y-93887269D01*
X158822277Y-93887264D01*
X158765708Y-93750693D01*
X158765701Y-93750680D01*
X158683573Y-93627767D01*
X158635906Y-93580100D01*
X158579037Y-93523231D01*
X155712488Y-90656682D01*
X146479042Y-81423234D01*
X146479035Y-81423228D01*
X146405350Y-81373994D01*
X146405350Y-81373995D01*
X146356112Y-81341095D01*
X146219538Y-81284525D01*
X146219528Y-81284522D01*
X146074541Y-81255682D01*
X146074539Y-81255682D01*
X127711850Y-81255682D01*
X127644811Y-81235997D01*
X127599056Y-81183193D01*
X127589112Y-81114035D01*
X127618137Y-81050479D01*
X127624169Y-81044001D01*
X128375170Y-80293001D01*
X128436493Y-80259516D01*
X128462851Y-80256682D01*
X146738391Y-80256682D01*
X146805430Y-80276367D01*
X146826072Y-80293001D01*
X159403803Y-92870732D01*
X159437288Y-92932055D01*
X159440122Y-92958413D01*
X159440122Y-132580100D01*
X159440122Y-132580102D01*
X159440121Y-132580102D01*
X159468962Y-132725089D01*
X159468965Y-132725099D01*
X159525536Y-132861674D01*
X159558434Y-132910909D01*
X159558435Y-132910912D01*
X159607668Y-132984596D01*
X159607674Y-132984603D01*
X161607671Y-134984598D01*
X161684168Y-135061095D01*
X161712206Y-135089133D01*
X161835120Y-135171262D01*
X161835133Y-135171269D01*
X161971704Y-135227838D01*
X161971709Y-135227840D01*
X161971713Y-135227840D01*
X161971714Y-135227841D01*
X162116701Y-135256682D01*
X162116704Y-135256682D01*
X188174541Y-135256682D01*
X188272083Y-135237278D01*
X188319534Y-135227840D01*
X188456116Y-135171266D01*
X188505350Y-135138368D01*
X188579037Y-135089134D01*
X190247474Y-133420697D01*
X190824272Y-132843900D01*
X191183568Y-132484603D01*
X191183573Y-132484598D01*
X191201883Y-132457193D01*
X191239238Y-132401289D01*
X191239240Y-132401284D01*
X191239246Y-132401276D01*
X191265705Y-132361677D01*
X191322279Y-132225095D01*
X191351121Y-132080100D01*
X191351121Y-131638129D01*
X191850621Y-131638129D01*
X191850621Y-131874234D01*
X191887555Y-132107429D01*
X191960518Y-132331984D01*
X192067708Y-132542356D01*
X192127959Y-132625286D01*
X192127961Y-132625287D01*
X192826833Y-131926415D01*
X192838103Y-131968474D01*
X192910511Y-132093890D01*
X193012913Y-132196292D01*
X193138329Y-132268700D01*
X193180386Y-132279969D01*
X192481514Y-132978840D01*
X192564449Y-133039096D01*
X192774818Y-133146284D01*
X192999373Y-133219247D01*
X192999372Y-133219247D01*
X193232569Y-133256182D01*
X193468673Y-133256182D01*
X193701868Y-133219247D01*
X193926423Y-133146284D01*
X194136784Y-133039100D01*
X194136790Y-133039096D01*
X194219725Y-132978840D01*
X194219726Y-132978840D01*
X193520854Y-132279969D01*
X193562913Y-132268700D01*
X193688329Y-132196292D01*
X193790731Y-132093890D01*
X193863139Y-131968474D01*
X193874408Y-131926416D01*
X194573279Y-132625287D01*
X194573279Y-132625286D01*
X194633535Y-132542351D01*
X194633539Y-132542345D01*
X194740723Y-132331984D01*
X194813686Y-132107429D01*
X194850621Y-131874234D01*
X194850621Y-131638129D01*
X194813686Y-131404934D01*
X194740723Y-131180379D01*
X194633535Y-130970010D01*
X194573279Y-130887076D01*
X194573279Y-130887075D01*
X193874408Y-131585947D01*
X193863139Y-131543890D01*
X193790731Y-131418474D01*
X193688329Y-131316072D01*
X193562913Y-131243664D01*
X193520855Y-131232394D01*
X194219726Y-130533522D01*
X194219725Y-130533520D01*
X194136795Y-130473269D01*
X193926423Y-130366079D01*
X193701868Y-130293116D01*
X193701869Y-130293116D01*
X193468673Y-130256182D01*
X193232569Y-130256182D01*
X192999373Y-130293116D01*
X192774818Y-130366079D01*
X192564451Y-130473266D01*
X192481515Y-130533522D01*
X193180387Y-131232394D01*
X193138329Y-131243664D01*
X193012913Y-131316072D01*
X192910511Y-131418474D01*
X192838103Y-131543890D01*
X192826833Y-131585947D01*
X192127961Y-130887076D01*
X192067705Y-130970012D01*
X191960518Y-131180379D01*
X191887555Y-131404934D01*
X191850621Y-131638129D01*
X191351121Y-131638129D01*
X191351121Y-128430682D01*
X191370806Y-128363643D01*
X191423610Y-128317888D01*
X191475121Y-128306682D01*
X192227732Y-128306682D01*
X192294771Y-128326367D01*
X192315413Y-128343001D01*
X192373111Y-128400699D01*
X192564188Y-128539525D01*
X192585567Y-128550418D01*
X192774624Y-128646748D01*
X192774626Y-128646748D01*
X192774629Y-128646750D01*
X192895033Y-128685871D01*
X192999252Y-128719735D01*
X193232524Y-128756682D01*
X193232529Y-128756682D01*
X193468718Y-128756682D01*
X193701989Y-128719735D01*
X193740346Y-128707272D01*
X193926613Y-128646750D01*
X194137054Y-128539525D01*
X194328131Y-128400699D01*
X194495138Y-128233692D01*
X194633964Y-128042615D01*
X194741189Y-127832174D01*
X194814174Y-127607550D01*
X194817110Y-127589015D01*
X194851121Y-127374279D01*
X194851121Y-127138084D01*
X194814174Y-126904813D01*
X194741187Y-126680185D01*
X194665401Y-126531448D01*
X194633964Y-126469749D01*
X194495138Y-126278672D01*
X194328131Y-126111665D01*
X194137054Y-125972839D01*
X193926617Y-125865615D01*
X193701989Y-125792628D01*
X193468718Y-125755682D01*
X193468713Y-125755682D01*
X193232529Y-125755682D01*
X193232524Y-125755682D01*
X192999252Y-125792628D01*
X192774624Y-125865615D01*
X192564187Y-125972839D01*
X192455285Y-126051962D01*
X192373111Y-126111665D01*
X192373109Y-126111667D01*
X192373108Y-126111667D01*
X192206106Y-126278669D01*
X192206106Y-126278670D01*
X192206104Y-126278672D01*
X192192790Y-126296997D01*
X192067278Y-126469748D01*
X191960054Y-126680185D01*
X191947118Y-126720001D01*
X191907680Y-126777676D01*
X191843321Y-126804874D01*
X191829187Y-126805682D01*
X188372055Y-126805682D01*
X188305016Y-126785997D01*
X188259261Y-126733193D01*
X188254124Y-126720001D01*
X188241187Y-126680185D01*
X188165401Y-126531448D01*
X188133964Y-126469749D01*
X187995138Y-126278672D01*
X187828131Y-126111665D01*
X187637054Y-125972839D01*
X187426617Y-125865615D01*
X187201989Y-125792628D01*
X186968718Y-125755682D01*
X186968713Y-125755682D01*
X186732529Y-125755682D01*
X186732524Y-125755682D01*
X186499252Y-125792628D01*
X186274624Y-125865615D01*
X186064187Y-125972839D01*
X185955285Y-126051962D01*
X185873111Y-126111665D01*
X185873109Y-126111667D01*
X185873108Y-126111667D01*
X185706106Y-126278669D01*
X185706106Y-126278670D01*
X185706104Y-126278672D01*
X185692790Y-126296997D01*
X185567278Y-126469748D01*
X185460054Y-126680185D01*
X185387067Y-126904813D01*
X185350121Y-127138084D01*
X185350121Y-127374279D01*
X185387067Y-127607550D01*
X185460054Y-127832178D01*
X185548920Y-128006585D01*
X185567278Y-128042615D01*
X185706104Y-128233692D01*
X185873111Y-128400699D01*
X186064188Y-128539525D01*
X186085567Y-128550418D01*
X186274624Y-128646748D01*
X186274626Y-128646748D01*
X186274629Y-128646750D01*
X186395033Y-128685871D01*
X186499252Y-128719735D01*
X186732524Y-128756682D01*
X186732529Y-128756682D01*
X186968718Y-128756682D01*
X187201989Y-128719735D01*
X187240346Y-128707272D01*
X187426613Y-128646750D01*
X187637054Y-128539525D01*
X187828131Y-128400699D01*
X187885829Y-128343001D01*
X187947152Y-128309516D01*
X187973510Y-128306682D01*
X189726121Y-128306682D01*
X189793160Y-128326367D01*
X189838915Y-128379171D01*
X189850121Y-128430682D01*
X189850121Y-131643952D01*
X189830436Y-131710991D01*
X189813802Y-131731633D01*
X187826072Y-133719363D01*
X187764749Y-133752848D01*
X187738391Y-133755682D01*
X162552851Y-133755682D01*
X162485812Y-133735997D01*
X162465170Y-133719363D01*
X161765069Y-133019262D01*
X161656719Y-132910912D01*
X160977441Y-132231633D01*
X160943956Y-132170310D01*
X160941122Y-132143952D01*
X160941122Y-131638129D01*
X165350621Y-131638129D01*
X165350621Y-131874234D01*
X165387555Y-132107429D01*
X165460518Y-132331984D01*
X165567708Y-132542356D01*
X165627959Y-132625286D01*
X165627961Y-132625287D01*
X166326833Y-131926415D01*
X166338103Y-131968474D01*
X166410511Y-132093890D01*
X166512913Y-132196292D01*
X166638329Y-132268700D01*
X166680386Y-132279969D01*
X165981514Y-132978840D01*
X166064449Y-133039096D01*
X166274818Y-133146284D01*
X166499373Y-133219247D01*
X166499372Y-133219247D01*
X166732569Y-133256182D01*
X166968673Y-133256182D01*
X167201868Y-133219247D01*
X167426423Y-133146284D01*
X167636784Y-133039100D01*
X167636790Y-133039096D01*
X167719725Y-132978840D01*
X167719726Y-132978840D01*
X167020854Y-132279969D01*
X167062913Y-132268700D01*
X167188329Y-132196292D01*
X167290731Y-132093890D01*
X167363139Y-131968474D01*
X167374408Y-131926416D01*
X168073279Y-132625287D01*
X168073279Y-132625286D01*
X168133535Y-132542351D01*
X168133539Y-132542345D01*
X168240723Y-132331984D01*
X168313686Y-132107429D01*
X168350621Y-131874234D01*
X168350621Y-131638129D01*
X171850621Y-131638129D01*
X171850621Y-131874234D01*
X171887555Y-132107429D01*
X171960518Y-132331984D01*
X172067708Y-132542356D01*
X172127959Y-132625286D01*
X172127961Y-132625287D01*
X172826833Y-131926415D01*
X172838103Y-131968474D01*
X172910511Y-132093890D01*
X173012913Y-132196292D01*
X173138329Y-132268700D01*
X173180386Y-132279969D01*
X172481514Y-132978840D01*
X172564449Y-133039096D01*
X172774818Y-133146284D01*
X172999373Y-133219247D01*
X172999372Y-133219247D01*
X173232569Y-133256182D01*
X173468673Y-133256182D01*
X173701868Y-133219247D01*
X173926423Y-133146284D01*
X174136784Y-133039100D01*
X174136790Y-133039096D01*
X174219725Y-132978840D01*
X174219726Y-132978840D01*
X173520854Y-132279969D01*
X173562913Y-132268700D01*
X173688329Y-132196292D01*
X173790731Y-132093890D01*
X173863139Y-131968474D01*
X173874408Y-131926416D01*
X174573279Y-132625287D01*
X174573279Y-132625286D01*
X174633535Y-132542351D01*
X174633539Y-132542345D01*
X174740723Y-132331984D01*
X174813686Y-132107429D01*
X174850621Y-131874234D01*
X174850621Y-131638129D01*
X185350621Y-131638129D01*
X185350621Y-131874234D01*
X185387555Y-132107429D01*
X185460518Y-132331984D01*
X185567708Y-132542356D01*
X185627959Y-132625286D01*
X185627961Y-132625287D01*
X186326833Y-131926415D01*
X186338103Y-131968474D01*
X186410511Y-132093890D01*
X186512913Y-132196292D01*
X186638329Y-132268700D01*
X186680386Y-132279969D01*
X185981514Y-132978840D01*
X186064449Y-133039096D01*
X186274818Y-133146284D01*
X186499373Y-133219247D01*
X186499372Y-133219247D01*
X186732569Y-133256182D01*
X186968673Y-133256182D01*
X187201868Y-133219247D01*
X187426423Y-133146284D01*
X187636784Y-133039100D01*
X187636790Y-133039096D01*
X187719725Y-132978840D01*
X187719726Y-132978840D01*
X187020854Y-132279969D01*
X187062913Y-132268700D01*
X187188329Y-132196292D01*
X187290731Y-132093890D01*
X187363139Y-131968474D01*
X187374408Y-131926415D01*
X188073279Y-132625287D01*
X188073279Y-132625286D01*
X188133535Y-132542351D01*
X188133539Y-132542345D01*
X188240723Y-132331984D01*
X188313686Y-132107429D01*
X188350621Y-131874234D01*
X188350621Y-131638129D01*
X188313686Y-131404934D01*
X188240723Y-131180379D01*
X188133535Y-130970010D01*
X188073279Y-130887076D01*
X188073279Y-130887075D01*
X187374408Y-131585947D01*
X187363139Y-131543890D01*
X187290731Y-131418474D01*
X187188329Y-131316072D01*
X187062913Y-131243664D01*
X187020855Y-131232394D01*
X187719726Y-130533522D01*
X187719725Y-130533520D01*
X187636795Y-130473269D01*
X187426423Y-130366079D01*
X187201868Y-130293116D01*
X187201869Y-130293116D01*
X186968673Y-130256182D01*
X186732569Y-130256182D01*
X186499373Y-130293116D01*
X186274818Y-130366079D01*
X186064451Y-130473266D01*
X185981515Y-130533522D01*
X186680387Y-131232394D01*
X186638329Y-131243664D01*
X186512913Y-131316072D01*
X186410511Y-131418474D01*
X186338103Y-131543890D01*
X186326833Y-131585948D01*
X185627961Y-130887076D01*
X185567705Y-130970012D01*
X185460518Y-131180379D01*
X185387555Y-131404934D01*
X185350621Y-131638129D01*
X174850621Y-131638129D01*
X174813686Y-131404934D01*
X174740723Y-131180379D01*
X174633535Y-130970010D01*
X174573279Y-130887076D01*
X174573279Y-130887075D01*
X173874408Y-131585947D01*
X173863139Y-131543890D01*
X173790731Y-131418474D01*
X173688329Y-131316072D01*
X173562913Y-131243664D01*
X173520855Y-131232394D01*
X174219726Y-130533522D01*
X174219725Y-130533521D01*
X174136795Y-130473269D01*
X173926423Y-130366079D01*
X173701868Y-130293116D01*
X173701869Y-130293116D01*
X173468673Y-130256182D01*
X173232569Y-130256182D01*
X172999373Y-130293116D01*
X172774818Y-130366079D01*
X172564451Y-130473266D01*
X172481515Y-130533522D01*
X173180387Y-131232394D01*
X173138329Y-131243664D01*
X173012913Y-131316072D01*
X172910511Y-131418474D01*
X172838103Y-131543890D01*
X172826833Y-131585947D01*
X172127961Y-130887076D01*
X172067705Y-130970012D01*
X171960518Y-131180379D01*
X171887555Y-131404934D01*
X171850621Y-131638129D01*
X168350621Y-131638129D01*
X168313686Y-131404934D01*
X168240723Y-131180379D01*
X168133535Y-130970010D01*
X168073279Y-130887076D01*
X168073279Y-130887075D01*
X167374408Y-131585947D01*
X167363139Y-131543890D01*
X167290731Y-131418474D01*
X167188329Y-131316072D01*
X167062913Y-131243664D01*
X167020855Y-131232394D01*
X167719726Y-130533522D01*
X167719725Y-130533521D01*
X167636795Y-130473269D01*
X167426423Y-130366079D01*
X167201868Y-130293116D01*
X167201869Y-130293116D01*
X166968673Y-130256182D01*
X166732569Y-130256182D01*
X166499373Y-130293116D01*
X166274818Y-130366079D01*
X166064451Y-130473266D01*
X165981515Y-130533522D01*
X166680387Y-131232394D01*
X166638329Y-131243664D01*
X166512913Y-131316072D01*
X166410511Y-131418474D01*
X166338103Y-131543890D01*
X166326833Y-131585948D01*
X165627961Y-130887076D01*
X165567705Y-130970012D01*
X165460518Y-131180379D01*
X165387555Y-131404934D01*
X165350621Y-131638129D01*
X160941122Y-131638129D01*
X160941122Y-92522262D01*
X160912281Y-92377275D01*
X160912280Y-92377274D01*
X160912280Y-92377270D01*
X160855706Y-92240688D01*
X160809320Y-92171266D01*
X160809319Y-92171264D01*
X160809318Y-92171262D01*
X160773577Y-92117772D01*
X160773574Y-92117767D01*
X147874170Y-79218363D01*
X147840685Y-79157040D01*
X147845669Y-79087348D01*
X147887541Y-79031415D01*
X147953005Y-79006998D01*
X147961851Y-79006682D01*
X148488391Y-79006682D01*
X148555430Y-79026367D01*
X148576072Y-79043001D01*
X161563802Y-92030730D01*
X161597287Y-92092053D01*
X161600121Y-92118411D01*
X161600121Y-122830100D01*
X161600121Y-122830102D01*
X161600120Y-122830102D01*
X161628961Y-122975089D01*
X161628964Y-122975099D01*
X161685534Y-123111672D01*
X161685536Y-123111675D01*
X161685537Y-123111677D01*
X161694958Y-123125776D01*
X161694959Y-123125779D01*
X161694960Y-123125779D01*
X161767672Y-123234602D01*
X161767673Y-123234603D01*
X165349340Y-126816269D01*
X165382825Y-126877592D01*
X165384132Y-126923348D01*
X165350121Y-127138084D01*
X165350121Y-127374279D01*
X165387067Y-127607550D01*
X165460054Y-127832178D01*
X165548920Y-128006585D01*
X165567278Y-128042615D01*
X165706104Y-128233692D01*
X165873111Y-128400699D01*
X166064188Y-128539525D01*
X166085567Y-128550418D01*
X166274624Y-128646748D01*
X166274626Y-128646748D01*
X166274629Y-128646750D01*
X166395033Y-128685871D01*
X166499252Y-128719735D01*
X166732524Y-128756682D01*
X166732529Y-128756682D01*
X166968718Y-128756682D01*
X167201989Y-128719735D01*
X167240346Y-128707272D01*
X167426613Y-128646750D01*
X167637054Y-128539525D01*
X167828131Y-128400699D01*
X167995138Y-128233692D01*
X168122934Y-128057795D01*
X168178264Y-128015131D01*
X168223252Y-128006682D01*
X171977990Y-128006682D01*
X172045029Y-128026367D01*
X172078306Y-128057795D01*
X172206104Y-128233692D01*
X172373111Y-128400699D01*
X172564188Y-128539525D01*
X172585567Y-128550418D01*
X172774624Y-128646748D01*
X172774626Y-128646748D01*
X172774629Y-128646750D01*
X172895033Y-128685871D01*
X172999252Y-128719735D01*
X173232524Y-128756682D01*
X173232529Y-128756682D01*
X173468718Y-128756682D01*
X173701989Y-128719735D01*
X173740346Y-128707272D01*
X173926613Y-128646750D01*
X174137054Y-128539525D01*
X174328131Y-128400699D01*
X174495138Y-128233692D01*
X174633964Y-128042615D01*
X174741189Y-127832174D01*
X174814174Y-127607550D01*
X174817110Y-127589015D01*
X174851121Y-127374279D01*
X174851121Y-127138084D01*
X174814174Y-126904813D01*
X174741187Y-126680185D01*
X174665401Y-126531448D01*
X174633964Y-126469749D01*
X174495138Y-126278672D01*
X174328131Y-126111665D01*
X174137054Y-125972839D01*
X173926617Y-125865615D01*
X173701989Y-125792628D01*
X173468718Y-125755682D01*
X173468713Y-125755682D01*
X173232529Y-125755682D01*
X173232524Y-125755682D01*
X172999252Y-125792628D01*
X172774624Y-125865615D01*
X172564187Y-125972839D01*
X172455285Y-126051962D01*
X172373111Y-126111665D01*
X172373109Y-126111667D01*
X172373108Y-126111667D01*
X172206106Y-126278669D01*
X172206106Y-126278670D01*
X172206104Y-126278672D01*
X172078308Y-126454568D01*
X172022978Y-126497233D01*
X171977990Y-126505682D01*
X168223252Y-126505682D01*
X168156213Y-126485997D01*
X168122934Y-126454568D01*
X167995138Y-126278672D01*
X167828131Y-126111665D01*
X167637054Y-125972839D01*
X167426617Y-125865615D01*
X167201989Y-125792628D01*
X166968718Y-125755682D01*
X166968713Y-125755682D01*
X166732529Y-125755682D01*
X166732524Y-125755682D01*
X166517787Y-125789693D01*
X166448493Y-125780738D01*
X166410708Y-125754901D01*
X163137440Y-122481633D01*
X163103955Y-122420310D01*
X163101121Y-122393952D01*
X163101121Y-91682261D01*
X163072280Y-91537274D01*
X163072279Y-91537273D01*
X163072279Y-91537269D01*
X163048972Y-91481000D01*
X163015708Y-91400693D01*
X163015701Y-91400680D01*
X162933573Y-91277767D01*
X162912488Y-91256682D01*
X162829037Y-91173231D01*
X159912488Y-88256682D01*
X149329042Y-77673234D01*
X149329035Y-77673228D01*
X149255350Y-77623994D01*
X149255350Y-77623995D01*
X149206112Y-77591095D01*
X149069538Y-77534525D01*
X149069528Y-77534522D01*
X148924541Y-77505682D01*
X148924539Y-77505682D01*
X126776703Y-77505682D01*
X126776701Y-77505682D01*
X126631713Y-77534522D01*
X126631703Y-77534525D01*
X126495129Y-77591095D01*
X126372205Y-77673230D01*
X126372205Y-77673231D01*
X118517671Y-85527762D01*
X118517665Y-85527770D01*
X118468433Y-85601450D01*
X118468434Y-85601451D01*
X118435542Y-85650678D01*
X118435535Y-85650690D01*
X118378963Y-85787268D01*
X118378961Y-85787274D01*
X118350121Y-85932261D01*
X118350121Y-85932264D01*
X118350121Y-101860100D01*
X118350121Y-101860102D01*
X118350120Y-101860102D01*
X118378961Y-102005089D01*
X118378964Y-102005099D01*
X118435535Y-102141674D01*
X118468433Y-102190909D01*
X118468434Y-102190912D01*
X118517667Y-102264596D01*
X118517673Y-102264603D01*
X128884737Y-112631665D01*
X128918222Y-112692988D01*
X128919530Y-112738741D01*
X128915121Y-112766582D01*
X128915121Y-112766585D01*
X128915121Y-112965779D01*
X128930701Y-113064150D01*
X128946282Y-113162522D01*
X128946282Y-113162525D01*
X129007834Y-113351962D01*
X129007836Y-113351965D01*
X129098268Y-113529448D01*
X129215352Y-113690600D01*
X129356203Y-113831451D01*
X129517355Y-113948535D01*
X129582314Y-113981633D01*
X129668793Y-114025697D01*
X129719589Y-114073672D01*
X129736384Y-114141493D01*
X129713846Y-114207628D01*
X129668793Y-114246667D01*
X129517354Y-114323829D01*
X129478907Y-114351763D01*
X129356203Y-114440913D01*
X129356201Y-114440915D01*
X129356200Y-114440915D01*
X129215351Y-114581764D01*
X129198783Y-114604569D01*
X129143452Y-114647234D01*
X129098466Y-114655682D01*
X120762851Y-114655682D01*
X120695812Y-114635997D01*
X120675170Y-114619363D01*
X115137440Y-109081633D01*
X115103955Y-109020310D01*
X115101121Y-108993952D01*
X115101121Y-77118412D01*
X115120806Y-77051373D01*
X115137440Y-77030731D01*
X118375170Y-73793001D01*
X118436493Y-73759516D01*
X118462851Y-73756682D01*
X174902043Y-73756682D01*
X174999585Y-73737278D01*
X175047036Y-73727840D01*
X175183618Y-73671266D01*
X175232852Y-73638368D01*
X175306539Y-73589134D01*
X184412671Y-64483000D01*
X184473994Y-64449516D01*
X184500352Y-64446682D01*
X184660843Y-64446682D01*
X184660844Y-64446682D01*
X184878573Y-64412197D01*
X185088228Y-64344077D01*
X185284644Y-64243997D01*
X185462987Y-64114424D01*
X185618864Y-63958547D01*
X185702308Y-63843696D01*
X185720304Y-63818927D01*
X185775633Y-63776261D01*
X185845247Y-63770282D01*
X185907042Y-63802887D01*
X185920940Y-63818927D01*
X186022374Y-63958540D01*
X186022378Y-63958545D01*
X186178258Y-64114425D01*
X186178263Y-64114429D01*
X186292254Y-64197247D01*
X186356600Y-64243997D01*
X186473123Y-64303369D01*
X186553015Y-64344077D01*
X186553018Y-64344078D01*
X186657843Y-64378137D01*
X186762671Y-64412197D01*
X186980400Y-64446682D01*
X186980401Y-64446682D01*
X187200843Y-64446682D01*
X187200844Y-64446682D01*
X187418573Y-64412197D01*
X187628228Y-64344077D01*
X187824644Y-64243997D01*
X188002987Y-64114424D01*
X188158864Y-63958547D01*
X188260613Y-63818499D01*
X188315942Y-63775835D01*
X188385555Y-63769856D01*
X188447351Y-63802461D01*
X188461250Y-63818501D01*
X188479554Y-63843695D01*
X189066009Y-63257240D01*
X189071511Y-63277773D01*
X189150503Y-63414590D01*
X189262214Y-63526301D01*
X189399031Y-63605293D01*
X189419561Y-63610794D01*
X188833107Y-64197247D01*
X188833107Y-64197248D01*
X188896865Y-64243570D01*
X189093211Y-64343614D01*
X189302786Y-64411708D01*
X189520441Y-64446182D01*
X189740803Y-64446182D01*
X189958457Y-64411708D01*
X190168032Y-64343614D01*
X190364382Y-64243568D01*
X190428135Y-64197248D01*
X190428136Y-64197248D01*
X189841681Y-63610794D01*
X189862213Y-63605293D01*
X189999030Y-63526301D01*
X190110741Y-63414590D01*
X190189733Y-63277773D01*
X190195234Y-63257242D01*
X190781688Y-63843696D01*
X190781688Y-63843695D01*
X190828008Y-63779942D01*
X190928054Y-63583592D01*
X190996148Y-63374017D01*
X191030622Y-63156363D01*
X191030622Y-62936000D01*
X190996148Y-62718346D01*
X190928054Y-62508771D01*
X190828010Y-62312425D01*
X190781688Y-62248667D01*
X190781687Y-62248667D01*
X190195234Y-62835121D01*
X190189733Y-62814591D01*
X190110741Y-62677774D01*
X189999030Y-62566063D01*
X189862213Y-62487071D01*
X189841679Y-62481569D01*
X190428135Y-61895114D01*
X190364378Y-61848793D01*
X190168032Y-61748749D01*
X189958457Y-61680655D01*
X189740803Y-61646182D01*
X189520441Y-61646182D01*
X189302786Y-61680655D01*
X189093211Y-61748749D01*
X188896855Y-61848798D01*
X188833107Y-61895113D01*
X188833107Y-61895114D01*
X189419562Y-62481569D01*
X189399031Y-62487071D01*
X189262214Y-62566063D01*
X189150503Y-62677774D01*
X189071511Y-62814591D01*
X189066009Y-62835122D01*
X188479554Y-62248667D01*
X188479552Y-62248667D01*
X188461248Y-62273861D01*
X188405918Y-62316527D01*
X188336305Y-62322506D01*
X188274510Y-62289900D01*
X188260612Y-62273861D01*
X188158869Y-62133822D01*
X188037441Y-62012394D01*
X188003956Y-61951071D01*
X188001122Y-61924713D01*
X188001122Y-59332262D01*
X187972281Y-59187275D01*
X187972280Y-59187274D01*
X187972280Y-59187270D01*
X187915706Y-59050688D01*
X187867031Y-58977840D01*
X187867031Y-58977839D01*
X187833572Y-58927764D01*
X186637441Y-57731633D01*
X186603956Y-57670310D01*
X186601122Y-57643952D01*
X186601122Y-56221599D01*
X186620807Y-56154560D01*
X186652235Y-56121282D01*
X186697841Y-56088149D01*
X186842588Y-55943402D01*
X186842590Y-55943398D01*
X186842593Y-55943396D01*
X186910799Y-55849517D01*
X186962909Y-55777793D01*
X187055842Y-55595402D01*
X187119099Y-55400717D01*
X187151122Y-55198535D01*
X187151122Y-54993831D01*
X187132888Y-54878711D01*
X233149500Y-54878711D01*
X233149500Y-55121288D01*
X233181161Y-55361785D01*
X233243947Y-55596104D01*
X233336773Y-55820205D01*
X233336776Y-55820212D01*
X233458064Y-56030289D01*
X233458066Y-56030292D01*
X233458067Y-56030293D01*
X233605733Y-56222736D01*
X233605739Y-56222743D01*
X233777256Y-56394260D01*
X233777262Y-56394265D01*
X233969711Y-56541936D01*
X234179788Y-56663224D01*
X234403900Y-56756054D01*
X234638211Y-56818838D01*
X234818586Y-56842584D01*
X234878711Y-56850500D01*
X234878712Y-56850500D01*
X235121289Y-56850500D01*
X235169388Y-56844167D01*
X235361789Y-56818838D01*
X235596100Y-56756054D01*
X235820212Y-56663224D01*
X236030289Y-56541936D01*
X236222738Y-56394265D01*
X236394265Y-56222738D01*
X236541936Y-56030289D01*
X236663224Y-55820212D01*
X236756054Y-55596100D01*
X236818838Y-55361789D01*
X236850500Y-55121288D01*
X236850500Y-54878712D01*
X236846955Y-54851788D01*
X236829671Y-54720497D01*
X236818838Y-54638211D01*
X236756054Y-54403900D01*
X236663224Y-54179788D01*
X236541936Y-53969711D01*
X236407343Y-53794306D01*
X236394266Y-53777263D01*
X236394260Y-53777256D01*
X236222743Y-53605739D01*
X236222736Y-53605733D01*
X236030293Y-53458067D01*
X236030292Y-53458066D01*
X236030289Y-53458064D01*
X235820212Y-53336776D01*
X235820205Y-53336773D01*
X235596104Y-53243947D01*
X235361785Y-53181161D01*
X235121289Y-53149500D01*
X235121288Y-53149500D01*
X234878712Y-53149500D01*
X234878711Y-53149500D01*
X234638214Y-53181161D01*
X234403895Y-53243947D01*
X234179794Y-53336773D01*
X234179785Y-53336777D01*
X233969706Y-53458067D01*
X233777263Y-53605733D01*
X233777256Y-53605739D01*
X233605739Y-53777256D01*
X233605733Y-53777263D01*
X233458067Y-53969706D01*
X233336777Y-54179785D01*
X233336773Y-54179794D01*
X233243947Y-54403895D01*
X233181161Y-54638214D01*
X233149500Y-54878711D01*
X187132888Y-54878711D01*
X187119099Y-54791649D01*
X187055842Y-54596964D01*
X187055840Y-54596961D01*
X187055840Y-54596959D01*
X186974324Y-54436977D01*
X186962909Y-54414573D01*
X186928171Y-54366760D01*
X186842593Y-54248969D01*
X186697835Y-54104211D01*
X186532235Y-53983898D01*
X186532234Y-53983897D01*
X186532232Y-53983896D01*
X186430893Y-53932261D01*
X186349845Y-53890964D01*
X186155156Y-53827705D01*
X185980617Y-53800061D01*
X185952974Y-53795683D01*
X185748270Y-53795683D01*
X185723951Y-53799534D01*
X185546087Y-53827705D01*
X185351398Y-53890964D01*
X185169008Y-53983898D01*
X185003408Y-54104211D01*
X184858650Y-54248969D01*
X184738337Y-54414569D01*
X184645403Y-54596959D01*
X184582144Y-54791648D01*
X184550122Y-54993831D01*
X184550122Y-55198534D01*
X184582144Y-55400717D01*
X184645403Y-55595406D01*
X184738337Y-55777796D01*
X184858650Y-55943396D01*
X184858656Y-55943402D01*
X185003403Y-56088149D01*
X185049006Y-56121281D01*
X185091672Y-56176608D01*
X185100122Y-56221599D01*
X185100122Y-58080101D01*
X185100122Y-58080103D01*
X185100121Y-58080103D01*
X185128962Y-58225090D01*
X185128965Y-58225100D01*
X185185536Y-58361675D01*
X185218434Y-58410910D01*
X185218435Y-58410913D01*
X185267668Y-58484597D01*
X185267674Y-58484604D01*
X186463803Y-59680732D01*
X186497288Y-59742055D01*
X186500122Y-59768413D01*
X186500122Y-61699250D01*
X186480437Y-61766289D01*
X186432418Y-61809734D01*
X186356598Y-61848367D01*
X186178263Y-61977934D01*
X186178258Y-61977938D01*
X186022378Y-62133818D01*
X186022374Y-62133823D01*
X185920940Y-62273436D01*
X185865610Y-62316102D01*
X185795997Y-62322081D01*
X185734202Y-62289475D01*
X185720304Y-62273436D01*
X185618869Y-62133823D01*
X185618865Y-62133818D01*
X185462985Y-61977938D01*
X185462980Y-61977934D01*
X185284647Y-61848369D01*
X185284646Y-61848368D01*
X185284644Y-61848367D01*
X185208823Y-61809734D01*
X185088228Y-61748286D01*
X185088225Y-61748285D01*
X184878574Y-61680167D01*
X184769708Y-61662924D01*
X184660844Y-61645682D01*
X184440400Y-61645682D01*
X184367823Y-61657177D01*
X184222669Y-61680167D01*
X184013018Y-61748285D01*
X184013015Y-61748286D01*
X183816596Y-61848369D01*
X183638263Y-61977934D01*
X183638258Y-61977938D01*
X183482378Y-62133818D01*
X183482374Y-62133823D01*
X183380940Y-62273436D01*
X183325610Y-62316102D01*
X183255997Y-62322081D01*
X183194202Y-62289475D01*
X183180304Y-62273436D01*
X183078869Y-62133823D01*
X183078865Y-62133818D01*
X182922985Y-61977938D01*
X182922980Y-61977934D01*
X182744647Y-61848369D01*
X182744646Y-61848368D01*
X182744644Y-61848367D01*
X182668823Y-61809734D01*
X182548228Y-61748286D01*
X182548225Y-61748285D01*
X182338574Y-61680167D01*
X182229708Y-61662924D01*
X182120844Y-61645682D01*
X181900400Y-61645682D01*
X181827823Y-61657177D01*
X181682669Y-61680167D01*
X181473018Y-61748285D01*
X181473015Y-61748286D01*
X181276596Y-61848369D01*
X181098263Y-61977934D01*
X181098258Y-61977938D01*
X180942378Y-62133818D01*
X180942374Y-62133823D01*
X180840940Y-62273436D01*
X180785610Y-62316102D01*
X180715997Y-62322081D01*
X180654202Y-62289475D01*
X180640304Y-62273436D01*
X180538869Y-62133823D01*
X180538865Y-62133818D01*
X180382985Y-61977938D01*
X180382980Y-61977934D01*
X180204647Y-61848369D01*
X180204646Y-61848368D01*
X180204644Y-61848367D01*
X180128823Y-61809734D01*
X180008228Y-61748286D01*
X180008225Y-61748285D01*
X179798574Y-61680167D01*
X179689708Y-61662924D01*
X179580844Y-61645682D01*
X179360400Y-61645682D01*
X179287823Y-61657177D01*
X179142669Y-61680167D01*
X178933018Y-61748285D01*
X178933015Y-61748286D01*
X178736596Y-61848369D01*
X178558263Y-61977934D01*
X178558258Y-61977938D01*
X178402378Y-62133818D01*
X178402374Y-62133823D01*
X178300940Y-62273436D01*
X178245610Y-62316102D01*
X178175997Y-62322081D01*
X178114202Y-62289475D01*
X178100304Y-62273436D01*
X177998869Y-62133823D01*
X177998865Y-62133818D01*
X177842985Y-61977938D01*
X177842980Y-61977934D01*
X177664647Y-61848369D01*
X177664646Y-61848368D01*
X177664644Y-61848367D01*
X177588823Y-61809734D01*
X177468228Y-61748286D01*
X177468225Y-61748285D01*
X177258574Y-61680167D01*
X177149708Y-61662924D01*
X177040844Y-61645682D01*
X176820400Y-61645682D01*
X176747823Y-61657177D01*
X176602669Y-61680167D01*
X176393018Y-61748285D01*
X176393015Y-61748286D01*
X176196596Y-61848369D01*
X176018263Y-61977934D01*
X176018258Y-61977938D01*
X175862378Y-62133818D01*
X175862374Y-62133823D01*
X175760940Y-62273436D01*
X175705610Y-62316102D01*
X175635997Y-62322081D01*
X175574202Y-62289475D01*
X175560304Y-62273436D01*
X175458869Y-62133823D01*
X175458865Y-62133818D01*
X175302985Y-61977938D01*
X175302980Y-61977934D01*
X175124647Y-61848369D01*
X175124646Y-61848368D01*
X175124644Y-61848367D01*
X175048823Y-61809734D01*
X174928228Y-61748286D01*
X174928225Y-61748285D01*
X174718574Y-61680167D01*
X174609708Y-61662924D01*
X174500844Y-61645682D01*
X174280400Y-61645682D01*
X174207823Y-61657177D01*
X174062669Y-61680167D01*
X173853018Y-61748285D01*
X173853015Y-61748286D01*
X173656596Y-61848369D01*
X173478263Y-61977934D01*
X173478258Y-61977938D01*
X173322378Y-62133818D01*
X173322374Y-62133823D01*
X173220940Y-62273436D01*
X173165610Y-62316102D01*
X173095997Y-62322081D01*
X173034202Y-62289475D01*
X173020304Y-62273436D01*
X172918869Y-62133823D01*
X172918865Y-62133818D01*
X172762985Y-61977938D01*
X172762980Y-61977934D01*
X172584647Y-61848369D01*
X172584646Y-61848368D01*
X172584644Y-61848367D01*
X172508823Y-61809734D01*
X172388228Y-61748286D01*
X172388225Y-61748285D01*
X172178574Y-61680167D01*
X172069708Y-61662924D01*
X171960844Y-61645682D01*
X171740400Y-61645682D01*
X171667823Y-61657177D01*
X171522669Y-61680167D01*
X171313018Y-61748285D01*
X171313015Y-61748286D01*
X171116596Y-61848369D01*
X170938263Y-61977934D01*
X170938258Y-61977938D01*
X170782378Y-62133818D01*
X170782374Y-62133823D01*
X170680940Y-62273436D01*
X170625610Y-62316102D01*
X170555997Y-62322081D01*
X170494202Y-62289475D01*
X170480304Y-62273436D01*
X170378869Y-62133823D01*
X170378865Y-62133818D01*
X170222985Y-61977938D01*
X170222980Y-61977934D01*
X170044647Y-61848369D01*
X170044646Y-61848368D01*
X170044644Y-61848367D01*
X169968823Y-61809734D01*
X169848228Y-61748286D01*
X169848225Y-61748285D01*
X169638574Y-61680167D01*
X169529708Y-61662924D01*
X169420844Y-61645682D01*
X169200400Y-61645682D01*
X169127823Y-61657177D01*
X168982669Y-61680167D01*
X168773018Y-61748285D01*
X168773015Y-61748286D01*
X168576596Y-61848369D01*
X168398263Y-61977934D01*
X168398258Y-61977938D01*
X168242378Y-62133818D01*
X168242374Y-62133823D01*
X168140940Y-62273436D01*
X168085610Y-62316102D01*
X168015997Y-62322081D01*
X167954202Y-62289475D01*
X167940304Y-62273436D01*
X167838869Y-62133823D01*
X167838865Y-62133818D01*
X167682985Y-61977938D01*
X167682980Y-61977934D01*
X167504647Y-61848369D01*
X167504646Y-61848368D01*
X167504644Y-61848367D01*
X167428823Y-61809734D01*
X167308228Y-61748286D01*
X167308225Y-61748285D01*
X167098574Y-61680167D01*
X166989708Y-61662924D01*
X166880844Y-61645682D01*
X166660400Y-61645682D01*
X166587823Y-61657177D01*
X166442669Y-61680167D01*
X166233018Y-61748285D01*
X166233015Y-61748286D01*
X166036596Y-61848369D01*
X165858263Y-61977934D01*
X165858258Y-61977938D01*
X165702378Y-62133818D01*
X165702374Y-62133823D01*
X165600940Y-62273436D01*
X165545610Y-62316102D01*
X165475997Y-62322081D01*
X165414202Y-62289475D01*
X165400304Y-62273436D01*
X165298869Y-62133823D01*
X165298865Y-62133818D01*
X165142985Y-61977938D01*
X165142980Y-61977934D01*
X164964647Y-61848369D01*
X164964646Y-61848368D01*
X164964644Y-61848367D01*
X164888823Y-61809734D01*
X164768228Y-61748286D01*
X164768225Y-61748285D01*
X164558574Y-61680167D01*
X164449708Y-61662924D01*
X164340844Y-61645682D01*
X164120400Y-61645682D01*
X164047823Y-61657177D01*
X163902669Y-61680167D01*
X163693018Y-61748285D01*
X163693015Y-61748286D01*
X163496596Y-61848369D01*
X163318263Y-61977934D01*
X163318258Y-61977938D01*
X163162378Y-62133818D01*
X163060630Y-62273863D01*
X163005300Y-62316528D01*
X162935687Y-62322507D01*
X162873892Y-62289901D01*
X162859993Y-62273862D01*
X162841688Y-62248667D01*
X162841687Y-62248667D01*
X162255234Y-62835122D01*
X162249733Y-62814591D01*
X162170741Y-62677774D01*
X162059030Y-62566063D01*
X161922213Y-62487071D01*
X161901679Y-62481569D01*
X162488135Y-61895114D01*
X162424378Y-61848793D01*
X162228032Y-61748749D01*
X162018457Y-61680655D01*
X161800803Y-61646182D01*
X161580441Y-61646182D01*
X161362786Y-61680655D01*
X161153211Y-61748749D01*
X160956855Y-61848798D01*
X160893107Y-61895113D01*
X160893107Y-61895114D01*
X161479562Y-62481569D01*
X161459031Y-62487071D01*
X161322214Y-62566063D01*
X161210503Y-62677774D01*
X161131511Y-62814591D01*
X161126009Y-62835122D01*
X160539554Y-62248667D01*
X160539552Y-62248667D01*
X160521248Y-62273861D01*
X160465918Y-62316527D01*
X160396305Y-62322506D01*
X160334510Y-62289900D01*
X160320612Y-62273861D01*
X160218869Y-62133822D01*
X160062985Y-61977938D01*
X160062980Y-61977934D01*
X159884647Y-61848369D01*
X159884646Y-61848368D01*
X159884644Y-61848367D01*
X159808823Y-61809734D01*
X159688228Y-61748286D01*
X159688225Y-61748285D01*
X159478574Y-61680167D01*
X159369708Y-61662924D01*
X159260844Y-61645682D01*
X159071849Y-61645682D01*
X159004810Y-61625997D01*
X158959055Y-61573193D01*
X158949111Y-61504035D01*
X158978136Y-61440479D01*
X158984168Y-61434001D01*
X160175903Y-60242267D01*
X161375169Y-59043001D01*
X161436492Y-59009516D01*
X161462850Y-59006682D01*
X165174541Y-59006682D01*
X165272083Y-58987278D01*
X165319534Y-58977840D01*
X165456116Y-58921266D01*
X165505350Y-58888368D01*
X165579037Y-58839134D01*
X168683573Y-55734597D01*
X168726589Y-55670218D01*
X168765705Y-55611677D01*
X168818343Y-55484598D01*
X168822280Y-55475094D01*
X168822361Y-55474691D01*
X168841507Y-55378430D01*
X168851121Y-55330099D01*
X168851121Y-55182264D01*
X168851121Y-53932264D01*
X168851121Y-53932261D01*
X168822280Y-53787274D01*
X168822279Y-53787273D01*
X168822279Y-53787269D01*
X168818134Y-53777262D01*
X168765707Y-53650691D01*
X168765706Y-53650689D01*
X168735671Y-53605739D01*
X168732807Y-53601452D01*
X168732806Y-53601450D01*
X168683577Y-53527771D01*
X168683573Y-53527766D01*
X168079042Y-52923234D01*
X168079035Y-52923228D01*
X168005350Y-52873994D01*
X168005350Y-52873995D01*
X167956112Y-52841095D01*
X167819538Y-52784525D01*
X167819528Y-52784522D01*
X167674541Y-52755682D01*
X167674539Y-52755682D01*
X155884538Y-52755682D01*
X155736703Y-52755682D01*
X155736701Y-52755682D01*
X155591713Y-52784522D01*
X155591703Y-52784525D01*
X155455132Y-52841094D01*
X155455119Y-52841101D01*
X155332205Y-52923230D01*
X155332201Y-52923233D01*
X154505572Y-53749861D01*
X154444249Y-53783346D01*
X154411548Y-53785571D01*
X154411548Y-53785682D01*
X154409919Y-53785682D01*
X154408185Y-53785800D01*
X154406682Y-53785682D01*
X154406676Y-53785682D01*
X154214566Y-53785682D01*
X154204515Y-53787274D01*
X154024818Y-53815735D01*
X153842114Y-53875098D01*
X153670939Y-53962317D01*
X153641236Y-53983898D01*
X153515519Y-54075237D01*
X153515517Y-54075239D01*
X153515516Y-54075239D01*
X153379678Y-54211077D01*
X153379678Y-54211078D01*
X153379676Y-54211080D01*
X153352152Y-54248964D01*
X153266756Y-54366500D01*
X153179538Y-54537674D01*
X153158288Y-54603074D01*
X153118850Y-54660749D01*
X153054491Y-54687947D01*
X152985645Y-54676032D01*
X152934169Y-54628787D01*
X152922426Y-54603073D01*
X152901237Y-54537862D01*
X152814055Y-54366759D01*
X152792822Y-54337534D01*
X152792821Y-54337533D01*
X152170621Y-54959734D01*
X152170621Y-54953521D01*
X152143362Y-54851788D01*
X152090701Y-54760576D01*
X152016227Y-54686102D01*
X151925015Y-54633441D01*
X151823282Y-54606182D01*
X151817068Y-54606182D01*
X152439267Y-53983980D01*
X152410036Y-53962743D01*
X152238942Y-53875565D01*
X152056305Y-53816222D01*
X151866636Y-53786182D01*
X151674606Y-53786182D01*
X151484936Y-53816222D01*
X151302299Y-53875565D01*
X151131199Y-53962746D01*
X151101973Y-53983980D01*
X151101972Y-53983980D01*
X151724175Y-54606182D01*
X151717960Y-54606182D01*
X151616227Y-54633441D01*
X151525015Y-54686102D01*
X151450541Y-54760576D01*
X151397880Y-54851788D01*
X151370621Y-54953521D01*
X151370621Y-54959735D01*
X150748419Y-54337533D01*
X150748419Y-54337534D01*
X150727185Y-54366760D01*
X150640004Y-54537860D01*
X150580661Y-54720497D01*
X150550621Y-54910166D01*
X150550621Y-55102197D01*
X150580661Y-55291866D01*
X150640004Y-55474503D01*
X150727182Y-55645597D01*
X150748419Y-55674828D01*
X151370621Y-55052627D01*
X151370621Y-55058843D01*
X151397880Y-55160576D01*
X151450541Y-55251788D01*
X151525015Y-55326262D01*
X151616227Y-55378923D01*
X151717960Y-55406182D01*
X151724175Y-55406182D01*
X151101972Y-56028382D01*
X151101973Y-56028383D01*
X151131198Y-56049616D01*
X151302299Y-56136798D01*
X151484936Y-56196141D01*
X151674606Y-56226182D01*
X151866636Y-56226182D01*
X152056305Y-56196141D01*
X152238942Y-56136798D01*
X152410040Y-56049618D01*
X152439267Y-56028383D01*
X152439267Y-56028382D01*
X151817068Y-55406182D01*
X151823282Y-55406182D01*
X151925015Y-55378923D01*
X152016227Y-55326262D01*
X152090701Y-55251788D01*
X152143362Y-55160576D01*
X152170621Y-55058843D01*
X152170621Y-55052628D01*
X152792821Y-55674828D01*
X152792822Y-55674828D01*
X152814057Y-55645601D01*
X152901237Y-55474501D01*
X152922426Y-55409290D01*
X152961863Y-55351615D01*
X153026221Y-55324416D01*
X153095068Y-55336330D01*
X153146544Y-55383574D01*
X153158288Y-55409290D01*
X153179537Y-55474687D01*
X153179538Y-55474690D01*
X153179539Y-55474691D01*
X153266756Y-55645863D01*
X153379676Y-55801284D01*
X153515519Y-55937127D01*
X153670940Y-56050047D01*
X153745729Y-56088154D01*
X153842114Y-56137265D01*
X153933466Y-56166946D01*
X154024820Y-56196629D01*
X154214566Y-56226682D01*
X154214567Y-56226682D01*
X154406675Y-56226682D01*
X154406676Y-56226682D01*
X154596422Y-56196629D01*
X154779130Y-56137264D01*
X154950302Y-56050047D01*
X155105723Y-55937127D01*
X155241566Y-55801284D01*
X155354486Y-55645863D01*
X155441703Y-55474691D01*
X155441765Y-55474501D01*
X155462690Y-55410101D01*
X155502127Y-55352425D01*
X155566485Y-55325226D01*
X155635332Y-55337140D01*
X155686808Y-55384384D01*
X155698552Y-55410101D01*
X155719536Y-55474686D01*
X155781045Y-55595402D01*
X155806756Y-55645863D01*
X155919676Y-55801284D01*
X156055519Y-55937127D01*
X156055524Y-55937131D01*
X156056652Y-55938094D01*
X156056964Y-55938572D01*
X156058964Y-55940572D01*
X156058543Y-55940992D01*
X156094845Y-55996601D01*
X156100121Y-56032385D01*
X156100121Y-59953954D01*
X156080436Y-60020993D01*
X156063802Y-60041635D01*
X154466295Y-61639141D01*
X154404972Y-61672626D01*
X154359216Y-61673933D01*
X154224415Y-61652583D01*
X154180844Y-61645682D01*
X153960400Y-61645682D01*
X153960395Y-61645682D01*
X153825190Y-61667096D01*
X153755896Y-61658141D01*
X153718111Y-61632304D01*
X149509043Y-57423234D01*
X149509036Y-57423228D01*
X149435351Y-57373994D01*
X149435351Y-57373995D01*
X149386113Y-57341095D01*
X149249539Y-57284525D01*
X149249529Y-57284522D01*
X149104542Y-57255682D01*
X149104540Y-57255682D01*
X112326703Y-57255682D01*
X112326701Y-57255682D01*
X112181713Y-57284522D01*
X112181703Y-57284525D01*
X112045132Y-57341094D01*
X112045119Y-57341101D01*
X111922205Y-57423230D01*
X111922201Y-57423233D01*
X75062802Y-94282633D01*
X75001479Y-94316118D01*
X74931787Y-94311134D01*
X74875854Y-94269262D01*
X74851437Y-94203798D01*
X74851121Y-94194952D01*
X74851121Y-90232261D01*
X74822280Y-90087274D01*
X74822279Y-90087273D01*
X74822279Y-90087269D01*
X74797632Y-90027766D01*
X74765708Y-89950693D01*
X74765701Y-89950680D01*
X74683573Y-89827767D01*
X74640327Y-89784521D01*
X74579037Y-89723231D01*
X74179042Y-89323234D01*
X74179035Y-89323228D01*
X74105350Y-89273994D01*
X74105350Y-89273995D01*
X74056112Y-89241095D01*
X73919538Y-89184525D01*
X73919528Y-89184522D01*
X73774541Y-89155682D01*
X73774539Y-89155682D01*
X68426703Y-89155682D01*
X68426701Y-89155682D01*
X68281713Y-89184522D01*
X68281703Y-89184525D01*
X68145129Y-89241095D01*
X68022205Y-89323230D01*
X68022205Y-89323231D01*
X64517671Y-92827762D01*
X64517665Y-92827770D01*
X64468433Y-92901450D01*
X64468434Y-92901451D01*
X64435542Y-92950678D01*
X64435535Y-92950690D01*
X64378963Y-93087268D01*
X64378961Y-93087274D01*
X64350121Y-93232261D01*
X64350121Y-93232264D01*
X64350121Y-141674539D01*
X64350121Y-141674541D01*
X64350120Y-141674541D01*
X55500500Y-141674541D01*
X55500500Y-54878711D01*
X58149500Y-54878711D01*
X58149500Y-55121288D01*
X58181161Y-55361785D01*
X58243947Y-55596104D01*
X58336773Y-55820205D01*
X58336776Y-55820212D01*
X58458064Y-56030289D01*
X58458066Y-56030292D01*
X58458067Y-56030293D01*
X58605733Y-56222736D01*
X58605739Y-56222743D01*
X58777256Y-56394260D01*
X58777262Y-56394265D01*
X58969711Y-56541936D01*
X59179788Y-56663224D01*
X59403900Y-56756054D01*
X59638211Y-56818838D01*
X59818586Y-56842584D01*
X59878711Y-56850500D01*
X59878712Y-56850500D01*
X60121289Y-56850500D01*
X60169388Y-56844167D01*
X60361789Y-56818838D01*
X60596100Y-56756054D01*
X60820212Y-56663224D01*
X61030289Y-56541936D01*
X61222738Y-56394265D01*
X61394265Y-56222738D01*
X61541936Y-56030289D01*
X61663224Y-55820212D01*
X61756054Y-55596100D01*
X61818838Y-55361789D01*
X61850500Y-55121288D01*
X61850500Y-54878712D01*
X61846955Y-54851788D01*
X61829671Y-54720497D01*
X61818838Y-54638211D01*
X61756054Y-54403900D01*
X61663224Y-54179788D01*
X61541936Y-53969711D01*
X61407343Y-53794306D01*
X61394266Y-53777263D01*
X61394260Y-53777256D01*
X61222743Y-53605739D01*
X61222736Y-53605733D01*
X61030293Y-53458067D01*
X61030292Y-53458066D01*
X61030289Y-53458064D01*
X60820212Y-53336776D01*
X60820205Y-53336773D01*
X60596104Y-53243947D01*
X60361785Y-53181161D01*
X60121289Y-53149500D01*
X60121288Y-53149500D01*
X59878712Y-53149500D01*
X59878711Y-53149500D01*
X59638214Y-53181161D01*
X59403895Y-53243947D01*
X59179794Y-53336773D01*
X59179785Y-53336777D01*
X58969706Y-53458067D01*
X58777263Y-53605733D01*
X58777256Y-53605739D01*
X58605739Y-53777256D01*
X58605733Y-53777263D01*
X58458067Y-53969706D01*
X58336777Y-54179785D01*
X58336773Y-54179794D01*
X58243947Y-54403895D01*
X58181161Y-54638214D01*
X58149500Y-54878711D01*
X55500500Y-54878711D01*
X55500500Y-50624500D01*
X55520185Y-50557461D01*
X55572989Y-50511706D01*
X55624500Y-50500500D01*
X244375500Y-50500500D01*
X244442539Y-50520185D01*
G37*
%TD.AperFunction*%
%TD*%
M02*
